<?xml version="1.0" encoding="UTF-8"?>
<!DOCTYPE svg PUBLIC "-//W3C//DTD SVG 1.1//EN" "http://www.w3.org/Graphics/SVG/1.1/DTD/svg11.dtd">
<svg xmlns="http://www.w3.org/2000/svg" version="1.1" width="577px" height="433px" style="shape-rendering:geometricPrecision; text-rendering:geometricPrecision; image-rendering:optimizeQuality; fill-rule:evenodd; clip-rule:evenodd" xmlns:xlink="http://www.w3.org/1999/xlink">
<g><path style="opacity:0.637" fill="#1e666d" d="M 294.5,136.5 C 290.167,136.5 285.833,136.5 281.5,136.5C 282.261,135.609 283.261,134.942 284.5,134.5C 286.648,135.758 288.815,135.758 291,134.5C 292.459,134.808 293.626,135.475 294.5,136.5 Z"/></g>
<g><path style="opacity:1" fill="#10eef3" d="M 281.5,136.5 C 285.833,136.5 290.167,136.5 294.5,136.5C 299.11,136.971 303.11,138.804 306.5,142C 308.415,144.4 310.081,146.9 311.5,149.5C 311.427,151.027 312.094,152.027 313.5,152.5C 313.263,153.791 313.596,154.791 314.5,155.5C 314.5,156.5 314.5,157.5 314.5,158.5C 314.5,161.167 314.5,163.833 314.5,166.5C 313.732,167.263 313.232,168.263 313,169.5C 304.259,158.755 294.759,148.588 284.5,139C 282.833,138.667 281.167,138.333 279.5,138C 280.416,137.722 281.082,137.222 281.5,136.5 Z"/></g>
<g><path style="opacity:1" fill="#04e6fb" d="M 281.5,136.5 C 281.082,137.222 280.416,137.722 279.5,138C 281.167,138.333 282.833,138.667 284.5,139C 294.759,148.588 304.259,158.755 313,169.5C 313.232,168.263 313.732,167.263 314.5,166.5C 314.5,171.833 314.5,177.167 314.5,182.5C 313.679,185.641 313.179,188.975 313,192.5C 312.333,191.167 311.667,189.833 311,188.5C 305.679,183.012 300.179,177.679 294.5,172.5C 293.824,173.602 293.158,174.602 292.5,175.5C 292.666,170.821 292.499,166.155 292,161.5C 291.583,160.244 290.75,159.577 289.5,159.5C 287.446,159.365 285.779,160.032 284.5,161.5C 283.662,161.842 283.328,162.508 283.5,163.5C 283.167,163.5 282.833,163.5 282.5,163.5C 282.502,161.169 281.669,159.169 280,157.5C 276.291,153.825 272.624,150.158 269,146.5C 268.162,147.999 267.329,148.332 266.5,147.5C 268.5,145.167 270.5,142.833 272.5,140.5C 274.835,137.835 277.835,136.502 281.5,136.5 Z"/></g>
<g><path style="opacity:0.725" fill="#1a5a68" d="M 272.5,140.5 C 270.5,142.833 268.5,145.167 266.5,147.5C 266.167,147.5 265.833,147.5 265.5,147.5C 266.833,144.167 269.167,141.833 272.5,140.5 Z"/></g>
<g><path style="opacity:1" fill="#0ad7fb" d="M 282.5,163.5 C 281.189,166.135 279.522,168.469 277.5,170.5C 272.117,164.787 266.784,159.12 261.5,153.5C 263.262,152.738 264.262,151.404 264.5,149.5C 264.328,148.508 264.662,147.842 265.5,147.5C 265.833,147.5 266.167,147.5 266.5,147.5C 267.329,148.332 268.162,147.999 269,146.5C 272.624,150.158 276.291,153.825 280,157.5C 281.669,159.169 282.502,161.169 282.5,163.5 Z"/></g>
<g><path style="opacity:0.486" fill="#194f60" d="M 264.5,149.5 C 264.262,151.404 263.262,152.738 261.5,153.5C 261.738,151.596 262.738,150.262 264.5,149.5 Z"/></g>
<g><path style="opacity:0.235" fill="#4a5347" d="M 311.5,149.5 C 312.906,149.973 313.573,150.973 313.5,152.5C 312.094,152.027 311.427,151.027 311.5,149.5 Z"/></g>
<g><path style="opacity:0.204" fill="#6e432a" d="M 313.5,152.5 C 314.906,152.973 315.573,153.973 315.5,155.5C 315.167,155.5 314.833,155.5 314.5,155.5C 313.596,154.791 313.263,153.791 313.5,152.5 Z"/></g>
<g><path style="opacity:0.4" fill="#174b5e" d="M 260.5,155.5 C 260.573,157.027 259.906,158.027 258.5,158.5C 258.427,156.973 259.094,155.973 260.5,155.5 Z"/></g>
<g><path style="opacity:0.286" fill="#5b382a" d="M 315.5,155.5 C 316.906,155.973 317.573,156.973 317.5,158.5C 316.094,158.027 315.427,157.027 315.5,155.5 Z"/></g>
<g><path style="opacity:1" fill="#13cafa" d="M 261.5,153.5 C 266.784,159.12 272.117,164.787 277.5,170.5C 276,174.173 274,177.506 271.5,180.5C 267.243,174.738 262.41,169.405 257,164.5C 256.805,163.181 256.972,161.847 257.5,160.5C 257.328,159.508 257.662,158.842 258.5,158.5C 259.906,158.027 260.573,157.027 260.5,155.5C 260.328,154.508 260.662,153.842 261.5,153.5 Z"/></g>
<g><path style="opacity:0.325" fill="#56342b" d="M 317.5,158.5 C 318.906,158.973 319.573,159.973 319.5,161.5C 318.094,161.027 317.427,160.027 317.5,158.5 Z"/></g>
<g><path style="opacity:0.216" fill="#4e302b" d="M 319.5,161.5 C 320.906,161.973 321.573,162.973 321.5,164.5C 320.094,164.027 319.427,163.027 319.5,161.5 Z"/></g>
<g><path style="opacity:1" fill="#fa7953" d="M 314.5,155.5 C 314.833,155.5 315.167,155.5 315.5,155.5C 315.427,157.027 316.094,158.027 317.5,158.5C 317.427,160.027 318.094,161.027 319.5,161.5C 319.427,163.027 320.094,164.027 321.5,164.5C 322.338,164.842 322.672,165.508 322.5,166.5C 322.557,167.609 322.89,168.609 323.5,169.5C 321.47,172.182 318.803,173.849 315.5,174.5C 315.821,168.974 315.488,163.64 314.5,158.5C 314.5,157.5 314.5,156.5 314.5,155.5 Z"/></g>
<g><path style="opacity:0.439" fill="#703d36" d="M 322.5,166.5 C 323.906,166.973 324.573,167.973 324.5,169.5C 324.167,169.5 323.833,169.5 323.5,169.5C 322.89,168.609 322.557,167.609 322.5,166.5 Z"/></g>
<g><path style="opacity:1" fill="#11b7f4" d="M 257.5,160.5 C 256.972,161.847 256.805,163.181 257,164.5C 262.41,169.405 267.243,174.738 271.5,180.5C 268.833,184.833 266.167,189.167 263.5,193.5C 263.5,194.167 263.167,194.5 262.5,194.5C 258.648,187.807 253.481,182.14 247,177.5C 246.617,178.056 246.117,178.389 245.5,178.5C 248.511,171.803 252.511,165.803 257.5,160.5 Z"/></g>
<g><path style="opacity:0.4" fill="#6a3836" d="M 324.5,169.5 C 325.906,169.973 326.573,170.973 326.5,172.5C 325.094,172.027 324.427,171.027 324.5,169.5 Z"/></g>
<g><path style="opacity:0.369" fill="#633436" d="M 326.5,172.5 C 327.906,172.973 328.573,173.973 328.5,175.5C 327.094,175.027 326.427,174.027 326.5,172.5 Z"/></g>
<g><path style="opacity:1" fill="#fc903a" d="M 282.5,163.5 C 282.833,163.5 283.167,163.5 283.5,163.5C 283.5,168.5 283.5,173.5 283.5,178.5C 277.39,184.282 270.723,189.282 263.5,193.5C 266.167,189.167 268.833,184.833 271.5,180.5C 274,177.506 276,174.173 277.5,170.5C 279.522,168.469 281.189,166.135 282.5,163.5 Z"/></g>
<g><path style="opacity:1" fill="#f96e6c" d="M 314.5,158.5 C 315.488,163.64 315.821,168.974 315.5,174.5C 318.803,173.849 321.47,172.182 323.5,169.5C 323.833,169.5 324.167,169.5 324.5,169.5C 324.427,171.027 325.094,172.027 326.5,172.5C 326.427,174.027 327.094,175.027 328.5,175.5C 328.427,177.027 329.094,178.027 330.5,178.5C 330.5,178.833 330.5,179.167 330.5,179.5C 327.535,180.902 325.035,182.902 323,185.5C 322.667,185.167 322.333,184.833 322,184.5C 320.807,186.605 319.14,188.272 317,189.5C 315.798,191.677 315.298,194.011 315.5,196.5C 315.167,196.5 314.833,196.5 314.5,196.5C 314.5,191.833 314.5,187.167 314.5,182.5C 314.5,177.167 314.5,171.833 314.5,166.5C 314.5,163.833 314.5,161.167 314.5,158.5 Z"/></g>
<g><path style="opacity:0.322" fill="#5b3035" d="M 328.5,175.5 C 329.906,175.973 330.573,176.973 330.5,178.5C 329.094,178.027 328.427,177.027 328.5,175.5 Z"/></g>
<g><path style="opacity:1" fill="#01d9fe" d="M 314.5,182.5 C 314.5,187.167 314.5,191.833 314.5,196.5C 313.675,200.647 313.175,204.981 313,209.5C 312.667,207.833 312.333,206.167 312,204.5C 306.027,198.527 300.027,192.527 294,186.5C 293.768,187.737 293.268,188.737 292.5,189.5C 292.5,184.833 292.5,180.167 292.5,175.5C 293.158,174.602 293.824,173.602 294.5,172.5C 300.179,177.679 305.679,183.012 311,188.5C 311.667,189.833 312.333,191.167 313,192.5C 313.179,188.975 313.679,185.641 314.5,182.5 Z"/></g>
<g><path style="opacity:0.65" fill="#146f87" d="M 289.5,159.5 C 290.75,159.577 291.583,160.244 292,161.5C 292.499,166.155 292.666,170.821 292.5,175.5C 292.5,180.167 292.5,184.833 292.5,189.5C 292.663,191.857 292.497,194.19 292,196.5C 291.329,197.252 290.496,197.586 289.5,197.5C 290.141,196.518 290.807,195.518 291.5,194.5C 291.606,184.341 291.439,174.008 291,163.5C 290.59,162.099 290.09,160.766 289.5,159.5 Z"/></g>
<g><path style="opacity:0.306" fill="#522c35" d="M 330.5,178.5 C 331.906,178.973 332.573,179.973 332.5,181.5C 331.5,181.167 330.833,180.5 330.5,179.5C 330.5,179.167 330.5,178.833 330.5,178.5 Z"/></g>
<g><path style="opacity:1" fill="#03aaf9" d="M 262.5,194.5 C 262.167,195.167 261.833,195.833 261.5,196.5C 260.167,198.167 258.833,199.833 257.5,201.5C 251.957,196.774 246.624,191.774 241.5,186.5C 242.127,185.583 242.461,184.583 242.5,183.5C 242.75,181.326 243.75,179.659 245.5,178.5C 246.117,178.389 246.617,178.056 247,177.5C 253.481,182.14 258.648,187.807 262.5,194.5 Z"/></g>
<g><path style="opacity:0.235" fill="#4a2733" d="M 332.5,181.5 C 333.906,181.973 334.573,182.973 334.5,184.5C 333.094,184.027 332.427,183.027 332.5,181.5 Z"/></g>
<g><path style="opacity:1" fill="#f45b79" d="M 330.5,179.5 C 330.833,180.5 331.5,181.167 332.5,181.5C 332.427,183.027 333.094,184.027 334.5,184.5C 334.427,186.027 335.094,187.027 336.5,187.5C 337.89,188.899 338.89,190.566 339.5,192.5C 336.103,189.804 332.77,189.971 329.5,193C 327.29,194.509 325.457,196.342 324,198.5C 323.333,197.167 322.667,197.167 322,198.5C 321.023,200.74 320.523,203.073 320.5,205.5C 318.738,204.738 317.738,203.404 317.5,201.5C 316.559,199.95 315.893,198.284 315.5,196.5C 315.298,194.011 315.798,191.677 317,189.5C 319.14,188.272 320.807,186.605 322,184.5C 322.333,184.833 322.667,185.167 323,185.5C 325.035,182.902 327.535,180.902 330.5,179.5 Z"/></g>
<g><path style="opacity:0.192" fill="#442431" d="M 334.5,184.5 C 335.906,184.973 336.573,185.973 336.5,187.5C 335.094,187.027 334.427,186.027 334.5,184.5 Z"/></g>
<g><path style="opacity:0.998" fill="#fb804b" d="M 283.5,178.5 C 283.83,184.868 283.496,191.202 282.5,197.5C 278.599,199.608 274.933,201.941 271.5,204.5C 269.017,207.741 265.684,209.408 261.5,209.5C 261.5,205.167 261.5,200.833 261.5,196.5C 261.833,195.833 262.167,195.167 262.5,194.5C 263.167,194.5 263.5,194.167 263.5,193.5C 270.723,189.282 277.39,184.282 283.5,178.5 Z"/></g>
<g><path style="opacity:1" fill="#f8518a" d="M 339.5,192.5 C 339.427,194.027 340.094,195.027 341.5,195.5C 341.5,195.833 341.5,196.167 341.5,196.5C 336.32,201.074 330.82,205.408 325,209.5C 324.805,210.819 324.972,212.153 325.5,213.5C 323.336,211.178 321.669,208.511 320.5,205.5C 320.523,203.073 321.023,200.74 322,198.5C 322.667,197.167 323.333,197.167 324,198.5C 325.457,196.342 327.29,194.509 329.5,193C 332.77,189.971 336.103,189.804 339.5,192.5 Z"/></g>
<g><path style="opacity:1" fill="#0998ef" d="M 242.5,183.5 C 242.461,184.583 242.127,185.583 241.5,186.5C 246.624,191.774 251.957,196.774 257.5,201.5C 257.5,201.833 257.5,202.167 257.5,202.5C 255.554,206.439 253.221,210.106 250.5,213.5C 249.316,212.312 249.316,211.145 250.5,210C 246.167,205.667 241.833,201.333 237.5,197C 235.718,196.878 234.052,197.378 232.5,198.5C 235.056,192.951 238.39,187.951 242.5,183.5 Z"/></g>
<g><path style="opacity:1" fill="#03cbfd" d="M 314.5,196.5 C 314.5,200.833 314.5,205.167 314.5,209.5C 314.5,210.167 314.167,210.5 313.5,210.5C 311.973,210.427 310.973,211.094 310.5,212.5C 309.391,212.557 308.391,212.89 307.5,213.5C 301.591,209.098 296.091,204.098 291,198.5C 288.821,199.84 288.321,199.507 289.5,197.5C 290.496,197.586 291.329,197.252 292,196.5C 292.497,194.19 292.663,191.857 292.5,189.5C 293.268,188.737 293.768,187.737 294,186.5C 300.027,192.527 306.027,198.527 312,204.5C 312.333,206.167 312.667,207.833 313,209.5C 313.175,204.981 313.675,200.647 314.5,196.5 Z"/></g>
<g><path style="opacity:0.392" fill="#5f2a42" d="M 339.5,192.5 C 340.906,192.973 341.573,193.973 341.5,195.5C 340.094,195.027 339.427,194.027 339.5,192.5 Z"/></g>
<g><path style="opacity:0.322" fill="#562640" d="M 341.5,195.5 C 342.906,195.973 343.573,196.973 343.5,198.5C 342.5,198.167 341.833,197.5 341.5,196.5C 341.5,196.167 341.5,195.833 341.5,195.5 Z"/></g>
<g><path style="opacity:0.117" fill="#192833" d="M 314.5,196.5 C 314.833,196.5 315.167,196.5 315.5,196.5C 315.893,198.284 316.559,199.95 317.5,201.5C 316.082,204.02 315.082,206.687 314.5,209.5C 314.5,205.167 314.5,200.833 314.5,196.5 Z"/></g>
<g><path style="opacity:1" fill="#f24596" d="M 341.5,196.5 C 341.833,197.5 342.5,198.167 343.5,198.5C 343.427,200.027 344.094,201.027 345.5,201.5C 346.338,201.842 346.672,202.508 346.5,203.5C 345.883,203.389 345.383,203.056 345,202.5C 339.051,206.553 333.217,210.72 327.5,215C 328.337,216.011 328.67,217.178 328.5,218.5C 327.11,217.101 326.11,215.434 325.5,213.5C 324.972,212.153 324.805,210.819 325,209.5C 330.82,205.408 336.32,201.074 341.5,196.5 Z"/></g>
<g><path style="opacity:0.325" fill="#173556" d="M 232.5,198.5 C 232.573,200.027 231.906,201.027 230.5,201.5C 230.427,199.973 231.094,198.973 232.5,198.5 Z"/></g>
<g><path style="opacity:0.088" fill="#202129" d="M 261.5,196.5 C 261.5,200.833 261.5,205.167 261.5,209.5C 260.532,207.393 260.198,205.059 260.5,202.5C 259.5,202.5 258.5,202.5 257.5,202.5C 257.5,202.167 257.5,201.833 257.5,201.5C 258.833,199.833 260.167,198.167 261.5,196.5 Z"/></g>
<g><path style="opacity:0.259" fill="#4f243d" d="M 343.5,198.5 C 344.906,198.973 345.573,199.973 345.5,201.5C 344.094,201.027 343.427,200.027 343.5,198.5 Z"/></g>
<g><path style="opacity:1" fill="#058ff5" d="M 250.5,213.5 C 248.554,217.439 246.221,221.106 243.5,224.5C 243.286,222.856 243.62,221.356 244.5,220C 239.653,214.784 234.486,209.951 229,205.5C 228.617,206.056 228.117,206.389 227.5,206.5C 227.328,205.508 227.662,204.842 228.5,204.5C 229.906,204.027 230.573,203.027 230.5,201.5C 231.906,201.027 232.573,200.027 232.5,198.5C 234.052,197.378 235.718,196.878 237.5,197C 241.833,201.333 246.167,205.667 250.5,210C 249.316,211.145 249.316,212.312 250.5,213.5 Z"/></g>
<g><path style="opacity:1" fill="#b66246" d="M 284.5,161.5 C 284.168,173.186 284.501,184.852 285.5,196.5C 286.183,196.863 286.85,197.196 287.5,197.5C 284.681,200.075 281.681,202.408 278.5,204.5C 277.833,204.5 277.167,204.5 276.5,204.5C 274.833,204.5 273.167,204.5 271.5,204.5C 274.933,201.941 278.599,199.608 282.5,197.5C 283.496,191.202 283.83,184.868 283.5,178.5C 283.5,173.5 283.5,168.5 283.5,163.5C 283.328,162.508 283.662,161.842 284.5,161.5 Z"/></g>
<g><path style="opacity:1" fill="#11bdfa" d="M 287.5,197.5 C 288.167,197.5 288.833,197.5 289.5,197.5C 288.321,199.507 288.821,199.84 291,198.5C 296.091,204.098 301.591,209.098 307.5,213.5C 304.001,215.75 300.335,217.75 296.5,219.5C 292.064,214.562 287.397,209.729 282.5,205C 281.207,204.51 279.873,204.343 278.5,204.5C 281.681,202.408 284.681,200.075 287.5,197.5 Z"/></g>
<g><path style="opacity:0.29" fill="#16314f" d="M 230.5,201.5 C 230.573,203.027 229.906,204.027 228.5,204.5C 228.427,202.973 229.094,201.973 230.5,201.5 Z"/></g>
<g><path style="opacity:0.549" fill="#65264d" d="M 346.5,203.5 C 348.262,204.262 349.262,205.596 349.5,207.5C 347.738,206.738 346.738,205.404 346.5,203.5 Z"/></g>
<g><path style="opacity:1" fill="#0cb1fa" d="M 276.5,204.5 C 277.167,204.5 277.833,204.5 278.5,204.5C 279.873,204.343 281.207,204.51 282.5,205C 287.397,209.729 292.064,214.562 296.5,219.5C 295.564,220.974 294.23,221.974 292.5,222.5C 290.632,223.263 288.965,224.263 287.5,225.5C 283.208,220.69 278.208,215.523 272.5,210C 271.552,209.517 270.552,209.351 269.5,209.5C 271.657,207.588 273.991,205.921 276.5,204.5 Z"/></g>
<g><path style="opacity:1" fill="#f23ca2" d="M 346.5,203.5 C 346.738,205.404 347.738,206.738 349.5,207.5C 350.338,207.842 350.672,208.508 350.5,209.5C 349.883,209.389 349.383,209.056 349,208.5C 343.152,212.799 337.985,217.632 333.5,223C 334.464,224.725 335.131,226.559 335.5,228.5C 332.687,225.554 330.354,222.221 328.5,218.5C 328.67,217.178 328.337,216.011 327.5,215C 333.217,210.72 339.051,206.553 345,202.5C 345.383,203.056 345.883,203.389 346.5,203.5 Z"/></g>
<g><path style="opacity:1" fill="#965949" d="M 271.5,204.5 C 273.167,204.5 274.833,204.5 276.5,204.5C 273.991,205.921 271.657,207.588 269.5,209.5C 267.938,209.733 266.605,210.4 265.5,211.5C 264.833,211.5 264.167,211.5 263.5,211.5C 262.5,211.167 261.833,210.5 261.5,209.5C 265.684,209.408 269.017,207.741 271.5,204.5 Z"/></g>
<g><path style="opacity:1" fill="#0a7fed" d="M 243.5,224.5 C 241.745,227.68 239.745,230.68 237.5,233.5C 237.698,231.425 237.865,229.425 238,227.5C 233.833,223.333 229.667,219.167 225.5,215C 224.072,214.421 222.738,214.588 221.5,215.5C 222.759,211.975 224.759,208.975 227.5,206.5C 228.117,206.389 228.617,206.056 229,205.5C 234.486,209.951 239.653,214.784 244.5,220C 243.62,221.356 243.286,222.856 243.5,224.5 Z"/></g>
<g><path style="opacity:0.008" fill="#171e28" d="M 313.5,210.5 C 313.5,211.833 313.5,213.167 313.5,214.5C 312.833,214.167 312.167,213.833 311.5,213.5C 311.5,212.833 311.167,212.5 310.5,212.5C 310.973,211.094 311.973,210.427 313.5,210.5 Z"/></g>
<g><path style="opacity:0.396" fill="#632351" d="M 350.5,209.5 C 351.906,209.973 352.573,210.973 352.5,212.5C 351.094,212.027 350.427,211.027 350.5,209.5 Z"/></g>
<g><path style="opacity:1" fill="#f834b3" d="M 350.5,209.5 C 350.427,211.027 351.094,212.027 352.5,212.5C 352.5,213.167 352.5,213.833 352.5,214.5C 347.861,219.292 342.694,223.626 337,227.5C 337.707,229.311 338.207,231.311 338.5,233.5C 336.75,232.341 335.75,230.674 335.5,228.5C 335.131,226.559 334.464,224.725 333.5,223C 337.985,217.632 343.152,212.799 349,208.5C 349.383,209.056 349.883,209.389 350.5,209.5 Z"/></g>
<g><path style="opacity:1" fill="#1591dc" d="M 269.5,209.5 C 270.552,209.351 271.552,209.517 272.5,210C 278.208,215.523 283.208,220.69 287.5,225.5C 286.152,226.601 284.652,227.601 283,228.5C 282.831,241.673 282.331,254.673 281.5,267.5C 281.5,266.833 281.5,266.167 281.5,265.5C 281.5,261.167 281.5,256.833 281.5,252.5C 281.666,246.491 281.499,240.491 281,234.5C 275.787,228.076 270.12,222.076 264,216.5C 262.887,217.305 261.721,217.972 260.5,218.5C 260.427,216.973 261.094,215.973 262.5,215.5C 263.974,214.564 264.974,213.23 265.5,211.5C 266.605,210.4 267.938,209.733 269.5,209.5 Z"/></g>
<g><path style="opacity:0.51" fill="#1a3a57" d="M 263.5,211.5 C 264.167,211.5 264.833,211.5 265.5,211.5C 264.974,213.23 263.974,214.564 262.5,215.5C 262.833,214.167 263.167,212.833 263.5,211.5 Z"/></g>
<g><path style="opacity:0.365" fill="#5d214e" d="M 352.5,212.5 C 353.906,212.973 354.573,213.973 354.5,215.5C 353.833,215.167 353.167,214.833 352.5,214.5C 352.5,213.833 352.5,213.167 352.5,212.5 Z"/></g>
<g><path style="opacity:1" fill="#ef4c8c" d="M 311.5,213.5 C 312.167,213.833 312.833,214.167 313.5,214.5C 314.338,214.842 314.672,215.508 314.5,216.5C 314.5,216.833 314.5,217.167 314.5,217.5C 308.671,222.908 302.337,227.575 295.5,231.5C 294.948,229.669 294.948,228.003 295.5,226.5C 300.877,222.113 306.21,217.78 311.5,213.5 Z"/></g>
<g><path style="opacity:0.384" fill="#16345f" d="M 221.5,215.5 C 221.573,217.027 220.906,218.027 219.5,218.5C 219.427,216.973 220.094,215.973 221.5,215.5 Z"/></g>
<g><path style="opacity:0.333" fill="#571f4d" d="M 354.5,215.5 C 355.906,215.973 356.573,216.973 356.5,218.5C 355.094,218.027 354.427,217.027 354.5,215.5 Z"/></g>
<g><path style="opacity:1" fill="#0478f7" d="M 237.5,233.5 C 236.331,236.511 234.664,239.178 232.5,241.5C 232.657,240.127 232.49,238.793 232,237.5C 227.833,233.333 223.667,229.167 219.5,225C 218.181,224.805 216.847,224.972 215.5,225.5C 215.5,225.167 215.5,224.833 215.5,224.5C 216.906,224.027 217.573,223.027 217.5,221.5C 218.906,221.027 219.573,220.027 219.5,218.5C 220.906,218.027 221.573,217.027 221.5,215.5C 222.738,214.588 224.072,214.421 225.5,215C 229.667,219.167 233.833,223.333 238,227.5C 237.865,229.425 237.698,231.425 237.5,233.5 Z"/></g>
<g><path style="opacity:1" fill="#f92ac0" d="M 352.5,214.5 C 353.167,214.833 353.833,215.167 354.5,215.5C 354.427,217.027 355.094,218.027 356.5,218.5C 356.427,220.027 357.094,221.027 358.5,221.5C 359.338,221.842 359.672,222.508 359.5,223.5C 358.883,223.389 358.383,223.056 358,222.5C 354.141,226.019 349.975,229.186 345.5,232C 342.161,233.764 341.161,236.264 342.5,239.5C 340.674,237.853 339.34,235.853 338.5,233.5C 338.207,231.311 337.707,229.311 337,227.5C 342.694,223.626 347.861,219.292 352.5,214.5 Z"/></g>
<g><path style="opacity:0.369" fill="#173059" d="M 219.5,218.5 C 219.573,220.027 218.906,221.027 217.5,221.5C 217.427,219.973 218.094,218.973 219.5,218.5 Z"/></g>
<g><path style="opacity:1" fill="#f54598" d="M 314.5,217.5 C 314.604,219.703 315.27,221.703 316.5,223.5C 313.046,227.595 309.046,231.261 304.5,234.5C 301.394,236.952 298.061,238.952 294.5,240.5C 293.319,237.638 293.319,234.638 294.5,231.5C 294.833,231.5 295.167,231.5 295.5,231.5C 302.337,227.575 308.671,222.908 314.5,217.5 Z"/></g>
<g><path style="opacity:0.333" fill="#521e4a" d="M 356.5,218.5 C 357.906,218.973 358.573,219.973 358.5,221.5C 357.094,221.027 356.427,220.027 356.5,218.5 Z"/></g>
<g><path style="opacity:1" fill="#0196f8" d="M 281.5,252.5 C 280.015,248.824 277.848,245.491 275,242.5C 270,238.167 265.333,233.5 261,228.5C 259.649,234.072 259.149,239.738 259.5,245.5C 259.806,248.385 259.473,251.052 258.5,253.5C 257.974,241.698 258.641,230.031 260.5,218.5C 261.721,217.972 262.887,217.305 264,216.5C 270.12,222.076 275.787,228.076 281,234.5C 281.499,240.491 281.666,246.491 281.5,252.5 Z"/></g>
<g><path style="opacity:0.294" fill="#162b4f" d="M 217.5,221.5 C 217.573,223.027 216.906,224.027 215.5,224.5C 215.427,222.973 216.094,221.973 217.5,221.5 Z"/></g>
<g><path style="opacity:0.863" fill="#683b51" d="M 292.5,222.5 C 292.461,223.583 292.127,224.583 291.5,225.5C 292.193,226.518 292.859,227.518 293.5,228.5C 291.517,227.529 289.517,226.529 287.5,225.5C 288.965,224.263 290.632,223.263 292.5,222.5 Z"/></g>
<g><path style="opacity:1" fill="#ba4974" d="M 310.5,212.5 C 311.167,212.5 311.5,212.833 311.5,213.5C 306.21,217.78 300.877,222.113 295.5,226.5C 294.948,228.003 294.948,229.669 295.5,231.5C 295.167,231.5 294.833,231.5 294.5,231.5C 294.436,230.635 294.103,229.635 293.5,228.5C 292.859,227.518 292.193,226.518 291.5,225.5C 292.127,224.583 292.461,223.583 292.5,222.5C 294.23,221.974 295.564,220.974 296.5,219.5C 300.335,217.75 304.001,215.75 307.5,213.5C 308.391,212.89 309.391,212.557 310.5,212.5 Z"/></g>
<g><path style="opacity:0.541" fill="#741f67" d="M 359.5,223.5 C 360.906,223.973 361.573,224.973 361.5,226.5C 360.094,226.027 359.427,225.027 359.5,223.5 Z"/></g>
<g><path style="opacity:0.239" fill="#152748" d="M 215.5,224.5 C 215.5,224.833 215.5,225.167 215.5,225.5C 215.167,226.5 214.5,227.167 213.5,227.5C 213.427,225.973 214.094,224.973 215.5,224.5 Z"/></g>
<g><path style="opacity:1" fill="#086bf3" d="M 232.5,241.5 C 231.331,244.511 229.664,247.178 227.5,249.5C 226.52,246.884 225.02,244.551 223,242.5C 219.667,239.167 216.333,235.833 213,232.5C 212.329,233.252 211.496,233.586 210.5,233.5C 210.5,233.167 210.5,232.833 210.5,232.5C 210.328,231.508 210.662,230.842 211.5,230.5C 212.906,230.027 213.573,229.027 213.5,227.5C 214.5,227.167 215.167,226.5 215.5,225.5C 216.847,224.972 218.181,224.805 219.5,225C 223.667,229.167 227.833,233.333 232,237.5C 232.49,238.793 232.657,240.127 232.5,241.5 Z"/></g>
<g><path style="opacity:0.486" fill="#6e1d65" d="M 361.5,226.5 C 362.906,226.973 363.573,227.973 363.5,229.5C 362.094,229.027 361.427,228.027 361.5,226.5 Z"/></g>
<g><path style="opacity:0.2" fill="#162443" d="M 213.5,227.5 C 213.573,229.027 212.906,230.027 211.5,230.5C 211.427,228.973 212.094,227.973 213.5,227.5 Z"/></g>
<g><path style="opacity:1" fill="#f61cd2" d="M 359.5,223.5 C 359.427,225.027 360.094,226.027 361.5,226.5C 361.427,228.027 362.094,229.027 363.5,229.5C 363.5,230.167 363.5,230.833 363.5,231.5C 363.719,232.675 363.386,233.675 362.5,234.5C 357.642,238.525 352.642,242.358 347.5,246C 349.984,247.892 351.318,250.392 351.5,253.5C 348.004,249.181 345.004,244.515 342.5,239.5C 341.161,236.264 342.161,233.764 345.5,232C 349.975,229.186 354.141,226.019 358,222.5C 358.383,223.056 358.883,223.389 359.5,223.5 Z"/></g>
<g><path style="opacity:0.431" fill="#651c60" d="M 363.5,229.5 C 364.906,229.973 365.573,230.973 365.5,232.5C 364.833,232.167 364.167,231.833 363.5,231.5C 363.5,230.833 363.5,230.167 363.5,229.5 Z"/></g>
<g><path style="opacity:0.427" fill="#162f65" d="M 210.5,232.5 C 210.5,232.833 210.5,233.167 210.5,233.5C 210.167,234.5 209.5,235.167 208.5,235.5C 208.427,233.973 209.094,232.973 210.5,232.5 Z"/></g>
<g><path style="opacity:0.408" fill="#5d1b5b" d="M 365.5,232.5 C 366.906,232.973 367.573,233.973 367.5,235.5C 366.094,235.027 365.427,234.027 365.5,232.5 Z"/></g>
<g><path style="opacity:0.076" fill="#151b28" d="M 260.5,218.5 C 258.641,230.031 257.974,241.698 258.5,253.5C 258.167,253.5 257.833,253.5 257.5,253.5C 257.334,243.494 257.5,233.494 258,223.5C 258.374,221.509 259.207,219.842 260.5,218.5 Z"/></g>
<g><path style="opacity:1" fill="#f711e3" d="M 363.5,231.5 C 364.167,231.833 364.833,232.167 365.5,232.5C 365.427,234.027 366.094,235.027 367.5,235.5C 368.89,236.899 369.89,238.566 370.5,240.5C 370.5,240.833 370.5,241.167 370.5,241.5C 365.021,246.136 359.354,250.636 353.5,255C 355.55,256.636 356.55,258.802 356.5,261.5C 354.847,258.869 353.181,256.203 351.5,253.5C 351.318,250.392 349.984,247.892 347.5,246C 352.642,242.358 357.642,238.525 362.5,234.5C 363.386,233.675 363.719,232.675 363.5,231.5 Z"/></g>
<g><path style="opacity:1" fill="#008efe" d="M 281.5,252.5 C 281.5,256.833 281.5,261.167 281.5,265.5C 275.267,257.761 268.434,250.428 261,243.5C 260.722,244.416 260.222,245.082 259.5,245.5C 259.149,239.738 259.649,234.072 261,228.5C 265.333,233.5 270,238.167 275,242.5C 277.848,245.491 280.015,248.824 281.5,252.5 Z"/></g>
<g><path style="opacity:1" fill="#f339a7" d="M 316.5,223.5 C 316.5,229.167 316.5,234.833 316.5,240.5C 309.763,244.4 303.429,248.9 297.5,254C 296.552,254.483 295.552,254.649 294.5,254.5C 294.5,257.833 294.5,261.167 294.5,264.5C 293.48,256.662 293.48,248.662 294.5,240.5C 298.061,238.952 301.394,236.952 304.5,234.5C 309.046,231.261 313.046,227.595 316.5,223.5 Z"/></g>
<g><path style="opacity:0.369" fill="#162a5c" d="M 208.5,235.5 C 208.573,237.027 207.906,238.027 206.5,238.5C 206.427,236.973 207.094,235.973 208.5,235.5 Z"/></g>
<g><path style="opacity:1" fill="#075ff4" d="M 227.5,249.5 C 225.403,253.372 223.069,257.039 220.5,260.5C 220.66,258.801 220.494,257.134 220,255.5C 216.5,252 213,248.5 209.5,245C 208.1,243.562 206.433,242.729 204.5,242.5C 204.5,242.167 204.5,241.833 204.5,241.5C 205.906,241.027 206.573,240.027 206.5,238.5C 207.906,238.027 208.573,237.027 208.5,235.5C 209.5,235.167 210.167,234.5 210.5,233.5C 211.496,233.586 212.329,233.252 213,232.5C 216.333,235.833 219.667,239.167 223,242.5C 225.02,244.551 226.52,246.884 227.5,249.5 Z"/></g>
<g><path style="opacity:0.813" fill="#a02b77" d="M 314.5,216.5 C 316.495,219.638 317.828,223.138 318.5,227C 317.177,235.876 317.177,244.709 318.5,253.5C 316.57,249.627 315.903,245.294 316.5,240.5C 316.5,234.833 316.5,229.167 316.5,223.5C 315.27,221.703 314.604,219.703 314.5,217.5C 314.5,217.167 314.5,216.833 314.5,216.5 Z"/></g>
<g><path style="opacity:0.349" fill="#162856" d="M 206.5,238.5 C 206.573,240.027 205.906,241.027 204.5,241.5C 204.427,239.973 205.094,238.973 206.5,238.5 Z"/></g>
<g><path style="opacity:0.627" fill="#7d177e" d="M 370.5,240.5 C 371.906,240.973 372.573,241.973 372.5,243.5C 371.5,243.167 370.833,242.5 370.5,241.5C 370.5,241.167 370.5,240.833 370.5,240.5 Z"/></g>
<g><path style="opacity:0.29" fill="#16244e" d="M 204.5,241.5 C 204.5,241.833 204.5,242.167 204.5,242.5C 204.167,243.5 203.5,244.167 202.5,244.5C 202.427,242.973 203.094,241.973 204.5,241.5 Z"/></g>
<g><path style="opacity:1" fill="#f703f7" d="M 370.5,241.5 C 370.833,242.5 371.5,243.167 372.5,243.5C 372.427,245.027 373.094,246.027 374.5,246.5C 374.427,248.027 375.094,249.027 376.5,249.5C 376.427,251.027 377.094,252.027 378.5,252.5C 378.427,254.027 379.094,255.027 380.5,255.5C 380.427,257.027 381.094,258.027 382.5,258.5C 382.5,258.833 382.5,259.167 382.5,259.5C 383.783,266.174 383.783,272.841 382.5,279.5C 375.513,294.571 363.847,299.738 347.5,295C 338.982,290.603 330.649,286.103 322.5,281.5C 328.088,276.55 333.422,271.383 338.5,266C 340.107,266.019 341.774,266.185 343.5,266.5C 344.609,266.557 345.609,266.89 346.5,267.5C 346.821,269.048 347.821,269.715 349.5,269.5C 352.622,270.561 355.622,271.895 358.5,273.5C 360.5,273.5 361.5,272.5 361.5,270.5C 360.099,267.366 358.432,264.366 356.5,261.5C 356.55,258.802 355.55,256.636 353.5,255C 359.354,250.636 365.021,246.136 370.5,241.5 Z"/></g>
<g><path style="opacity:0.58" fill="#731778" d="M 372.5,243.5 C 373.906,243.973 374.573,244.973 374.5,246.5C 373.094,246.027 372.427,245.027 372.5,243.5 Z"/></g>
<g><path style="opacity:0.247" fill="#162248" d="M 202.5,244.5 C 202.573,246.027 201.906,247.027 200.5,247.5C 200.427,245.973 201.094,244.973 202.5,244.5 Z"/></g>
<g><path style="opacity:1" fill="#0554f7" d="M 204.5,242.5 C 206.433,242.729 208.1,243.562 209.5,245C 213,248.5 216.5,252 220,255.5C 220.494,257.134 220.66,258.801 220.5,260.5C 219.525,262.795 218.192,264.795 216.5,266.5C 215.833,266.833 215.167,267.167 214.5,267.5C 214.649,266.448 214.483,265.448 214,264.5C 209.806,260.306 205.64,256.14 201.5,252C 200.552,251.517 199.552,251.351 198.5,251.5C 198.5,251.167 198.5,250.833 198.5,250.5C 199.906,250.027 200.573,249.027 200.5,247.5C 201.906,247.027 202.573,246.027 202.5,244.5C 203.5,244.167 204.167,243.5 204.5,242.5 Z"/></g>
<g><path style="opacity:0.533" fill="#6b1771" d="M 374.5,246.5 C 375.906,246.973 376.573,247.973 376.5,249.5C 375.094,249.027 374.427,248.027 374.5,246.5 Z"/></g>
<g><path style="opacity:0.247" fill="#172044" d="M 200.5,247.5 C 200.573,249.027 199.906,250.027 198.5,250.5C 198.427,248.973 199.094,247.973 200.5,247.5 Z"/></g>
<g><path style="opacity:1" fill="#f62bbe" d="M 316.5,240.5 C 315.903,245.294 316.57,249.627 318.5,253.5C 319.492,253.328 320.158,253.662 320.5,254.5C 318.801,254.34 317.134,254.506 315.5,255C 310.333,259.167 305.167,263.333 300,267.5C 299.53,268.577 299.697,269.577 300.5,270.5C 296.617,270.249 294.617,268.249 294.5,264.5C 294.5,261.167 294.5,257.833 294.5,254.5C 295.552,254.649 296.552,254.483 297.5,254C 303.429,248.9 309.763,244.4 316.5,240.5 Z"/></g>
<g><path style="opacity:1" fill="#067cf3" d="M 281.5,265.5 C 281.5,266.167 281.5,266.833 281.5,267.5C 277.818,270.008 273.818,272.008 269.5,273.5C 270.028,272.279 270.695,271.113 271.5,270C 266.667,265.167 261.833,260.333 257,255.5C 255.301,256.406 253.467,256.739 251.5,256.5C 253.181,254.992 255.181,253.992 257.5,253.5C 257.833,253.5 258.167,253.5 258.5,253.5C 259.473,251.052 259.806,248.385 259.5,245.5C 260.222,245.082 260.722,244.416 261,243.5C 268.434,250.428 275.267,257.761 281.5,265.5 Z"/></g>
<g><path style="opacity:0.427" fill="#611868" d="M 376.5,249.5 C 377.906,249.973 378.573,250.973 378.5,252.5C 377.094,252.027 376.427,251.027 376.5,249.5 Z"/></g>
<g><path style="opacity:0.227" fill="#161d3e" d="M 198.5,250.5 C 198.5,250.833 198.5,251.167 198.5,251.5C 198.167,252.5 197.5,253.167 196.5,253.5C 196.427,251.973 197.094,250.973 198.5,250.5 Z"/></g>
<g><path style="opacity:0.376" fill="#5a1861" d="M 378.5,252.5 C 379.906,252.973 380.573,253.973 380.5,255.5C 379.094,255.027 378.427,254.027 378.5,252.5 Z"/></g>
<g><path style="opacity:1" fill="#ef20c9" d="M 320.5,254.5 C 323.992,255.41 326.992,257.076 329.5,259.5C 327.976,260.174 326.642,261.174 325.5,262.5C 324.742,261.189 323.742,260.689 322.5,261C 317.219,264.284 312.886,268.451 309.5,273.5C 309.863,274.183 310.196,274.85 310.5,275.5C 306.849,274.341 303.515,272.674 300.5,270.5C 299.697,269.577 299.53,268.577 300,267.5C 305.167,263.333 310.333,259.167 315.5,255C 317.134,254.506 318.801,254.34 320.5,254.5 Z"/></g>
<g><path style="opacity:0.216" fill="#161f48" d="M 195.5,255.5 C 195.573,257.027 194.906,258.027 193.5,258.5C 193.427,256.973 194.094,255.973 195.5,255.5 Z"/></g>
<g><path style="opacity:0.2" fill="#411748" d="M 380.5,255.5 C 381.906,255.973 382.573,256.973 382.5,258.5C 381.094,258.027 380.427,257.027 380.5,255.5 Z"/></g>
<g><path style="opacity:1" fill="#0571f5" d="M 269.5,273.5 C 268.486,274.674 267.153,275.34 265.5,275.5C 264.391,275.557 263.391,275.89 262.5,276.5C 258.404,270.9 253.737,265.733 248.5,261C 246.203,260.982 243.869,261.149 241.5,261.5C 244.515,259.326 247.849,257.659 251.5,256.5C 253.467,256.739 255.301,256.406 257,255.5C 261.833,260.333 266.667,265.167 271.5,270C 270.695,271.113 270.028,272.279 269.5,273.5 Z"/></g>
<g><path style="opacity:1" fill="#0542f6" d="M 198.5,251.5 C 199.552,251.351 200.552,251.517 201.5,252C 205.64,256.14 209.806,260.306 214,264.5C 214.483,265.448 214.649,266.448 214.5,267.5C 214.232,269.099 214.566,270.432 215.5,271.5C 215.5,272.167 215.5,272.833 215.5,273.5C 220.423,278.96 225.59,284.293 231,289.5C 231.483,290.448 231.649,291.448 231.5,292.5C 231.5,292.833 231.5,293.167 231.5,293.5C 229.95,294.441 228.284,295.107 226.5,295.5C 222.202,296.2 217.869,296.533 213.5,296.5C 213.5,296.167 213.5,295.833 213.5,295.5C 215.924,295.808 218.257,295.474 220.5,294.5C 211.806,285.14 202.806,276.14 193.5,267.5C 192.526,269.743 192.192,272.076 192.5,274.5C 192.167,274.5 191.833,274.5 191.5,274.5C 190.167,271.5 190.167,268.5 191.5,265.5C 192.924,263.485 193.59,261.152 193.5,258.5C 194.906,258.027 195.573,257.027 195.5,255.5C 195.328,254.508 195.662,253.842 196.5,253.5C 197.5,253.167 198.167,252.5 198.5,251.5 Z"/></g>
<g><path style="opacity:1" fill="#f812e3" d="M 329.5,259.5 C 334.484,261.326 339.151,263.659 343.5,266.5C 341.774,266.185 340.107,266.019 338.5,266C 333.422,271.383 328.088,276.55 322.5,281.5C 318.182,280.008 314.182,278.008 310.5,275.5C 310.196,274.85 309.863,274.183 309.5,273.5C 312.886,268.451 317.219,264.284 322.5,261C 323.742,260.689 324.742,261.189 325.5,262.5C 326.642,261.174 327.976,260.174 329.5,259.5 Z"/></g>
<g><path style="opacity:1" fill="#1b3f8e" d="M 241.5,261.5 C 240.393,263.969 238.393,264.969 235.5,264.5C 237.181,262.992 239.181,261.992 241.5,261.5 Z"/></g>
<g><path style="opacity:1" fill="#0b63ef" d="M 262.5,276.5 C 262.5,276.833 262.5,277.167 262.5,277.5C 258.117,280.358 253.45,282.692 248.5,284.5C 249.703,282.86 250.536,281.193 251,279.5C 246.833,275.333 242.667,271.167 238.5,267C 236.19,266.503 233.857,266.337 231.5,266.5C 232.514,265.326 233.847,264.66 235.5,264.5C 238.393,264.969 240.393,263.969 241.5,261.5C 243.869,261.149 246.203,260.982 248.5,261C 253.737,265.733 258.404,270.9 262.5,276.5 Z"/></g>
<g><path style="opacity:0.49" fill="#19215a" d="M 193.5,258.5 C 193.59,261.152 192.924,263.485 191.5,265.5C 191.171,262.772 191.837,260.438 193.5,258.5 Z"/></g>
<g><path style="opacity:0.98" fill="#1c3174" d="M 231.5,266.5 C 230.817,268.176 229.483,268.843 227.5,268.5C 228.514,267.326 229.847,266.66 231.5,266.5 Z"/></g>
<g><path style="opacity:0.082" fill="#161b32" d="M 216.5,266.5 C 215.962,268.117 215.629,269.784 215.5,271.5C 214.566,270.432 214.232,269.099 214.5,267.5C 215.167,267.167 215.833,266.833 216.5,266.5 Z"/></g>
<g><path style="opacity:1" fill="#0559f6" d="M 231.5,266.5 C 233.857,266.337 236.19,266.503 238.5,267C 242.667,271.167 246.833,275.333 251,279.5C 250.536,281.193 249.703,282.86 248.5,284.5C 246.151,286.341 243.485,287.674 240.5,288.5C 241.666,286.834 241.666,285.167 240.5,283.5C 235.932,279.327 231.599,274.994 227.5,270.5C 227.5,269.833 227.5,269.167 227.5,268.5C 229.483,268.843 230.817,268.176 231.5,266.5 Z"/></g>
<g><path style="opacity:1" fill="#7e1b84" d="M 346.5,267.5 C 347.71,267.932 348.71,268.599 349.5,269.5C 347.821,269.715 346.821,269.048 346.5,267.5 Z"/></g>
<g><path style="opacity:0.923" fill="#7b1980" d="M 382.5,259.5 C 386.5,266.167 386.5,272.833 382.5,279.5C 383.783,272.841 383.783,266.174 382.5,259.5 Z"/></g>
<g><path style="opacity:0.925" fill="#1d2c69" d="M 227.5,268.5 C 227.5,269.167 227.5,269.833 227.5,270.5C 226.167,270.5 224.833,270.5 223.5,270.5C 224.514,269.326 225.847,268.66 227.5,268.5 Z"/></g>
<g><path style="opacity:0.039" fill="#191d3c" d="M 223.5,270.5 C 221.497,272.982 218.831,273.982 215.5,273.5C 215.5,272.833 215.5,272.167 215.5,271.5C 216.265,271.923 217.098,272.257 218,272.5C 219.8,271.68 221.634,271.014 223.5,270.5 Z"/></g>
<g><path style="opacity:0.729" fill="#701876" d="M 361.5,270.5 C 361.5,272.5 360.5,273.5 358.5,273.5C 359.167,272.167 360.167,271.167 361.5,270.5 Z"/></g>
<g><path style="opacity:1" fill="#034ef9" d="M 223.5,270.5 C 224.833,270.5 226.167,270.5 227.5,270.5C 231.599,274.994 235.932,279.327 240.5,283.5C 241.666,285.167 241.666,286.834 240.5,288.5C 238.819,290.008 236.819,291.008 234.5,291.5C 233.391,291.557 232.391,291.89 231.5,292.5C 231.649,291.448 231.483,290.448 231,289.5C 225.59,284.293 220.423,278.96 215.5,273.5C 218.831,273.982 221.497,272.982 223.5,270.5 Z"/></g>
<g><path style="opacity:1" fill="#0137fb" d="M 213.5,295.5 C 211.565,294.85 209.565,294.517 207.5,294.5C 206.508,294.672 205.842,294.338 205.5,293.5C 205.027,292.094 204.027,291.427 202.5,291.5C 201.738,289.738 200.404,288.738 198.5,288.5C 198.262,286.596 197.262,285.262 195.5,284.5C 194.099,281.296 193.099,277.963 192.5,274.5C 192.192,272.076 192.526,269.743 193.5,267.5C 202.806,276.14 211.806,285.14 220.5,294.5C 218.257,295.474 215.924,295.808 213.5,295.5 Z"/></g>
<g><path style="opacity:0.008" fill="#16213a" d="M 265.5,275.5 C 265.027,276.906 264.027,277.573 262.5,277.5C 262.5,277.167 262.5,276.833 262.5,276.5C 263.391,275.89 264.391,275.557 265.5,275.5 Z"/></g>
<g><path style="opacity:0.118" fill="#181934" d="M 191.5,274.5 C 191.833,274.5 192.167,274.5 192.5,274.5C 193.099,277.963 194.099,281.296 195.5,284.5C 192.54,281.9 191.206,278.567 191.5,274.5 Z"/></g>
<g><path style="opacity:0.004" fill="#191937" d="M 195.5,284.5 C 197.262,285.262 198.262,286.596 198.5,288.5C 196.738,287.738 195.738,286.404 195.5,284.5 Z"/></g>
<g><path style="opacity:0.659" fill="#1b1e5b" d="M 198.5,288.5 C 200.404,288.738 201.738,289.738 202.5,291.5C 200.596,291.262 199.262,290.262 198.5,288.5 Z"/></g>
<g><path style="opacity:0.408" fill="#171f64" d="M 202.5,291.5 C 204.027,291.427 205.027,292.094 205.5,293.5C 203.973,293.573 202.973,292.906 202.5,291.5 Z"/></g>
<g><path style="opacity:0.008" fill="#161b36" d="M 234.5,291.5 C 234.027,292.906 233.027,293.573 231.5,293.5C 231.5,293.167 231.5,292.833 231.5,292.5C 232.391,291.89 233.391,291.557 234.5,291.5 Z"/></g>
<g><path style="opacity:0.486" fill="#192166" d="M 207.5,294.5 C 209.565,294.517 211.565,294.85 213.5,295.5C 213.5,295.833 213.5,296.167 213.5,296.5C 211.102,296.741 209.102,296.074 207.5,294.5 Z"/></g>
<g><path style="opacity:0.078" fill="#151725" d="M 226.5,295.5 C 224.152,296.952 221.486,297.618 218.5,297.5C 216.631,297.493 214.964,297.16 213.5,296.5C 217.869,296.533 222.202,296.2 226.5,295.5 Z"/></g>
</svg>
