<?xml version="1.0" encoding="UTF-8"?>
<!DOCTYPE svg PUBLIC "-//W3C//DTD SVG 1.1//EN" "http://www.w3.org/Graphics/SVG/1.1/DTD/svg11.dtd">
<svg xmlns="http://www.w3.org/2000/svg" version="1.1" width="915px" height="902px" style="shape-rendering:geometricPrecision; text-rendering:geometricPrecision; image-rendering:optimizeQuality; fill-rule:evenodd; clip-rule:evenodd" xmlns:xlink="http://www.w3.org/1999/xlink">
<g><path style="opacity:0.98" fill="#8fc21e" d="M 466.5,-0.5 C 473.5,-0.5 480.5,-0.5 487.5,-0.5C 509.201,6.20689 521.534,20.8736 524.5,43.5C 523.833,43.5 523.5,43.8333 523.5,44.5C 509.86,50.1553 497.527,57.822 486.5,67.5C 486.167,67.5 485.833,67.5 485.5,67.5C 472.112,49.6302 455.112,36.2969 434.5,27.5C 434.5,27.1667 434.5,26.8333 434.5,26.5C 440.92,12.4088 451.587,3.40879 466.5,-0.5 Z"/></g>
<g><path style="opacity:0.988" fill="#86cee2" d="M 434.5,26.5 C 434.5,26.8333 434.5,27.1667 434.5,27.5C 426.019,51.4014 432.019,70.9014 452.5,86C 456.624,88.3972 460.957,90.2306 465.5,91.5C 461.308,98.5499 457.642,105.883 454.5,113.5C 443.478,87.1598 423.811,71.4931 395.5,66.5C 393.052,65.5269 390.385,65.1936 387.5,65.5C 387.169,88.6727 387.502,111.673 388.5,134.5C 408.167,134.5 427.833,134.5 447.5,134.5C 447.058,138.154 446.724,141.821 446.5,145.5C 424.167,145.5 401.833,145.5 379.5,145.5C 379.831,121.661 379.498,97.9941 378.5,74.5C 345.601,76.5308 323.101,92.8641 311,123.5C 310.261,127.75 309.094,131.75 307.5,135.5C 301.57,116.038 288.57,104.705 268.5,101.5C 268.5,101.167 268.5,100.833 268.5,100.5C 280.901,66.9327 303.235,42.4327 335.5,27C 368.484,13.2354 401.484,13.0687 434.5,26.5 Z"/></g>
<g><path style="opacity:1" fill="#4c9e1d" d="M 434.5,27.5 C 455.112,36.2969 472.112,49.6302 485.5,67.5C 478.381,74.9436 472.048,82.9436 466.5,91.5C 466.167,91.5 465.833,91.5 465.5,91.5C 460.957,90.2306 456.624,88.3972 452.5,86C 432.019,70.9014 426.019,51.4014 434.5,27.5 Z"/></g>
<g><path style="opacity:0.986" fill="#e7612a" d="M 692.5,155.5 C 692.5,155.833 692.5,156.167 692.5,156.5C 667.586,159.748 653.252,173.748 649.5,198.5C 648.532,200.607 648.198,202.941 648.5,205.5C 645.5,205.5 642.5,205.5 639.5,205.5C 661.935,163.603 654.935,127.437 618.5,97C 576.026,73.1331 539.026,79.6331 507.5,116.5C 505.495,107.153 502.495,98.1529 498.5,89.5C 498.414,88.5041 498.748,87.6708 499.5,87C 515.638,77.5683 523.638,63.4017 523.5,44.5C 523.5,43.8333 523.833,43.5 524.5,43.5C 575.391,26.9092 620.225,36.9092 659,73.5C 680.362,96.5713 691.529,123.905 692.5,155.5 Z"/></g>
<g><path style="opacity:1" fill="#834a05" d="M 523.5,44.5 C 523.638,63.4017 515.638,77.5683 499.5,87C 498.748,87.6708 498.414,88.5041 498.5,89.5C 497.833,89.5 497.5,89.1667 497.5,88.5C 494.236,81.2507 490.57,74.2507 486.5,67.5C 497.527,57.822 509.86,50.1553 523.5,44.5 Z"/></g>
<g><path style="opacity:1" fill="#bbe4ef" d="M 395.5,66.5 C 393.167,66.5 390.833,66.5 388.5,66.5C 388.5,89.1667 388.5,111.833 388.5,134.5C 387.502,111.673 387.169,88.6727 387.5,65.5C 390.385,65.1936 393.052,65.5269 395.5,66.5 Z"/></g>
<g><path style="opacity:1" fill="#fefefe" d="M 395.5,66.5 C 423.811,71.4931 443.478,87.1598 454.5,113.5C 456.404,120.358 457.404,127.358 457.5,134.5C 454.167,134.5 450.833,134.5 447.5,134.5C 427.833,134.5 408.167,134.5 388.5,134.5C 388.5,111.833 388.5,89.1667 388.5,66.5C 390.833,66.5 393.167,66.5 395.5,66.5 Z"/></g>
<g><path style="opacity:1" fill="#453d04" d="M 485.5,67.5 C 485.833,67.5 486.167,67.5 486.5,67.5C 490.57,74.2507 494.236,81.2507 497.5,88.5C 487.403,92.3474 477.07,93.3474 466.5,91.5C 472.048,82.9436 478.381,74.9436 485.5,67.5 Z"/></g>
<g><path style="opacity:1" fill="#fefefe" d="M 378.5,74.5 C 378.5,98.5 378.5,122.5 378.5,146.5C 402.5,146.5 426.5,146.5 450.5,146.5C 450.308,154.712 448.974,162.712 446.5,170.5C 437.622,191.711 422.288,206.044 400.5,213.5C 378.281,181.341 347.614,162.675 308.5,157.5C 307.752,150.191 307.418,142.858 307.5,135.5C 309.094,131.75 310.261,127.75 311,123.5C 323.101,92.8641 345.601,76.5308 378.5,74.5 Z"/></g>
<g><path style="opacity:1" fill="#fefbfa" d="M 639.5,205.5 C 617.89,234.596 589.223,245.596 553.5,238.5C 547.786,237.485 542.453,235.485 537.5,232.5C 529.345,228.352 522.012,223.019 515.5,216.5C 508.327,208.822 502.661,200.155 498.5,190.5C 494.736,176.425 493.569,162.092 495,147.5C 497.541,136.431 501.708,126.097 507.5,116.5C 539.026,79.6331 576.026,73.1331 618.5,97C 654.935,127.437 661.935,163.603 639.5,205.5 Z"/></g>
<g><path style="opacity:1" fill="#7a4f25" d="M 497.5,88.5 C 497.5,89.1667 497.833,89.5 498.5,89.5C 502.495,98.1529 505.495,107.153 507.5,116.5C 501.708,126.097 497.541,136.431 495,147.5C 493.569,162.092 494.736,176.425 498.5,190.5C 496.358,196.117 493.692,201.45 490.5,206.5C 478.469,203.642 466.469,202.976 454.5,204.5C 454.167,204.5 453.833,204.5 453.5,204.5C 449.45,193.536 447.117,182.203 446.5,170.5C 448.974,162.712 450.308,154.712 450.5,146.5C 449.432,145.566 448.099,145.232 446.5,145.5C 446.724,141.821 447.058,138.154 447.5,134.5C 450.833,134.5 454.167,134.5 457.5,134.5C 457.404,127.358 456.404,120.358 454.5,113.5C 457.642,105.883 461.308,98.5499 465.5,91.5C 465.833,91.5 466.167,91.5 466.5,91.5C 477.07,93.3474 487.403,92.3474 497.5,88.5 Z"/></g>
<g><path style="opacity:1" fill="#e8642f" d="M 618.5,206.5 C 611.397,207.787 604.397,209.454 597.5,211.5C 623.48,195.846 632.647,173.179 625,143.5C 610.007,112.423 585.84,101.59 552.5,111C 524.031,125.445 513.531,148.278 521,179.5C 533.704,208.607 555.871,220.607 587.5,215.5C 581.83,218.333 576.497,221.666 571.5,225.5C 538.369,223.209 517.869,205.876 510,173.5C 506.103,141.12 518.603,117.62 547.5,103C 579.057,92.2598 605.224,99.7598 626,125.5C 641.25,149.791 641.25,174.124 626,198.5C 624,201.666 621.5,204.332 618.5,206.5 Z"/></g>
<g><path style="opacity:0.977" fill="#ef8240" d="M 268.5,100.5 C 268.5,100.833 268.5,101.167 268.5,101.5C 262.56,121.094 260.893,141.094 263.5,161.5C 250.451,165.29 238.118,170.623 226.5,177.5C 217.015,166.295 213.515,153.295 216,138.5C 223.217,111.8 240.717,99.1331 268.5,100.5 Z"/></g>
<g><path style="opacity:1" fill="#7e6a3a" d="M 268.5,101.5 C 288.57,104.705 301.57,116.038 307.5,135.5C 307.418,142.858 307.752,150.191 308.5,157.5C 308.167,157.5 307.833,157.5 307.5,157.5C 298.161,157.334 288.827,157.5 279.5,158C 274.217,158.495 269.217,159.662 264.5,161.5C 264.167,161.5 263.833,161.5 263.5,161.5C 260.893,141.094 262.56,121.094 268.5,101.5 Z"/></g>
<g><path style="opacity:1" fill="#fefdfc" d="M 597.5,211.5 C 593.851,212.267 590.518,213.6 587.5,215.5C 555.871,220.607 533.704,208.607 521,179.5C 513.531,148.278 524.031,125.445 552.5,111C 585.84,101.59 610.007,112.423 625,143.5C 632.647,173.179 623.48,195.846 597.5,211.5 Z"/></g>
<g><path style="opacity:1" fill="#e8632d" d="M 569.5,119.5 C 572.5,119.5 575.5,119.5 578.5,119.5C 578.26,123.578 580.26,125.744 584.5,126C 589.395,129.623 591.728,134.456 591.5,140.5C 588.167,140.833 584.833,141.167 581.5,141.5C 580.392,133.85 576.558,131.85 570,135.5C 567.65,141.706 568.65,147.372 573,152.5C 581.566,158.392 587.899,166.059 592,175.5C 594.079,186.681 589.912,194.348 579.5,198.5C 578.548,200.045 578.215,201.712 578.5,203.5C 575.5,203.5 572.5,203.5 569.5,203.5C 569.66,201.801 569.494,200.134 569,198.5C 560.523,194.549 556.356,187.882 556.5,178.5C 559.786,177.793 563.119,177.46 566.5,177.5C 566.576,185.082 570.242,188.582 577.5,188C 582.657,182.714 582.824,177.214 578,171.5C 572.699,167.2 567.699,162.534 563,157.5C 557.901,150.627 556.235,142.96 558,134.5C 560.18,129.147 564.013,125.813 569.5,124.5C 569.5,122.833 569.5,121.167 569.5,119.5 Z"/></g>
<g><path style="opacity:1" fill="#cfeaf1" d="M 378.5,74.5 C 379.498,97.9941 379.831,121.661 379.5,145.5C 401.833,145.5 424.167,145.5 446.5,145.5C 448.099,145.232 449.432,145.566 450.5,146.5C 426.5,146.5 402.5,146.5 378.5,146.5C 378.5,122.5 378.5,98.5 378.5,74.5 Z"/></g>
<g><path style="opacity:0.978" fill="#00b0b0" d="M 692.5,155.5 C 718.417,156.029 734.917,168.695 742,193.5C 745.086,212.084 739.586,227.418 725.5,239.5C 725.167,239.5 724.833,239.5 724.5,239.5C 711.912,227.272 697.245,218.272 680.5,212.5C 680.5,212.167 680.5,211.833 680.5,211.5C 689.011,194.265 693.011,175.931 692.5,156.5C 692.5,156.167 692.5,155.833 692.5,155.5 Z"/></g>
<g><path style="opacity:1" fill="#02431d" d="M 692.5,156.5 C 693.011,175.931 689.011,194.265 680.5,211.5C 670.327,208.664 659.993,206.664 649.5,205.5C 649.5,203.167 649.5,200.833 649.5,198.5C 653.252,173.748 667.586,159.748 692.5,156.5 Z"/></g>
<g><path style="opacity:1" fill="#011714" d="M 307.5,157.5 C 302.998,175.335 291.998,187.001 274.5,192.5C 274.167,192.5 273.833,192.5 273.5,192.5C 269.489,182.467 266.489,172.133 264.5,161.5C 269.217,159.662 274.217,158.495 279.5,158C 288.827,157.5 298.161,157.334 307.5,157.5 Z"/></g>
<g><path style="opacity:1" fill="#043756" d="M 308.5,157.5 C 347.614,162.675 378.281,181.341 400.5,213.5C 400.5,213.833 400.5,214.167 400.5,214.5C 393.543,215.718 386.543,216.718 379.5,217.5C 374.622,216.54 369.955,216.207 365.5,216.5C 366.124,216.083 366.457,215.416 366.5,214.5C 365.672,211.521 365.005,208.521 364.5,205.5C 360.103,205.425 355.77,205.925 351.5,207C 352.984,208.574 354.651,209.907 356.5,211C 355.956,211.717 355.289,212.217 354.5,212.5C 329.064,202.636 313.731,184.303 308.5,157.5 Z"/></g>
<g><path style="opacity:1" fill="#022d4d" d="M 307.5,157.5 C 307.833,157.5 308.167,157.5 308.5,157.5C 313.731,184.303 329.064,202.636 354.5,212.5C 346.584,225.089 338.25,237.422 329.5,249.5C 304.086,237.417 285.752,218.417 274.5,192.5C 291.998,187.001 302.998,175.335 307.5,157.5 Z"/></g>
<g><path style="opacity:1" fill="#051c16" d="M 263.5,161.5 C 263.833,161.5 264.167,161.5 264.5,161.5C 266.489,172.133 269.489,182.467 273.5,192.5C 261.599,194.95 250.265,193.45 239.5,188C 234.99,184.977 230.656,181.811 226.5,178.5C 226.5,178.167 226.5,177.833 226.5,177.5C 238.118,170.623 250.451,165.29 263.5,161.5 Z"/></g>
<g><path style="opacity:1" fill="#87ccdf" d="M 446.5,170.5 C 447.117,182.203 449.45,193.536 453.5,204.5C 435.916,206.36 419.916,212.36 405.5,222.5C 403.833,219.833 402.167,217.167 400.5,214.5C 400.5,214.167 400.5,213.833 400.5,213.5C 422.288,206.044 437.622,191.711 446.5,170.5 Z"/></g>
<g><path style="opacity:0.995" fill="#053856" d="M 226.5,178.5 C 230.656,181.811 234.99,184.977 239.5,188C 250.265,193.45 261.599,194.95 273.5,192.5C 273.833,192.5 274.167,192.5 274.5,192.5C 285.752,218.417 304.086,237.417 329.5,249.5C 321.01,261.804 312.51,274.138 304,286.5C 294.036,274.867 283.702,263.534 273,252.5C 254.735,262.383 236.235,271.883 217.5,281C 216.306,283.444 216.806,285.611 219,287.5C 236.667,278.167 254.333,268.833 272,259.5C 282.648,271.649 293.482,283.649 304.5,295.5C 314.858,280.815 325.192,266.149 335.5,251.5C 335.821,253.048 336.821,253.715 338.5,253.5C 333.343,261.138 328.177,268.805 323,276.5C 322.5,294.164 322.333,311.83 322.5,329.5C 321.835,327.631 321.169,325.631 320.5,323.5C 318.929,324.309 317.262,324.643 315.5,324.5C 315.667,312.495 315.5,300.495 315,288.5C 314.283,289.044 313.783,289.711 313.5,290.5C 310.524,294.482 307.524,298.482 304.5,302.5C 300.148,297.982 295.981,293.316 292,288.5C 291.5,302.163 291.333,315.829 291.5,329.5C 295.167,329.5 298.833,329.5 302.5,329.5C 288.303,337.105 275.303,346.438 263.5,357.5C 248.335,343.7 231.002,340.2 211.5,347C 207.083,348.933 203.083,351.433 199.5,354.5C 198.654,335.809 193.154,318.476 183,302.5C 180.332,298.666 177.165,295.333 173.5,292.5C 173.443,291.391 173.11,290.391 172.5,289.5C 170.386,246.909 185.386,211.742 217.5,184C 220.222,181.642 223.222,179.809 226.5,178.5 Z"/></g>
<g><path style="opacity:1" fill="#e6622c" d="M 498.5,190.5 C 502.661,200.155 508.327,208.822 515.5,216.5C 507.519,212.506 499.185,209.506 490.5,207.5C 490.5,207.167 490.5,206.833 490.5,206.5C 493.692,201.45 496.358,196.117 498.5,190.5 Z"/></g>
<g><path style="opacity:0.988" fill="#a4cb10" d="M 805.5,380.5 C 803.5,380.167 801.5,379.833 799.5,379.5C 789.483,374.613 778.816,371.946 767.5,371.5C 765.784,371.371 764.117,371.038 762.5,370.5C 759.767,367.195 757.433,367.195 755.5,370.5C 755.5,371.167 755.167,371.5 754.5,371.5C 739.14,372.398 725.14,377.065 712.5,385.5C 711.5,384.833 710.5,384.167 709.5,383.5C 706.089,377.68 702.922,371.68 700,365.5C 696.605,357.181 698.438,350.348 705.5,345C 712.497,341.279 719.83,338.446 727.5,336.5C 724.931,332.033 722.931,327.367 721.5,322.5C 715.055,321.074 709.055,318.574 703.5,315C 698.979,310.377 697.479,304.877 699,298.5C 702.152,291.204 705.486,284.204 709,277.5C 706.318,274.65 703.484,271.984 700.5,269.5C 693.138,275.763 684.638,279.43 675,280.5C 669.404,279.908 665.071,277.241 662,272.5C 658.997,264.769 656.164,257.102 653.5,249.5C 657.395,246.027 661.061,242.36 664.5,238.5C 684.325,252.786 704.325,253.119 724.5,239.5C 724.833,239.5 725.167,239.5 725.5,239.5C 726.145,240.812 727.145,241.812 728.5,242.5C 753.511,208.214 786.844,195.714 828.5,205C 869.514,219.017 891.18,247.684 893.5,291C 891.15,334.341 869.483,363.008 828.5,377C 820.941,378.903 813.275,380.07 805.5,380.5 Z M 762.5,370.5 C 760.167,370.5 757.833,370.5 755.5,370.5C 757.433,367.195 759.767,367.195 762.5,370.5 Z"/></g>
<g><path style="opacity:1" fill="#793c3b" d="M 453.5,204.5 C 453.833,204.5 454.167,204.5 454.5,204.5C 458.122,214.411 462.789,223.745 468.5,232.5C 454.579,244.88 438.579,253.714 420.5,259C 419.244,259.417 418.577,260.25 418.5,261.5C 416.571,248.046 412.237,235.379 405.5,223.5C 405.5,223.167 405.5,222.833 405.5,222.5C 419.916,212.36 435.916,206.36 453.5,204.5 Z"/></g>
<g><path style="opacity:1" fill="#6f180a" d="M 490.5,206.5 C 490.5,206.833 490.5,207.167 490.5,207.5C 483.906,216.101 476.906,224.435 469.5,232.5C 469.167,232.5 468.833,232.5 468.5,232.5C 462.789,223.745 458.122,214.411 454.5,204.5C 466.469,202.976 478.469,203.642 490.5,206.5 Z"/></g>
<g><path style="opacity:1" fill="#f3f5f7" d="M 365.5,216.5 C 363.742,215.001 361.909,214.668 360,215.5C 352.003,227.655 343.837,239.655 335.5,251.5C 325.192,266.149 314.858,280.815 304.5,295.5C 293.482,283.649 282.648,271.649 272,259.5C 254.333,268.833 236.667,278.167 219,287.5C 216.806,285.611 216.306,283.444 217.5,281C 236.235,271.883 254.735,262.383 273,252.5C 283.702,263.534 294.036,274.867 304,286.5C 312.51,274.138 321.01,261.804 329.5,249.5C 338.25,237.422 346.584,225.089 354.5,212.5C 355.289,212.217 355.956,211.717 356.5,211C 354.651,209.907 352.984,208.574 351.5,207C 355.77,205.925 360.103,205.425 364.5,205.5C 365.005,208.521 365.672,211.521 366.5,214.5C 366.457,215.416 366.124,216.083 365.5,216.5 Z"/></g>
<g><path style="opacity:1" fill="#954d03" d="M 649.5,198.5 C 649.5,200.833 649.5,203.167 649.5,205.5C 650.208,218.246 655.208,228.913 664.5,237.5C 664.5,237.833 664.5,238.167 664.5,238.5C 661.061,242.36 657.395,246.027 653.5,249.5C 649.5,249.5 645.5,249.5 641.5,249.5C 640.833,253.167 640.167,256.833 639.5,260.5C 629.888,267.14 619.555,272.473 608.5,276.5C 604.129,274.564 599.963,272.231 596,269.5C 593.049,271.447 590.382,273.781 588,276.5C 587.616,278.197 587.782,279.863 588.5,281.5C 580.2,282.371 571.867,282.705 563.5,282.5C 563.672,281.508 563.338,280.842 562.5,280.5C 561.851,276.049 560.684,271.716 559,267.5C 555.411,259.987 551.578,252.654 547.5,245.5C 549.5,243.167 551.5,240.833 553.5,238.5C 589.223,245.596 617.89,234.596 639.5,205.5C 642.5,205.5 645.5,205.5 648.5,205.5C 648.198,202.941 648.532,200.607 649.5,198.5 Z"/></g>
<g><path style="opacity:1" fill="#013601" d="M 649.5,205.5 C 659.993,206.664 670.327,208.664 680.5,211.5C 680.5,211.833 680.5,212.167 680.5,212.5C 676.4,221.718 671.067,230.051 664.5,237.5C 655.208,228.913 650.208,218.246 649.5,205.5 Z"/></g>
<g><path style="opacity:1" fill="#d21d0b" d="M 490.5,207.5 C 499.185,209.506 507.519,212.506 515.5,216.5C 522.012,223.019 529.345,228.352 537.5,232.5C 540.085,237.091 543.085,241.424 546.5,245.5C 538.657,254.514 532.323,264.514 527.5,275.5C 527.167,275.5 526.833,275.5 526.5,275.5C 524.435,275.047 522.768,274.047 521.5,272.5C 523.2,271.984 524.533,270.984 525.5,269.5C 523.583,266.417 520.916,264.25 517.5,263C 511.843,262.501 506.176,262.334 500.5,262.5C 488.237,254.571 477.904,244.571 469.5,232.5C 476.906,224.435 483.906,216.101 490.5,207.5 Z"/></g>
<g><path style="opacity:1" fill="#995109" d="M 618.5,206.5 C 605.752,219.697 590.085,226.03 571.5,225.5C 576.497,221.666 581.83,218.333 587.5,215.5C 590.518,213.6 593.851,212.267 597.5,211.5C 604.397,209.454 611.397,207.787 618.5,206.5 Z"/></g>
<g><path style="opacity:1" fill="#038d0a" d="M 680.5,212.5 C 697.245,218.272 711.912,227.272 724.5,239.5C 704.325,253.119 684.325,252.786 664.5,238.5C 664.5,238.167 664.5,237.833 664.5,237.5C 671.067,230.051 676.4,221.718 680.5,212.5 Z"/></g>
<g><path style="opacity:1" fill="#032d4d" d="M 365.5,216.5 C 369.955,216.207 374.622,216.54 379.5,217.5C 386.543,216.718 393.543,215.718 400.5,214.5C 402.167,217.167 403.833,219.833 405.5,222.5C 405.5,222.833 405.5,223.167 405.5,223.5C 390.875,233.797 379.875,247.13 372.5,263.5C 363.681,262.136 355.014,260.136 346.5,257.5C 346.666,252.821 346.499,248.155 346,243.5C 343.252,246.734 340.752,250.068 338.5,253.5C 336.821,253.715 335.821,253.048 335.5,251.5C 343.837,239.655 352.003,227.655 360,215.5C 361.909,214.668 363.742,215.001 365.5,216.5 Z"/></g>
<g><path style="opacity:1" fill="#020f15" d="M 405.5,223.5 C 412.237,235.379 416.571,248.046 418.5,261.5C 418.5,261.833 418.5,262.167 418.5,262.5C 412.62,261.776 407.953,263.776 404.5,268.5C 409.32,272.078 414.32,275.412 419.5,278.5C 419.5,282.167 419.5,285.833 419.5,289.5C 414.032,285.595 408.365,281.928 402.5,278.5C 401.501,295.153 401.167,311.82 401.5,328.5C 389.907,323.935 377.907,320.935 365.5,319.5C 362.47,300.104 364.804,281.437 372.5,263.5C 379.875,247.13 390.875,233.797 405.5,223.5 Z"/></g>
<g><path style="opacity:1" fill="#e64a42" d="M 468.5,232.5 C 468.833,232.5 469.167,232.5 469.5,232.5C 477.904,244.571 488.237,254.571 500.5,262.5C 473.167,262.5 445.833,262.5 418.5,262.5C 418.5,262.167 418.5,261.833 418.5,261.5C 418.577,260.25 419.244,259.417 420.5,259C 438.579,253.714 454.579,244.88 468.5,232.5 Z"/></g>
<g><path style="opacity:1" fill="#e6612b" d="M 537.5,232.5 C 542.453,235.485 547.786,237.485 553.5,238.5C 551.5,240.833 549.5,243.167 547.5,245.5C 547.167,245.5 546.833,245.5 546.5,245.5C 543.085,241.424 540.085,237.091 537.5,232.5 Z"/></g>
<g><path style="opacity:1" fill="#6aa203" d="M 747.5,270.5 C 742.533,274.132 737.867,278.132 733.5,282.5C 736.818,286.318 740.318,289.985 744,293.5C 747.376,290.617 750.876,287.951 754.5,285.5C 755.95,289.391 757.617,293.057 759.5,296.5C 757.215,298.118 755.215,300.118 753.5,302.5C 756.251,306.257 759.585,309.257 763.5,311.5C 761.717,323.254 760.883,335.254 761,347.5C 759.775,353.743 757.942,359.743 755.5,365.5C 744.645,358.145 735.645,348.978 728.5,338C 729.632,333.587 729.799,329.087 729,324.5C 726.618,323.446 724.118,322.779 721.5,322.5C 713.428,300.474 713.595,278.474 722,256.5C 723.829,252.172 726.162,248.172 729,244.5C 736.576,252.23 742.743,260.897 747.5,270.5 Z"/></g>
<g><path style="opacity:1" fill="#f9fafa" d="M 346.5,257.5 C 346.5,278.167 346.5,298.833 346.5,319.5C 346.5,322.833 346.5,326.167 346.5,329.5C 338.5,329.5 330.5,329.5 322.5,329.5C 322.333,311.83 322.5,294.164 323,276.5C 328.177,268.805 333.343,261.138 338.5,253.5C 340.752,250.068 343.252,246.734 346,243.5C 346.499,248.155 346.666,252.821 346.5,257.5 Z"/></g>
<g><path style="opacity:1" fill="#881700" d="M 546.5,245.5 C 546.833,245.5 547.167,245.5 547.5,245.5C 551.578,252.654 555.411,259.987 559,267.5C 560.684,271.716 561.851,276.049 562.5,280.5C 561.306,281.777 559.64,282.444 557.5,282.5C 547.092,281.731 537.092,279.397 527.5,275.5C 532.323,264.514 538.657,254.514 546.5,245.5 Z"/></g>
<g><path style="opacity:1" fill="#fdfdfb" d="M 653.5,249.5 C 656.164,257.102 658.997,264.769 662,272.5C 665.071,277.241 669.404,279.908 675,280.5C 684.638,279.43 693.138,275.763 700.5,269.5C 703.484,271.984 706.318,274.65 709,277.5C 705.486,284.204 702.152,291.204 699,298.5C 697.479,304.877 698.979,310.377 703.5,315C 709.055,318.574 715.055,321.074 721.5,322.5C 722.931,327.367 724.931,332.033 727.5,336.5C 719.83,338.446 712.497,341.279 705.5,345C 698.438,350.348 696.605,357.181 700,365.5C 702.922,371.68 706.089,377.68 709.5,383.5C 707.167,386.167 704.833,388.833 702.5,391.5C 696.771,388.974 691.104,386.141 685.5,383C 681.037,381.025 676.371,380.192 671.5,380.5C 669.902,378.302 668.569,375.969 667.5,373.5C 694.974,356.563 701.474,333.563 687,304.5C 671.781,285.568 652.615,280.068 629.5,288C 614.289,295.595 605.289,307.762 602.5,324.5C 596.176,323.001 589.843,321.668 583.5,320.5C 590.004,318.169 594.838,313.836 598,307.5C 598.476,297.461 595.309,288.794 588.5,281.5C 587.782,279.863 587.616,278.197 588,276.5C 590.382,273.781 593.049,271.447 596,269.5C 599.963,272.231 604.129,274.564 608.5,276.5C 617.885,282.698 626.385,281.698 634,273.5C 636.327,269.347 638.16,265.013 639.5,260.5C 640.167,256.833 640.833,253.167 641.5,249.5C 645.5,249.5 649.5,249.5 653.5,249.5 Z"/></g>
<g><path style="opacity:1" fill="#fdfefc" d="M 754.5,285.5 C 750.876,287.951 747.376,290.617 744,293.5C 740.318,289.985 736.818,286.318 733.5,282.5C 737.867,278.132 742.533,274.132 747.5,270.5C 772.464,253.941 799.464,249.774 828.5,258C 844.391,262.605 858.057,270.772 869.5,282.5C 866.167,286.5 862.5,290.167 858.5,293.5C 830.075,267.82 798.408,262.987 763.5,279C 760.079,280.699 757.079,282.865 754.5,285.5 Z"/></g>
<g><path style="opacity:1" fill="#033655" d="M 346.5,257.5 C 355.014,260.136 363.681,262.136 372.5,263.5C 364.804,281.437 362.47,300.104 365.5,319.5C 359.167,319.5 352.833,319.5 346.5,319.5C 346.5,298.833 346.5,278.167 346.5,257.5 Z"/></g>
<g><path style="opacity:1" fill="#073755" d="M 418.5,262.5 C 419.342,267.787 419.676,273.12 419.5,278.5C 414.32,275.412 409.32,272.078 404.5,268.5C 407.953,263.776 412.62,261.776 418.5,262.5 Z"/></g>
<g><path style="opacity:1" fill="#fefdfd" d="M 418.5,262.5 C 445.833,262.5 473.167,262.5 500.5,262.5C 506.176,262.334 511.843,262.501 517.5,263C 520.916,264.25 523.583,266.417 525.5,269.5C 524.533,270.984 523.2,271.984 521.5,272.5C 502.518,284.473 483.518,296.473 464.5,308.5C 449.643,298.242 434.643,288.242 419.5,278.5C 419.676,273.12 419.342,267.787 418.5,262.5 Z"/></g>
<g><path style="opacity:1" fill="#a5c915" d="M 639.5,260.5 C 638.16,265.013 636.327,269.347 634,273.5C 626.385,281.698 617.885,282.698 608.5,276.5C 619.555,272.473 629.888,267.14 639.5,260.5 Z"/></g>
<g><path style="opacity:0.983" fill="#68bdbe" d="M 172.5,289.5 C 173.11,290.391 173.443,291.391 173.5,292.5C 175.789,316.059 184.122,337.059 198.5,355.5C 198.5,355.833 198.5,356.167 198.5,356.5C 185.051,368.597 180.384,383.597 184.5,401.5C 184.5,402.167 184.5,402.833 184.5,403.5C 181.573,407.767 178.24,411.767 174.5,415.5C 174.167,415.5 173.833,415.5 173.5,415.5C 145.91,413.912 122.576,422.912 103.5,442.5C 102.833,442.5 102.167,442.5 101.5,442.5C 55.7099,435.544 28.8766,409.21 21,363.5C 18.6119,322.761 35.1119,292.595 70.5,273C 108.061,257.427 142.061,262.927 172.5,289.5 Z"/></g>
<g><path style="opacity:1" fill="#fdfdfd" d="M 271.5,266.5 C 275.102,270.605 278.935,274.605 283,278.5C 283.5,295.497 283.667,312.497 283.5,329.5C 275.5,329.5 267.5,329.5 259.5,329.5C 259.167,310.488 259.5,291.488 260.5,272.5C 264.389,270.726 268.055,268.726 271.5,266.5 Z"/></g>
<g><path style="opacity:1" fill="#e74e46" d="M 521.5,272.5 C 522.768,274.047 524.435,275.047 526.5,275.5C 525.833,277.5 525.167,279.5 524.5,281.5C 504.825,294.339 484.825,306.672 464.5,318.5C 449.34,309.086 434.34,299.42 419.5,289.5C 419.5,285.833 419.5,282.167 419.5,278.5C 434.643,288.242 449.643,298.242 464.5,308.5C 483.518,296.473 502.518,284.473 521.5,272.5 Z"/></g>
<g><path style="opacity:1" fill="#943b03" d="M 526.5,275.5 C 526.833,275.5 527.167,275.5 527.5,275.5C 537.092,279.397 547.092,281.731 557.5,282.5C 559.64,282.444 561.306,281.777 562.5,280.5C 563.338,280.842 563.672,281.508 563.5,282.5C 565.692,294.777 566.025,307.11 564.5,319.5C 552.18,318.998 540.18,320.665 528.5,324.5C 528.833,309.485 528.499,294.485 527.5,279.5C 526.893,279.624 526.56,279.957 526.5,280.5C 525.833,280.833 525.167,281.167 524.5,281.5C 525.167,279.5 525.833,277.5 526.5,275.5 Z"/></g>
<g><path style="opacity:1" fill="#fdfdfe" d="M 249.5,278.5 C 250.497,295.325 250.83,312.325 250.5,329.5C 242.833,329.5 235.167,329.5 227.5,329.5C 227.333,316.163 227.5,302.829 228,289.5C 235.115,285.693 242.282,282.026 249.5,278.5 Z"/></g>
<g><path style="opacity:1" fill="#afbfc9" d="M 249.5,278.5 C 249.56,277.957 249.893,277.624 250.5,277.5C 251.827,294.995 251.827,312.329 250.5,329.5C 250.83,312.325 250.497,295.325 249.5,278.5 Z"/></g>
<g><path style="opacity:1" fill="#053756" d="M 419.5,289.5 C 417.723,308.283 412.39,325.95 403.5,342.5C 403.167,342.5 402.833,342.5 402.5,342.5C 401.771,337.87 401.437,333.203 401.5,328.5C 401.167,311.82 401.501,295.153 402.5,278.5C 408.365,281.928 414.032,285.595 419.5,289.5 Z"/></g>
<g><path style="opacity:1" fill="#fefdfd" d="M 526.5,280.5 C 527.496,294.99 527.829,309.657 527.5,324.5C 527.861,330.593 527.361,336.593 526,342.5C 523.926,346.077 521.093,348.744 517.5,350.5C 505.5,350.5 493.5,350.5 481.5,350.5C 466.5,350.5 451.5,350.5 436.5,350.5C 428.16,350.666 419.827,350.5 411.5,350C 407.721,348.623 405.054,346.123 403.5,342.5C 412.39,325.95 417.723,308.283 419.5,289.5C 434.34,299.42 449.34,309.086 464.5,318.5C 484.825,306.672 504.825,294.339 524.5,281.5C 525.167,281.167 525.833,280.833 526.5,280.5 Z"/></g>
<g><path style="opacity:1" fill="#b06c42" d="M 526.5,280.5 C 526.56,279.957 526.893,279.624 527.5,279.5C 528.499,294.485 528.833,309.485 528.5,324.5C 528.167,324.5 527.833,324.5 527.5,324.5C 527.829,309.657 527.496,294.99 526.5,280.5 Z"/></g>
<g><path style="opacity:1" fill="#a4ca0f" d="M 588.5,281.5 C 595.309,288.794 598.476,297.461 598,307.5C 594.838,313.836 590.004,318.169 583.5,320.5C 582.5,320.5 581.5,320.5 580.5,320.5C 575.213,319.658 569.88,319.324 564.5,319.5C 566.025,307.11 565.692,294.777 563.5,282.5C 571.867,282.705 580.2,282.371 588.5,281.5 Z"/></g>
<g><path style="opacity:1" fill="#fdfefb" d="M 763.5,311.5 C 759.585,309.257 756.251,306.257 753.5,302.5C 755.215,300.118 757.215,298.118 759.5,296.5C 784.122,279.509 809.789,278.009 836.5,292C 841.39,294.954 845.723,298.621 849.5,303C 846.333,306.167 843.167,309.333 840,312.5C 825.852,298.897 809.019,293.73 789.5,297C 779.423,299.533 770.757,304.366 763.5,311.5 Z"/></g>
<g><path style="opacity:1" fill="#aace25" d="M 667.5,373.5 C 667.167,373.5 666.833,373.5 666.5,373.5C 665.833,372.167 665.167,370.833 664.5,369.5C 687.537,357.244 695.037,338.578 687,313.5C 674.402,291.462 655.902,284.295 631.5,292C 617.195,299.143 608.862,310.643 606.5,326.5C 605.167,326.167 603.833,325.833 602.5,325.5C 602.5,325.167 602.5,324.833 602.5,324.5C 605.289,307.762 614.289,295.595 629.5,288C 652.615,280.068 671.781,285.568 687,304.5C 701.474,333.563 694.974,356.563 667.5,373.5 Z"/></g>
<g><path style="opacity:1" fill="#fcfdfd" d="M 313.5,290.5 C 314.495,303.323 314.829,316.323 314.5,329.5C 310.5,329.5 306.5,329.5 302.5,329.5C 298.833,329.5 295.167,329.5 291.5,329.5C 291.333,315.829 291.5,302.163 292,288.5C 295.981,293.316 300.148,297.982 304.5,302.5C 307.524,298.482 310.524,294.482 313.5,290.5 Z"/></g>
<g><path style="opacity:1" fill="#b1c0c9" d="M 315.5,324.5 C 315.784,326.415 315.451,328.081 314.5,329.5C 314.829,316.323 314.495,303.323 313.5,290.5C 313.783,289.711 314.283,289.044 315,288.5C 315.5,300.495 315.667,312.495 315.5,324.5 Z"/></g>
<g><path style="opacity:1" fill="#fbfdf6" d="M 664.5,369.5 C 664.167,369.5 663.833,369.5 663.5,369.5C 662.974,367.77 661.974,366.436 660.5,365.5C 660.5,365.167 660.5,364.833 660.5,364.5C 672.574,360.256 680.408,351.923 684,339.5C 687.201,316.379 677.701,301.546 655.5,295C 634.217,292.552 620.051,301.386 613,321.5C 612.503,323.81 612.337,326.143 612.5,328.5C 612.167,328.5 611.833,328.5 611.5,328.5C 609.833,327.833 608.167,327.167 606.5,326.5C 608.862,310.643 617.195,299.143 631.5,292C 655.902,284.295 674.402,291.462 687,313.5C 695.037,338.578 687.537,357.244 664.5,369.5 Z"/></g>
<g><path style="opacity:1" fill="#012a41" d="M 173.5,292.5 C 177.165,295.333 180.332,298.666 183,302.5C 193.154,318.476 198.654,335.809 199.5,354.5C 199.5,355.167 199.167,355.5 198.5,355.5C 184.122,337.059 175.789,316.059 173.5,292.5 Z"/></g>
<g><path style="opacity:1" fill="#a4cb0f" d="M 660.5,364.5 C 647.048,349.04 631.048,337.04 612.5,328.5C 612.337,326.143 612.503,323.81 613,321.5C 620.051,301.386 634.217,292.552 655.5,295C 677.701,301.546 687.201,316.379 684,339.5C 680.408,351.923 672.574,360.256 660.5,364.5 Z"/></g>
<g><path style="opacity:1" fill="#fcfdfd" d="M 155.5,387.5 C 126.833,387.5 98.1667,387.5 69.5,387.5C 64.8848,386.052 61.7182,383.052 60,378.5C 59.3333,355.167 59.3333,331.833 60,308.5C 61.5,304.333 64.3333,301.5 68.5,300C 97.5,299.333 126.5,299.333 155.5,300C 160.185,301.35 163.685,304.183 166,308.5C 166.667,331.5 166.667,354.5 166,377.5C 164.583,383.085 161.083,386.419 155.5,387.5 Z"/></g>
<g><path style="opacity:1" fill="#69bebf" d="M 77.5,309.5 C 101.899,309.029 126.232,309.529 150.5,311C 152.049,312.214 153.215,313.714 154,315.5C 154.975,334.923 154.641,354.257 153,373.5C 151.363,375.81 149.196,377.31 146.5,378C 123.833,378.667 101.167,378.667 78.5,378C 74.6667,376.833 72.1667,374.333 71,370.5C 70.3333,352.833 70.3333,335.167 71,317.5C 72.3046,314.039 74.4713,311.372 77.5,309.5 Z"/></g>
<g><path style="opacity:1" fill="#fdfefc" d="M 793.5,309.5 C 808.052,307.406 820.385,311.572 830.5,322C 828,324.5 825.5,327 823,329.5C 808.872,316.508 794.372,316.175 779.5,328.5C 776.257,326.452 774.09,323.785 773,320.5C 778.855,314.825 785.689,311.158 793.5,309.5 Z"/></g>
<g><path style="opacity:1" fill="#03270f" d="M 346.5,319.5 C 352.833,319.5 359.167,319.5 365.5,319.5C 367.842,336.838 374.509,352.171 385.5,365.5C 385.5,365.833 385.5,366.167 385.5,366.5C 379.833,371.167 374.167,375.833 368.5,380.5C 368.167,380.5 367.833,380.5 367.5,380.5C 339.721,374.982 316.388,382.649 297.5,403.5C 297.167,403.5 296.833,403.5 296.5,403.5C 289.142,403.582 281.809,403.248 274.5,402.5C 273.833,402.5 273.5,402.167 273.5,401.5C 278.985,385.173 275.652,370.506 263.5,357.5C 275.303,346.438 288.303,337.105 302.5,329.5C 306.5,329.5 310.5,329.5 314.5,329.5C 315.451,328.081 315.784,326.415 315.5,324.5C 317.262,324.643 318.929,324.309 320.5,323.5C 321.169,325.631 321.835,327.631 322.5,329.5C 330.5,329.5 338.5,329.5 346.5,329.5C 346.5,326.167 346.5,322.833 346.5,319.5 Z"/></g>
<g><path style="opacity:1" fill="#012a03" d="M 564.5,319.5 C 560.113,345.289 547.78,366.289 527.5,382.5C 522.45,372.392 519.117,361.726 517.5,350.5C 521.093,348.744 523.926,346.077 526,342.5C 527.361,336.593 527.861,330.593 527.5,324.5C 527.833,324.5 528.167,324.5 528.5,324.5C 540.18,320.665 552.18,318.998 564.5,319.5 Z"/></g>
<g><path style="opacity:1" fill="#038d0d" d="M 564.5,319.5 C 569.88,319.324 575.213,319.658 580.5,320.5C 576.507,322.108 572.341,323.441 568,324.5C 567.501,328.821 567.334,333.154 567.5,337.5C 578.413,338.3 587.913,342.3 596,349.5C 598.245,352.881 598.912,356.548 598,360.5C 596.653,366.189 594.487,371.523 591.5,376.5C 568.552,365.99 548.219,369.657 530.5,387.5C 529.5,386.167 528.5,384.833 527.5,383.5C 527.5,383.167 527.5,382.833 527.5,382.5C 547.78,366.289 560.113,345.289 564.5,319.5 Z"/></g>
<g><path style="opacity:1" fill="#040b04" d="M 365.5,319.5 C 377.907,320.935 389.907,323.935 401.5,328.5C 401.437,333.203 401.771,337.87 402.5,342.5C 397.983,351.017 392.317,358.683 385.5,365.5C 374.509,352.171 367.842,336.838 365.5,319.5 Z"/></g>
<g><path style="opacity:1" fill="#04b0c0" d="M 580.5,320.5 C 581.5,320.5 582.5,320.5 583.5,320.5C 589.843,321.668 596.176,323.001 602.5,324.5C 602.5,324.833 602.5,325.167 602.5,325.5C 601.418,351.17 613.085,368.004 637.5,376C 647.401,377.237 657.068,376.404 666.5,373.5C 666.833,373.5 667.167,373.5 667.5,373.5C 668.569,375.969 669.902,378.302 671.5,380.5C 671.5,380.833 671.5,381.167 671.5,381.5C 666.991,383.165 663.491,386.165 661,390.5C 658.193,396.921 656.193,403.588 655,410.5C 650.934,411.464 646.767,411.797 642.5,411.5C 640.91,403.183 638.076,395.183 634,387.5C 629.807,381.992 624.307,379.825 617.5,381C 613.061,382.056 609.061,383.889 605.5,386.5C 601.112,382.779 596.445,379.445 591.5,376.5C 594.487,371.523 596.653,366.189 598,360.5C 598.912,356.548 598.245,352.881 596,349.5C 587.913,342.3 578.413,338.3 567.5,337.5C 567.334,333.154 567.501,328.821 568,324.5C 572.341,323.441 576.507,322.108 580.5,320.5 Z"/></g>
<g><path style="opacity:1" fill="#048f1a" d="M 602.5,325.5 C 603.833,325.833 605.167,326.167 606.5,326.5C 606.028,351.074 617.695,366.241 641.5,372C 649.188,373.099 656.521,372.266 663.5,369.5C 663.833,369.5 664.167,369.5 664.5,369.5C 665.167,370.833 665.833,372.167 666.5,373.5C 657.068,376.404 647.401,377.237 637.5,376C 613.085,368.004 601.418,351.17 602.5,325.5 Z"/></g>
<g><path style="opacity:1" fill="#05b0be" d="M 606.5,326.5 C 608.167,327.167 609.833,327.833 611.5,328.5C 612.532,349.363 623.198,362.197 643.5,367C 649.258,367.564 654.925,367.064 660.5,365.5C 661.974,366.436 662.974,367.77 663.5,369.5C 656.521,372.266 649.188,373.099 641.5,372C 617.695,366.241 606.028,351.074 606.5,326.5 Z"/></g>
<g><path style="opacity:1" fill="#058e0f" d="M 611.5,328.5 C 611.833,328.5 612.167,328.5 612.5,328.5C 631.048,337.04 647.048,349.04 660.5,364.5C 660.5,364.833 660.5,365.167 660.5,365.5C 654.925,367.064 649.258,367.564 643.5,367C 623.198,362.197 612.532,349.363 611.5,328.5 Z"/></g>
<g><path style="opacity:1" fill="#fdfefb" d="M 796.5,329.5 C 810.674,328.173 816.841,334.506 815,348.5C 810.236,357.818 803.069,360.318 793.5,356C 786.991,349.788 785.825,342.621 790,334.5C 791.965,332.45 794.132,330.783 796.5,329.5 Z"/></g>
<g><path style="opacity:1" fill="#041004" d="M 263.5,357.5 C 275.652,370.506 278.985,385.173 273.5,401.5C 262.387,399.573 251.72,396.24 241.5,391.5C 224.743,382.936 210.409,371.269 198.5,356.5C 198.5,356.167 198.5,355.833 198.5,355.5C 199.167,355.5 199.5,355.167 199.5,354.5C 203.083,351.433 207.083,348.933 211.5,347C 231.002,340.2 248.335,343.7 263.5,357.5 Z"/></g>
<g><path style="opacity:1" fill="#e0350b" d="M 402.5,342.5 C 402.833,342.5 403.167,342.5 403.5,342.5C 405.054,346.123 407.721,348.623 411.5,350C 419.827,350.5 428.16,350.666 436.5,350.5C 445.001,358.991 452.335,368.325 458.5,378.5C 454.026,386.451 450.359,394.784 447.5,403.5C 447.167,403.5 446.833,403.5 446.5,403.5C 421.823,398.123 401.49,385.789 385.5,366.5C 385.5,366.167 385.5,365.833 385.5,365.5C 392.317,358.683 397.983,351.017 402.5,342.5 Z"/></g>
<g><path style="opacity:1" fill="#e54941" d="M 436.5,350.5 C 451.5,350.5 466.5,350.5 481.5,350.5C 472.999,358.991 465.665,368.325 459.5,378.5C 459.167,378.5 458.833,378.5 458.5,378.5C 452.335,368.325 445.001,358.991 436.5,350.5 Z"/></g>
<g><path style="opacity:1" fill="#003332" d="M 481.5,350.5 C 493.5,350.5 505.5,350.5 517.5,350.5C 519.117,361.726 522.45,372.392 527.5,382.5C 527.5,382.833 527.5,383.167 527.5,383.5C 511.001,396.003 492.334,403.003 471.5,404.5C 471.167,404.5 470.833,404.5 470.5,404.5C 467.925,395.352 464.258,386.685 459.5,378.5C 465.665,368.325 472.999,358.991 481.5,350.5 Z"/></g>
<g><path style="opacity:1" fill="#604010" d="M 198.5,356.5 C 197.841,372.808 193.174,387.808 184.5,401.5C 180.384,383.597 185.051,368.597 198.5,356.5 Z"/></g>
<g><path style="opacity:0.994" fill="#e85312" d="M 198.5,356.5 C 210.409,371.269 224.743,382.936 241.5,391.5C 234.381,405.549 230.715,420.549 230.5,436.5C 229.833,436.5 229.5,436.833 229.5,437.5C 228.833,437.5 228.167,437.5 227.5,437.5C 227.167,437.5 226.833,437.5 226.5,437.5C 226.5,436.833 226.167,436.5 225.5,436.5C 224.833,436.5 224.167,436.5 223.5,436.5C 215.289,428.554 205.623,422.887 194.5,419.5C 193.167,418.833 191.833,418.167 190.5,417.5C 187.964,413.091 185.964,408.425 184.5,403.5C 184.5,402.833 184.5,402.167 184.5,401.5C 193.174,387.808 197.841,372.808 198.5,356.5 Z"/></g>
<g><path style="opacity:0.996" fill="#f7b62c" d="M 385.5,366.5 C 401.49,385.789 421.823,398.123 446.5,403.5C 441.71,421.848 440.21,440.515 442,459.5C 443.305,469.084 445.638,478.417 449,487.5C 452.201,494.563 455.368,501.563 458.5,508.5C 452.343,519.33 444.343,528.664 434.5,536.5C 418.876,529.352 403.543,529.852 388.5,538C 386.91,539.046 385.41,540.213 384,541.5C 381.685,537.183 378.185,534.35 373.5,533C 364.833,532.333 356.167,532.333 347.5,533C 343.045,535.291 339.378,538.458 336.5,542.5C 328.616,537.26 319.949,534.093 310.5,533C 300.833,532.333 291.167,532.333 281.5,533C 278.671,534.356 276.004,535.856 273.5,537.5C 266.806,531.473 260.473,525.14 254.5,518.5C 254.5,517.833 254.5,517.167 254.5,516.5C 257.869,487.945 249.869,463.279 230.5,442.5C 229.89,441.609 229.557,440.609 229.5,439.5C 229.5,438.833 229.5,438.167 229.5,437.5C 229.5,436.833 229.833,436.5 230.5,436.5C 253.048,435.278 267.714,423.945 274.5,402.5C 281.809,403.248 289.142,403.582 296.5,403.5C 276.281,430.668 274.114,459.334 290,489.5C 310.808,518.66 338.641,528.827 373.5,520C 404.969,507.588 421.635,484.422 423.5,450.5C 420.736,414.755 402.403,391.422 368.5,380.5C 374.167,375.833 379.833,371.167 385.5,366.5 Z"/></g>
<g><path style="opacity:0.985" fill="#86cfe2" d="M 755.5,370.5 C 757.833,370.5 760.167,370.5 762.5,370.5C 764.117,371.038 765.784,371.371 767.5,371.5C 777.36,376.965 788.027,379.632 799.5,379.5C 801.5,379.833 803.5,380.167 805.5,380.5C 843.17,402.167 860.003,434.834 856,478.5C 848.828,518.339 825.994,544.505 787.5,557C 735.303,567.066 697.303,548.566 673.5,501.5C 673.833,500.833 674.167,500.167 674.5,499.5C 678.822,490.535 682.155,481.202 684.5,471.5C 690.616,471.732 696.616,471.066 702.5,469.5C 704.075,497.576 718.408,515.409 745.5,523C 774.935,526.706 795.768,515.206 808,488.5C 810.118,482.322 811.284,475.989 811.5,469.5C 793.167,469.5 774.833,469.5 756.5,469.5C 756.5,451.5 756.5,433.5 756.5,415.5C 748.738,414.753 741.405,416.087 734.5,419.5C 734.149,416.097 733.482,412.763 732.5,409.5C 741.881,398.078 749.214,385.411 754.5,371.5C 755.167,371.5 755.5,371.167 755.5,370.5 Z"/></g>
<g><path style="opacity:1" fill="#f8fcfb" d="M 591.5,376.5 C 596.445,379.445 601.112,382.779 605.5,386.5C 620.924,406.01 622.591,426.677 610.5,448.5C 598.031,462.108 590.364,478.108 587.5,496.5C 574.5,496.5 561.5,496.5 548.5,496.5C 546.923,482.605 542.09,469.938 534,458.5C 516.517,438.695 513.85,417.029 526,393.5C 527.332,391.34 528.832,389.34 530.5,387.5C 548.219,369.657 568.552,365.99 591.5,376.5 Z"/></g>
<g><path style="opacity:1" fill="#57a50f" d="M 754.5,371.5 C 749.214,385.411 741.881,398.078 732.5,409.5C 732.167,409.5 731.833,409.5 731.5,409.5C 728.183,399.176 721.85,391.176 712.5,385.5C 725.14,377.065 739.14,372.398 754.5,371.5 Z"/></g>
<g><path style="opacity:1" fill="#5ea923" d="M 767.5,371.5 C 778.816,371.946 789.483,374.613 799.5,379.5C 788.027,379.632 777.36,376.965 767.5,371.5 Z"/></g>
<g><path style="opacity:1" fill="#04354e" d="M 367.5,380.5 C 367.027,381.906 366.027,382.573 364.5,382.5C 358.03,382.303 351.697,383.136 345.5,385C 348.766,385.759 351.1,387.593 352.5,390.5C 348.935,392.116 345.269,393.449 341.5,394.5C 340.91,392.903 339.91,391.569 338.5,390.5C 335.843,389.741 333.177,389.074 330.5,388.5C 329.246,390.538 327.579,392.204 325.5,393.5C 324.186,392.687 323.019,391.687 322,390.5C 321.167,391.333 320.333,392.167 319.5,393C 311.916,393.745 305.916,397.245 301.5,403.5C 301.167,403.5 300.833,403.5 300.5,403.5C 299.5,403.5 298.5,403.5 297.5,403.5C 316.388,382.649 339.721,374.982 367.5,380.5 Z"/></g>
<g><path style="opacity:1" fill="#022508" d="M 458.5,378.5 C 458.833,378.5 459.167,378.5 459.5,378.5C 464.258,386.685 467.925,395.352 470.5,404.5C 462.809,404.597 455.142,404.263 447.5,403.5C 450.359,394.784 454.026,386.451 458.5,378.5 Z"/></g>
<g><path style="opacity:1" fill="#058e0e" d="M 588.5,384.5 C 590.668,388.012 593.668,390.345 597.5,391.5C 610.095,404.377 613.262,419.377 607,436.5C 605.643,439.898 603.81,442.898 601.5,445.5C 594.374,443.936 587.708,441.269 581.5,437.5C 581.739,435.533 581.406,433.699 580.5,432C 578.588,431.721 577.254,432.554 576.5,434.5C 559.267,425.267 545.6,412.267 535.5,395.5C 550.268,378.394 567.935,374.728 588.5,384.5 Z"/></g>
<g><path style="opacity:1" fill="#fefdfb" d="M 367.5,380.5 C 367.833,380.5 368.167,380.5 368.5,380.5C 402.403,391.422 420.736,414.755 423.5,450.5C 421.635,484.422 404.969,507.588 373.5,520C 338.641,528.827 310.808,518.66 290,489.5C 274.114,459.334 276.281,430.668 296.5,403.5C 296.833,403.5 297.167,403.5 297.5,403.5C 298.5,403.5 299.5,403.5 300.5,403.5C 292.301,412.731 286.635,423.398 283.5,435.5C 285.88,442.041 290.547,445.875 297.5,447C 301.568,450.864 306.235,453.364 311.5,454.5C 311.159,457.516 309.993,460.182 308,462.5C 307.346,470.833 310.679,477.166 318,481.5C 319.406,490.431 320.406,499.431 321,508.5C 323.741,510.067 324.908,512.401 324.5,515.5C 326.201,515.966 327.701,515.966 329,515.5C 329.66,512.953 329.493,510.453 328.5,508C 330.071,504.989 331.237,501.822 332,498.5C 335.664,496.833 337.831,494 338.5,490C 340.917,488.374 343.417,486.874 346,485.5C 347.688,480.621 349.522,475.788 351.5,471C 350.899,469.395 349.899,468.062 348.5,467C 344.299,464.858 339.966,464.191 335.5,465C 335.182,462.958 335.015,460.791 335,458.5C 329.756,454.629 323.922,451.962 317.5,450.5C 316.833,451.167 316.167,451.833 315.5,452.5C 312.604,452.293 309.604,452.127 306.5,452C 304.845,450.556 304.178,448.722 304.5,446.5C 302.897,446.688 301.563,446.188 300.5,445C 301.554,443.612 301.72,442.112 301,440.5C 296.619,443.767 294.119,442.6 293.5,437C 293.735,436.127 294.069,435.293 294.5,434.5C 298.518,432.197 302.851,431.363 307.5,432C 308.211,433.255 309.044,434.421 310,435.5C 310.333,433.5 310.667,431.5 311,429.5C 313.374,427.461 315.374,425.128 317,422.5C 320.103,420.697 322.937,418.53 325.5,416C 327.557,415.695 329.557,415.695 331.5,416C 332.337,414.989 332.67,413.822 332.5,412.5C 331.448,412.649 330.448,412.483 329.5,412C 329.833,411.667 330.167,411.333 330.5,411C 334.047,410.693 337.38,409.86 340.5,408.5C 339.955,402.416 336.622,399.416 330.5,399.5C 331.671,398.655 333.005,397.989 334.5,397.5C 337.157,397.065 339.491,396.065 341.5,394.5C 345.269,393.449 348.935,392.116 352.5,390.5C 350.664,393.183 349.664,396.183 349.5,399.5C 351.199,399.66 352.866,399.494 354.5,399C 359.266,395.451 364.6,393.284 370.5,392.5C 370.561,389.27 372.228,387.437 375.5,387C 372.107,385.067 368.441,383.9 364.5,383.5C 364.5,383.167 364.5,382.833 364.5,382.5C 366.027,382.573 367.027,381.906 367.5,380.5 Z"/></g>
<g><path style="opacity:1" fill="#038d0d" d="M 642.5,411.5 C 640.746,422.363 641.58,433.03 645,443.5C 646.026,446.239 647.526,448.572 649.5,450.5C 649.5,450.833 649.5,451.167 649.5,451.5C 636.304,452.199 623.304,451.199 610.5,448.5C 622.591,426.677 620.924,406.01 605.5,386.5C 609.061,383.889 613.061,382.056 617.5,381C 624.307,379.825 629.807,381.992 634,387.5C 638.076,395.183 640.91,403.183 642.5,411.5 Z"/></g>
<g><path style="opacity:1" fill="#006502" d="M 671.5,381.5 C 677.399,390.309 681.399,399.975 683.5,410.5C 683.833,411.167 684.167,411.833 684.5,412.5C 676.525,422.795 671.525,434.462 669.5,447.5C 669.5,448.167 669.167,448.5 668.5,448.5C 662.218,449.577 655.884,450.243 649.5,450.5C 647.526,448.572 646.026,446.239 645,443.5C 641.58,433.03 640.746,422.363 642.5,411.5C 646.767,411.797 650.934,411.464 655,410.5C 656.193,403.588 658.193,396.921 661,390.5C 663.491,386.165 666.991,383.165 671.5,381.5 Z"/></g>
<g><path style="opacity:1" fill="#9f9209" d="M 671.5,381.5 C 671.5,381.167 671.5,380.833 671.5,380.5C 676.371,380.192 681.037,381.025 685.5,383C 691.104,386.141 696.771,388.974 702.5,391.5C 696.157,396.678 690.657,402.678 686,409.5C 685.329,410.252 684.496,410.586 683.5,410.5C 681.399,399.975 677.399,390.309 671.5,381.5 Z"/></g>
<g><path style="opacity:1" fill="#082a13" d="M 364.5,382.5 C 364.5,382.833 364.5,383.167 364.5,383.5C 360.5,385.833 356.5,388.167 352.5,390.5C 351.1,387.593 348.766,385.759 345.5,385C 351.697,383.136 358.03,382.303 364.5,382.5 Z"/></g>
<g><path style="opacity:1" fill="#f6b630" d="M 364.5,383.5 C 368.441,383.9 372.107,385.067 375.5,387C 372.228,387.437 370.561,389.27 370.5,392.5C 364.6,393.284 359.266,395.451 354.5,399C 352.866,399.494 351.199,399.66 349.5,399.5C 349.664,396.183 350.664,393.183 352.5,390.5C 356.5,388.167 360.5,385.833 364.5,383.5 Z"/></g>
<g><path style="opacity:0.995" fill="#04b1c3" d="M 527.5,383.5 C 528.5,384.833 529.5,386.167 530.5,387.5C 528.832,389.34 527.332,391.34 526,393.5C 513.85,417.029 516.517,438.695 534,458.5C 542.09,469.938 546.923,482.605 548.5,496.5C 561.5,496.5 574.5,496.5 587.5,496.5C 590.364,478.108 598.031,462.108 610.5,448.5C 623.304,451.199 636.304,452.199 649.5,451.5C 651.666,453.837 653.666,456.337 655.5,459C 659.052,462.273 663.052,464.773 667.5,466.5C 667.5,466.833 667.5,467.167 667.5,467.5C 667.653,478.763 669.986,489.43 674.5,499.5C 674.167,500.167 673.833,500.833 673.5,501.5C 660.388,525.279 641.722,543.279 617.5,555.5C 617.299,549.28 615.799,543.28 613,537.5C 611.421,535.959 609.587,534.792 607.5,534C 598.242,532.416 588.909,532.083 579.5,533C 576.421,534.248 573.754,536.081 571.5,538.5C 566.148,535.335 566.815,533.502 573.5,533C 575.662,531.355 576.995,529.188 577.5,526.5C 580.107,525.682 582.774,525.182 585.5,525C 586.833,523.333 586.833,521.667 585.5,520C 574.167,519.333 562.833,519.333 551.5,520C 548.833,521.667 548.833,523.333 551.5,525C 554.146,525.497 556.813,525.664 559.5,525.5C 559.247,527.827 559.914,529.827 561.5,531.5C 553.187,532.332 544.853,532.832 536.5,533C 534.919,533.707 533.419,534.54 532,535.5C 530.352,534.283 528.519,533.45 526.5,533C 510.093,532.819 493.759,532.319 477.5,531.5C 470.737,524.407 464.737,516.74 459.5,508.5C 464.201,498.425 468.367,488.091 472,477.5C 478.164,453.1 477.997,428.767 471.5,404.5C 492.334,403.003 511.001,396.003 527.5,383.5 Z"/></g>
<g><path style="opacity:1" fill="#557602" d="M 709.5,383.5 C 710.5,384.167 711.5,384.833 712.5,385.5C 721.85,391.176 728.183,399.176 731.5,409.5C 719.664,422.829 705.664,433.329 689.5,441C 688.865,444.603 688.198,448.103 687.5,451.5C 687.5,448.167 687.5,444.833 687.5,441.5C 688.02,431.649 687.02,421.982 684.5,412.5C 684.167,411.833 683.833,411.167 683.5,410.5C 684.496,410.586 685.329,410.252 686,409.5C 690.657,402.678 696.157,396.678 702.5,391.5C 704.833,388.833 707.167,386.167 709.5,383.5 Z"/></g>
<g><path style="opacity:1" fill="#3ebbc1" d="M 588.5,384.5 C 592.051,386.111 595.051,388.444 597.5,391.5C 593.668,390.345 590.668,388.012 588.5,384.5 Z"/></g>
<g><path style="opacity:1" fill="#fefffe" d="M 99.5,388.5 C 108.167,388.5 116.833,388.5 125.5,388.5C 125.5,392.167 125.5,395.833 125.5,399.5C 116.833,399.5 108.167,399.5 99.5,399.5C 99.5,395.833 99.5,392.167 99.5,388.5 Z"/></g>
<g><path style="opacity:1" fill="#042813" d="M 341.5,394.5 C 339.491,396.065 337.157,397.065 334.5,397.5C 333.553,395.242 334.553,394.075 337.5,394C 333.811,390.447 330.478,390.781 327.5,395C 323.833,396 320.167,397 316.5,398C 314.963,399.11 314.297,400.61 314.5,402.5C 310.19,403.08 305.857,403.414 301.5,403.5C 305.916,397.245 311.916,393.745 319.5,393C 320.333,392.167 321.167,391.333 322,390.5C 323.019,391.687 324.186,392.687 325.5,393.5C 327.579,392.204 329.246,390.538 330.5,388.5C 333.177,389.074 335.843,389.741 338.5,390.5C 339.91,391.569 340.91,392.903 341.5,394.5 Z"/></g>
<g><path style="opacity:1" fill="#083855" d="M 334.5,397.5 C 333.005,397.989 331.671,398.655 330.5,399.5C 329.833,399.5 329.167,399.5 328.5,399.5C 323.833,400.5 319.167,401.5 314.5,402.5C 314.297,400.61 314.963,399.11 316.5,398C 320.167,397 323.833,396 327.5,395C 330.478,390.781 333.811,390.447 337.5,394C 334.553,394.075 333.553,395.242 334.5,397.5 Z"/></g>
<g><path style="opacity:1" fill="#e33c03" d="M 241.5,391.5 C 251.72,396.24 262.387,399.573 273.5,401.5C 273.5,402.167 273.833,402.5 274.5,402.5C 267.714,423.945 253.048,435.278 230.5,436.5C 230.715,420.549 234.381,405.549 241.5,391.5 Z"/></g>
<g><path style="opacity:1" fill="#f9bb3f" d="M 392.5,397.5 C 395.634,398.279 398.301,399.945 400.5,402.5C 399.68,404.111 398.346,404.778 396.5,404.5C 396.5,403.5 396.5,402.5 396.5,401.5C 394.833,401.5 393.167,401.5 391.5,401.5C 391.433,400.041 391.766,398.708 392.5,397.5 Z"/></g>
<g><path style="opacity:1" fill="#cfeaea" d="M 69.5,387.5 C 98.1667,387.5 126.833,387.5 155.5,387.5C 146.014,388.494 136.348,388.827 126.5,388.5C 126.5,392.167 126.5,395.833 126.5,399.5C 128.5,399.5 130.5,399.5 132.5,399.5C 132.5,401.833 132.5,404.167 132.5,406.5C 119.5,406.5 106.5,406.5 93.5,406.5C 93.5,404.167 93.5,401.833 93.5,399.5C 95.5,399.5 97.5,399.5 99.5,399.5C 108.167,399.5 116.833,399.5 125.5,399.5C 125.5,395.833 125.5,392.167 125.5,388.5C 116.833,388.5 108.167,388.5 99.5,388.5C 89.3194,388.827 79.3194,388.494 69.5,387.5 Z"/></g>
<g><path style="opacity:1" fill="#fefffe" d="M 94.5,400.5 C 106.833,400.5 119.167,400.5 131.5,400.5C 131.5,402.167 131.5,403.833 131.5,405.5C 119.167,405.5 106.833,405.5 94.5,405.5C 94.5,403.833 94.5,402.167 94.5,400.5 Z"/></g>
<g><path style="opacity:1" fill="#efefec" d="M 328.5,399.5 C 326.986,403.531 324.319,406.531 320.5,408.5C 319.833,407.167 319.167,405.833 318.5,404.5C 316.974,404.006 315.641,403.339 314.5,402.5C 319.167,401.5 323.833,400.5 328.5,399.5 Z"/></g>
<g><path style="opacity:1" fill="#047e21" d="M 446.5,403.5 C 446.833,403.5 447.167,403.5 447.5,403.5C 455.142,404.263 462.809,404.597 470.5,404.5C 470.833,404.5 471.167,404.5 471.5,404.5C 477.997,428.767 478.164,453.1 472,477.5C 468.367,488.091 464.201,498.425 459.5,508.5C 459.167,508.5 458.833,508.5 458.5,508.5C 455.368,501.563 452.201,494.563 449,487.5C 445.638,478.417 443.305,469.084 442,459.5C 440.21,440.515 441.71,421.848 446.5,403.5 Z"/></g>
<g><path style="opacity:1" fill="#fac457" d="M 376.5,404.5 C 377.675,404.281 378.675,404.614 379.5,405.5C 377.926,406.631 376.259,406.798 374.5,406C 375.416,405.722 376.082,405.222 376.5,404.5 Z"/></g>
<g><path style="opacity:1" fill="#f8bc40" d="M 384.5,404.5 C 385.479,405.765 386.479,407.099 387.5,408.5C 383.705,409.613 382.705,408.28 384.5,404.5 Z"/></g>
<g><path style="opacity:1" fill="#f8ba39" d="M 392.5,406.5 C 396.514,406.334 400.514,406.501 404.5,407C 407.622,410.583 409.956,414.583 411.5,419C 410.167,419.333 408.833,419.667 407.5,420C 407.741,421.562 407.241,423.062 406,424.5C 404.947,420.057 402.28,417.057 398,415.5C 397.493,416.996 397.993,418.163 399.5,419C 397.799,419.345 396.466,418.678 395.5,417C 393.555,417.128 391.722,416.962 390,416.5C 387.534,419.315 384.868,421.648 382,423.5C 381.167,423.333 380.333,423.167 379.5,423C 380.767,421.204 380.767,419.371 379.5,417.5C 381.045,416.548 382.712,416.215 384.5,416.5C 384.714,414.856 384.38,413.356 383.5,412C 387.181,411.128 390.181,409.294 392.5,406.5 Z"/></g>
<g><path style="opacity:1" fill="#fefefe" d="M 763.5,408.5 C 795.058,411.725 812.725,429.059 816.5,460.5C 798.833,460.5 781.167,460.5 763.5,460.5C 763.5,443.167 763.5,425.833 763.5,408.5 Z"/></g>
<g><path style="opacity:1" fill="#829428" d="M 731.5,409.5 C 731.833,409.5 732.167,409.5 732.5,409.5C 733.482,412.763 734.149,416.097 734.5,419.5C 713.762,429.627 703.095,446.294 702.5,469.5C 696.616,471.066 690.616,471.732 684.5,471.5C 686.153,464.949 687.153,458.282 687.5,451.5C 688.198,448.103 688.865,444.603 689.5,441C 705.664,433.329 719.664,422.829 731.5,409.5 Z"/></g>
<g><path style="opacity:1" fill="#f8b934" d="M 338.5,410.5 C 341.137,412.154 340.803,412.654 337.5,412C 338.056,411.617 338.389,411.117 338.5,410.5 Z"/></g>
<g><path style="opacity:1" fill="#015202" d="M 684.5,412.5 C 687.02,421.982 688.02,431.649 687.5,441.5C 681.715,444.095 675.715,446.095 669.5,447.5C 671.525,434.462 676.525,422.795 684.5,412.5 Z"/></g>
<g><path style="opacity:1" fill="#603832" d="M 173.5,415.5 C 154.14,434.295 130.807,443.295 103.5,442.5C 122.576,422.912 145.91,413.912 173.5,415.5 Z"/></g>
<g><path style="opacity:0.98" fill="#e64a42" d="M 173.5,415.5 C 173.833,415.5 174.167,415.5 174.5,415.5C 179.923,415.518 185.256,416.185 190.5,417.5C 191.833,418.167 193.167,418.833 194.5,419.5C 201.741,428.966 211.407,434.632 223.5,436.5C 224.167,436.5 224.833,436.5 225.5,436.5C 226.167,436.5 226.5,436.833 226.5,437.5C 226.833,437.5 227.167,437.5 227.5,437.5C 227.833,438.5 228.5,439.167 229.5,439.5C 229.557,440.609 229.89,441.609 230.5,442.5C 229.914,470.074 237.914,494.741 254.5,516.5C 254.5,517.167 254.5,517.833 254.5,518.5C 245.066,558.767 220.066,582.934 179.5,591C 136.852,594.933 105.686,578.1 86,540.5C 72.0285,504.668 77.1952,472.001 101.5,442.5C 102.167,442.5 102.833,442.5 103.5,442.5C 130.807,443.295 154.14,434.295 173.5,415.5 Z"/></g>
<g><path style="opacity:1" fill="#fefefe" d="M 702.5,469.5 C 703.095,446.294 713.762,429.627 734.5,419.5C 741.405,416.087 748.738,414.753 756.5,415.5C 756.5,433.5 756.5,451.5 756.5,469.5C 774.833,469.5 793.167,469.5 811.5,469.5C 811.284,475.989 810.118,482.322 808,488.5C 795.768,515.206 774.935,526.706 745.5,523C 718.408,515.409 704.075,497.576 702.5,469.5 Z"/></g>
<g><path style="opacity:1" fill="#f9c14e" d="M 391.5,418.5 C 392.239,418.369 392.906,418.536 393.5,419C 392.118,423.705 391.451,423.539 391.5,418.5 Z"/></g>
<g><path style="opacity:1" fill="#f9bf49" d="M 411.5,420.5 C 413.912,420.694 414.912,422.027 414.5,424.5C 411.046,424.733 410.046,423.4 411.5,420.5 Z"/></g>
<g><path style="opacity:1" fill="#d51e09" d="M 194.5,419.5 C 205.623,422.887 215.289,428.554 223.5,436.5C 211.407,434.632 201.741,428.966 194.5,419.5 Z"/></g>
<g><path style="opacity:1" fill="#f8b62e" d="M 386.5,424.5 C 389.5,424.5 392.5,424.5 395.5,424.5C 395.351,425.552 395.517,426.552 396,427.5C 397.609,428.147 399.109,428.98 400.5,430C 402.664,430.433 404.664,429.933 406.5,428.5C 410.283,429.122 413.95,430.122 417.5,431.5C 422.664,449.856 420.83,467.523 412,484.5C 409.71,488.619 406.876,492.286 403.5,495.5C 402.201,494.91 401.368,493.91 401,492.5C 400.75,489.246 399.75,486.246 398,483.5C 397.907,479.159 397.907,474.826 398,470.5C 395.672,466.839 394.172,462.839 393.5,458.5C 392.008,456.834 390.175,455.834 388,455.5C 383.845,456.5 379.679,457 375.5,457C 373.624,453.413 371.624,449.913 369.5,446.5C 370.438,438.74 373.771,432.24 379.5,427C 381.5,426.667 383.5,426.333 385.5,426C 386.056,425.617 386.389,425.117 386.5,424.5 Z"/></g>
<g><path style="opacity:1" fill="#12b2c4" d="M 535.5,395.5 C 545.6,412.267 559.267,425.267 576.5,434.5C 575.903,440.65 573.07,441.983 568,438.5C 567.652,434.183 565.485,432.017 561.5,432C 559.247,434.425 558.414,437.258 559,440.5C 561.14,430.612 563.807,430.278 567,439.5C 572.56,443.977 576.06,442.644 577.5,435.5C 578.5,436.167 579.5,436.833 580.5,437.5C 580.833,437.5 581.167,437.5 581.5,437.5C 587.708,441.269 594.374,443.936 601.5,445.5C 596.519,452.783 592.019,460.449 588,468.5C 585.897,473.302 584.731,478.302 584.5,483.5C 583.5,483.5 582.5,483.5 581.5,483.5C 583.841,471.815 586.008,460.148 588,448.5C 585,459.833 582,471.167 579,482.5C 571.921,483.48 564.755,483.813 557.5,483.5C 554.494,471.143 551.327,458.81 548,446.5C 550.009,458.878 552.509,471.212 555.5,483.5C 554.167,483.5 552.833,483.5 551.5,483.5C 549.308,467.783 542.808,454.117 532,442.5C 524.705,428.14 524.705,413.807 532,399.5C 532.949,397.907 534.115,396.574 535.5,395.5 Z"/></g>
<g><path style="opacity:1" fill="#fefbfb" d="M 156.5,439.5 C 193.183,437.403 217.016,453.737 228,488.5C 232.43,521.145 219.93,544.645 190.5,559C 158.904,569.467 133.404,561.3 114,534.5C 96.3899,498.771 103.89,469.605 136.5,447C 143.021,443.775 149.688,441.275 156.5,439.5 Z"/></g>
<g><path style="opacity:1" fill="#fac964" d="M 306.5,439.5 C 309.122,437.992 311.455,438.492 313.5,441C 311.243,440.563 308.91,440.063 306.5,439.5 Z"/></g>
<g><path style="opacity:1" fill="#f9c75e" d="M 316.5,441.5 C 317.675,441.281 318.675,441.614 319.5,442.5C 317.948,443.798 316.948,443.465 316.5,441.5 Z"/></g>
<g><path style="opacity:1" fill="#c9ece9" d="M 576.5,434.5 C 577.254,432.554 578.588,431.721 580.5,432C 581.406,433.699 581.739,435.533 581.5,437.5C 581.167,437.5 580.833,437.5 580.5,437.5C 580.762,436.022 580.429,434.689 579.5,433.5C 578.478,433.855 577.811,434.522 577.5,435.5C 576.06,442.644 572.56,443.977 567,439.5C 563.807,430.278 561.14,430.612 559,440.5C 558.414,437.258 559.247,434.425 561.5,432C 565.485,432.017 567.652,434.183 568,438.5C 573.07,441.983 575.903,440.65 576.5,434.5 Z"/></g>
<g><path style="opacity:1" fill="#1f972c" d="M 580.5,437.5 C 579.5,436.833 578.5,436.167 577.5,435.5C 577.811,434.522 578.478,433.855 579.5,433.5C 580.429,434.689 580.762,436.022 580.5,437.5 Z"/></g>
<g><path style="opacity:1" fill="#01671e" d="M 687.5,441.5 C 687.5,444.833 687.5,448.167 687.5,451.5C 687.153,458.282 686.153,464.949 684.5,471.5C 678.56,471.265 672.893,469.931 667.5,467.5C 667.5,467.167 667.5,466.833 667.5,466.5C 667.425,460.471 667.759,454.471 668.5,448.5C 669.167,448.5 669.5,448.167 669.5,447.5C 675.715,446.095 681.715,444.095 687.5,441.5 Z"/></g>
<g><path style="opacity:1" fill="#e1370c" d="M 230.5,442.5 C 249.869,463.279 257.869,487.945 254.5,516.5C 237.914,494.741 229.914,470.074 230.5,442.5 Z"/></g>
<g><path style="opacity:1" fill="#017e23" d="M 668.5,448.5 C 667.759,454.471 667.425,460.471 667.5,466.5C 663.052,464.773 659.052,462.273 655.5,459C 653.666,456.337 651.666,453.837 649.5,451.5C 649.5,451.167 649.5,450.833 649.5,450.5C 655.884,450.243 662.218,449.577 668.5,448.5 Z"/></g>
<g><path style="opacity:1" fill="#f8b72f" d="M 328.5,399.5 C 329.167,399.5 329.833,399.5 330.5,399.5C 336.622,399.416 339.955,402.416 340.5,408.5C 337.38,409.86 334.047,410.693 330.5,411C 330.167,411.333 329.833,411.667 329.5,412C 330.448,412.483 331.448,412.649 332.5,412.5C 332.67,413.822 332.337,414.989 331.5,416C 329.557,415.695 327.557,415.695 325.5,416C 322.937,418.53 320.103,420.697 317,422.5C 315.374,425.128 313.374,427.461 311,429.5C 310.667,431.5 310.333,433.5 310,435.5C 309.044,434.421 308.211,433.255 307.5,432C 302.851,431.363 298.518,432.197 294.5,434.5C 294.069,435.293 293.735,436.127 293.5,437C 294.119,442.6 296.619,443.767 301,440.5C 301.72,442.112 301.554,443.612 300.5,445C 301.563,446.188 302.897,446.688 304.5,446.5C 304.178,448.722 304.845,450.556 306.5,452C 309.604,452.127 312.604,452.293 315.5,452.5C 316.167,451.833 316.833,451.167 317.5,450.5C 323.922,451.962 329.756,454.629 335,458.5C 335.015,460.791 335.182,462.958 335.5,465C 339.966,464.191 344.299,464.858 348.5,467C 349.899,468.062 350.899,469.395 351.5,471C 349.522,475.788 347.688,480.621 346,485.5C 343.417,486.874 340.917,488.374 338.5,490C 337.831,494 335.664,496.833 332,498.5C 331.237,501.822 330.071,504.989 328.5,508C 329.493,510.453 329.66,512.953 329,515.5C 327.701,515.966 326.201,515.966 324.5,515.5C 324.908,512.401 323.741,510.067 321,508.5C 320.406,499.431 319.406,490.431 318,481.5C 310.679,477.166 307.346,470.833 308,462.5C 309.993,460.182 311.159,457.516 311.5,454.5C 306.235,453.364 301.568,450.864 297.5,447C 290.547,445.875 285.88,442.041 283.5,435.5C 286.635,423.398 292.301,412.731 300.5,403.5C 300.833,403.5 301.167,403.5 301.5,403.5C 305.857,403.414 310.19,403.08 314.5,402.5C 315.641,403.339 316.974,404.006 318.5,404.5C 319.167,405.833 319.833,407.167 320.5,408.5C 324.319,406.531 326.986,403.531 328.5,399.5 Z"/></g>
<g><path style="opacity:1" fill="#e74b43" d="M 160.5,453.5 C 188.104,453.209 205.937,466.209 214,492.5C 216.36,523.296 202.526,542.129 172.5,549C 144.82,549.921 127.32,537.088 120,510.5C 117.364,479.977 130.864,460.977 160.5,453.5 Z"/></g>
<g><path style="opacity:1" fill="#fef4f4" d="M 166.5,458.5 C 168.581,470.95 170.081,483.617 171,496.5C 171.833,497.333 172.667,498.167 173.5,499C 199.969,501.132 199.969,502.799 173.5,504C 169.402,509.583 165.236,509.75 161,504.5C 159.965,501.351 160.632,498.684 163,496.5C 164.366,483.845 165.532,471.179 166.5,458.5 Z"/></g>
<g><path style="opacity:1" fill="#0190ae" d="M 667.5,467.5 C 672.893,469.931 678.56,471.265 684.5,471.5C 682.155,481.202 678.822,490.535 674.5,499.5C 669.986,489.43 667.653,478.763 667.5,467.5 Z"/></g>
<g><path style="opacity:1" fill="#fefefe" d="M 586.5,503.5 C 574.167,503.5 561.833,503.5 549.5,503.5C 547.353,502.068 547.02,500.235 548.5,498C 561.5,497.333 574.5,497.333 587.5,498C 588.98,500.235 588.647,502.068 586.5,503.5 Z"/></g>
<g><path style="opacity:1" fill="#7fd7e0" d="M 549.5,503.5 C 561.833,503.5 574.167,503.5 586.5,503.5C 585.833,504.167 585.167,504.833 584.5,505.5C 573.5,505.5 562.5,505.5 551.5,505.5C 550.833,504.833 550.167,504.167 549.5,503.5 Z"/></g>
<g><path style="opacity:1" fill="#fefefe" d="M 551.5,505.5 C 562.5,505.5 573.5,505.5 584.5,505.5C 586.582,506.585 586.916,508.085 585.5,510C 573.833,510.667 562.167,510.667 550.5,510C 549.084,508.085 549.418,506.585 551.5,505.5 Z"/></g>
<g><path style="opacity:1" fill="#f8fdfd" d="M 550.5,512.5 C 562.171,512.333 573.838,512.5 585.5,513C 586.833,514.667 586.833,516.333 585.5,518C 574.167,518.667 562.833,518.667 551.5,518C 549.365,516.444 549.032,514.611 550.5,512.5 Z"/></g>
<g><path style="opacity:0.996" fill="#f4f6f6" d="M 617.5,555.5 C 617.5,570.833 617.5,586.167 617.5,601.5C 626.198,600.264 632.365,603.597 636,611.5C 636.499,616.489 636.666,621.489 636.5,626.5C 640.936,626.21 645.27,626.71 649.5,628C 651.385,630.222 653.551,632.056 656,633.5C 673.392,622.036 690.892,621.869 708.5,633C 719.118,642.068 724.451,653.568 724.5,667.5C 723.903,667.735 723.57,668.235 723.5,669C 725.805,673.937 727.138,679.103 727.5,684.5C 726.557,696.432 724.223,708.099 720.5,719.5C 716.162,726.708 710.162,733.208 702.5,739C 685.65,747.555 669.817,746.055 655,734.5C 649.802,742.352 642.468,745.352 633,743.5C 626.329,744.282 620.163,742.949 614.5,739.5C 611.95,740.942 609.284,742.108 606.5,743C 599.167,743.667 591.833,743.667 584.5,743C 581.55,741.286 578.55,741.286 575.5,743C 567.833,743.667 560.167,743.667 552.5,743C 549.379,742.274 546.713,740.774 544.5,738.5C 538.632,742.931 531.965,744.597 524.5,743.5C 518.162,743.996 512.162,742.996 506.5,740.5C 503.93,741.617 501.263,742.45 498.5,743C 476.5,743.667 454.5,743.667 432.5,743C 430.833,742.167 429.167,741.333 427.5,740.5C 425.833,741.333 424.167,742.167 422.5,743C 406.5,743.667 390.5,743.667 374.5,743C 373.128,742.598 371.795,742.098 370.5,741.5C 369.205,742.098 367.872,742.598 366.5,743C 350.833,743.667 335.167,743.667 319.5,743C 316.751,741.877 314.251,740.377 312,738.5C 309.531,740.652 306.698,742.152 303.5,743C 292.505,743.5 281.505,743.667 270.5,743.5C 265.811,743.916 261.311,743.249 257,741.5C 247.974,744.134 238.974,744.134 230,741.5C 228.5,742 227,742.5 225.5,743C 217.5,743.667 209.5,743.667 201.5,743C 196.667,740.833 193.167,737.333 191,732.5C 190.476,726.15 190.642,719.816 191.5,713.5C 193.046,701.665 194.379,689.665 195.5,677.5C 195.5,674.5 195.5,671.5 195.5,668.5C 194.5,668.5 193.5,668.5 192.5,668.5C 194.087,658.012 196.253,647.678 199,637.5C 200.406,632.427 203.572,628.927 208.5,627C 227.876,626.973 247.209,626.807 266.5,626.5C 268.167,626.5 269.833,626.5 271.5,626.5C 271.831,602.328 271.498,578.328 270.5,554.5C 269.996,548.484 270.996,542.817 273.5,537.5C 276.004,535.856 278.671,534.356 281.5,533C 291.167,532.333 300.833,532.333 310.5,533C 319.949,534.093 328.616,537.26 336.5,542.5C 339.378,538.458 343.045,535.291 347.5,533C 356.167,532.333 364.833,532.333 373.5,533C 378.185,534.35 381.685,537.183 384,541.5C 385.41,540.213 386.91,539.046 388.5,538C 403.543,529.852 418.876,529.352 434.5,536.5C 435.688,537.364 436.855,538.364 438,539.5C 440.803,535.354 444.636,532.854 449.5,532C 458.94,531.656 468.274,531.49 477.5,531.5C 493.759,532.319 510.093,532.819 526.5,533C 528.519,533.45 530.352,534.283 532,535.5C 533.419,534.54 534.919,533.707 536.5,533C 544.853,532.832 553.187,532.332 561.5,531.5C 559.914,529.827 559.247,527.827 559.5,525.5C 556.813,525.664 554.146,525.497 551.5,525C 548.833,523.333 548.833,521.667 551.5,520C 562.833,519.333 574.167,519.333 585.5,520C 586.833,521.667 586.833,523.333 585.5,525C 582.774,525.182 580.107,525.682 577.5,526.5C 576.995,529.188 575.662,531.355 573.5,533C 566.815,533.502 566.148,535.335 571.5,538.5C 573.754,536.081 576.421,534.248 579.5,533C 588.909,532.083 598.242,532.416 607.5,534C 609.587,534.792 611.421,535.959 613,537.5C 615.799,543.28 617.299,549.28 617.5,555.5 Z"/></g>
<g><path style="opacity:1" fill="#083958" d="M 406.5,541.5 C 422.71,540.437 433.376,547.604 438.5,563C 438.167,563.5 437.833,564 437.5,564.5C 432.581,566.796 427.581,568.796 422.5,570.5C 421.228,559.864 415.561,556.364 405.5,560C 399.676,567.453 397.343,575.953 398.5,585.5C 397.764,594.445 399.597,602.778 404,610.5C 409.333,614.5 414.667,614.5 420,610.5C 423.008,605.947 424.174,600.947 423.5,595.5C 418.5,595.5 413.5,595.5 408.5,595.5C 408.5,590.5 408.5,585.5 408.5,580.5C 419.167,580.5 429.833,580.5 440.5,580.5C 441.867,593.161 439.701,605.161 434,616.5C 424.214,630.542 411.714,633.709 396.5,626C 388.126,618.754 383.293,609.588 382,598.5C 380.428,585.153 381.762,572.153 386,559.5C 390.256,550.402 397.089,544.402 406.5,541.5 Z"/></g>
<g><path style="opacity:1" fill="#7d98a6" d="M 522.5,558.5 C 522.5,553.5 522.5,548.5 522.5,543.5C 508.167,543.5 493.833,543.5 479.5,543.5C 479.5,548.5 479.5,553.5 479.5,558.5C 478.512,553.36 478.179,548.026 478.5,542.5C 493.5,542.5 508.5,542.5 523.5,542.5C 523.821,548.026 523.488,553.36 522.5,558.5 Z"/></g>
<g><path style="opacity:1" fill="#073957" d="M 286.5,542.5 C 330.474,539.703 347.974,560.037 339,603.5C 334.688,618.403 324.855,626.903 309.5,629C 301.841,629.5 294.174,629.666 286.5,629.5C 286.5,600.5 286.5,571.5 286.5,542.5 Z"/></g>
<g><path style="opacity:1" fill="#a2b5bf" d="M 351.5,542.5 C 357.833,542.5 364.167,542.5 370.5,542.5C 370.5,571.5 370.5,600.5 370.5,629.5C 364.167,629.5 357.833,629.5 351.5,629.5C 351.5,600.5 351.5,571.5 351.5,542.5 Z"/></g>
<g><path style="opacity:1" fill="#033656" d="M 352.5,543.5 C 358.167,543.5 363.833,543.5 369.5,543.5C 369.5,571.833 369.5,600.167 369.5,628.5C 363.833,628.5 358.167,628.5 352.5,628.5C 352.5,600.167 352.5,571.833 352.5,543.5 Z"/></g>
<g><path style="opacity:1" fill="#9eb1bc" d="M 451.5,542.5 C 457.833,542.5 464.167,542.5 470.5,542.5C 470.5,571.5 470.5,600.5 470.5,629.5C 464.167,629.5 457.833,629.5 451.5,629.5C 451.5,600.5 451.5,571.5 451.5,542.5 Z"/></g>
<g><path style="opacity:1" fill="#033656" d="M 452.5,543.5 C 458.167,543.5 463.833,543.5 469.5,543.5C 469.5,571.833 469.5,600.167 469.5,628.5C 463.833,628.5 458.167,628.5 452.5,628.5C 452.5,600.167 452.5,571.833 452.5,543.5 Z"/></g>
<g><path style="opacity:1" fill="#033656" d="M 522.5,558.5 C 518.167,558.5 513.833,558.5 509.5,558.5C 509.5,581.833 509.5,605.167 509.5,628.5C 503.833,628.5 498.167,628.5 492.5,628.5C 492.5,605.167 492.5,581.833 492.5,558.5C 488.167,558.5 483.833,558.5 479.5,558.5C 479.5,553.5 479.5,548.5 479.5,543.5C 493.833,543.5 508.167,543.5 522.5,543.5C 522.5,548.5 522.5,553.5 522.5,558.5 Z"/></g>
<g><path style="opacity:1" fill="#0a3a59" d="M 577.5,627.5 C 572.025,628.489 566.358,628.822 560.5,628.5C 559.963,623.814 559.296,619.147 558.5,614.5C 552.5,614.5 546.5,614.5 540.5,614.5C 539.193,619.066 538.526,623.733 538.5,628.5C 532.402,629.117 526.735,628.45 521.5,626.5C 528.148,598.575 534.481,570.575 540.5,542.5C 546.758,542.19 552.924,542.524 559,543.5C 565.615,571.411 571.782,599.411 577.5,627.5 Z"/></g>
<g><path style="opacity:1" fill="#aebec8" d="M 601.5,543.5 C 595.833,543.5 590.167,543.5 584.5,543.5C 584.5,571.833 584.5,600.167 584.5,628.5C 584.5,628.833 584.5,629.167 584.5,629.5C 583.502,600.671 583.169,571.671 583.5,542.5C 589.69,542.177 595.69,542.51 601.5,543.5 Z"/></g>
<g><path style="opacity:1" fill="#043756" d="M 601.5,543.5 C 601.5,566.5 601.5,589.5 601.5,612.5C 607.833,612.5 614.167,612.5 620.5,612.5C 620.5,617.833 620.5,623.167 620.5,628.5C 608.5,628.5 596.5,628.5 584.5,628.5C 584.5,600.167 584.5,571.833 584.5,543.5C 590.167,543.5 595.833,543.5 601.5,543.5 Z"/></g>
<g><path style="opacity:0.955" fill="#cbcbcc" d="M 270.5,554.5 C 271.498,578.328 271.831,602.328 271.5,626.5C 269.833,626.5 268.167,626.5 266.5,626.5C 266.333,604.497 266.5,582.497 267,560.5C 267.926,558.308 269.093,556.308 270.5,554.5 Z"/></g>
<g><path style="opacity:1" fill="#f3f4f5" d="M 303.5,558.5 C 314.436,558.929 320.936,564.595 323,575.5C 323.812,583.222 323.478,590.889 322,598.5C 319.893,608.436 313.726,613.436 303.5,613.5C 303.5,595.167 303.5,576.833 303.5,558.5 Z"/></g>
<g><path style="opacity:1" fill="#a6b7c2" d="M 479.5,558.5 C 483.833,558.5 488.167,558.5 492.5,558.5C 492.5,581.833 492.5,605.167 492.5,628.5C 498.167,628.5 503.833,628.5 509.5,628.5C 503.69,629.49 497.69,629.823 491.5,629.5C 491.5,606.167 491.5,582.833 491.5,559.5C 487.298,559.817 483.298,559.483 479.5,558.5 Z"/></g>
<g><path style="opacity:1" fill="#e3e8ea" d="M 549.5,561.5 C 551.24,574.358 552.906,587.358 554.5,600.5C 550.774,600.823 547.107,600.489 543.5,599.5C 545.784,586.842 547.784,574.175 549.5,561.5 Z"/></g>
<g><path style="opacity:1" fill="#678698" d="M 521.5,626.5 C 526.735,628.45 532.402,629.117 538.5,628.5C 532.69,629.49 526.69,629.823 520.5,629.5C 520.263,628.209 520.596,627.209 521.5,626.5 Z"/></g>
<g><path style="opacity:1" fill="#668597" d="M 577.5,627.5 C 578.043,627.56 578.376,627.893 578.5,628.5C 572.346,629.817 566.346,629.817 560.5,628.5C 566.358,628.822 572.025,628.489 577.5,627.5 Z"/></g>
<g><path style="opacity:1" fill="#698799" d="M 620.5,612.5 C 621.489,617.975 621.822,623.642 621.5,629.5C 609.167,629.5 596.833,629.5 584.5,629.5C 584.5,629.167 584.5,628.833 584.5,628.5C 596.5,628.5 608.5,628.5 620.5,628.5C 620.5,623.167 620.5,617.833 620.5,612.5 Z"/></g>
<g><path style="opacity:1" fill="#12b2c4" d="M 674.5,636.5 C 692.231,633.528 703.898,640.528 709.5,657.5C 704.537,660.565 699.371,663.231 694,665.5C 691.999,654.107 685.833,650.607 675.5,655C 673.623,657.251 672.123,659.751 671,662.5C 669.443,672.106 669.109,681.772 670,691.5C 670.481,698.639 673.648,704.139 679.5,708C 684.826,708.888 688.993,707.055 692,702.5C 693.283,698.586 694.116,694.586 694.5,690.5C 689.5,690.5 684.5,690.5 679.5,690.5C 679.5,685.167 679.5,679.833 679.5,674.5C 690.167,674.5 700.833,674.5 711.5,674.5C 713.054,690.654 709.054,705.154 699.5,718C 680.354,730.011 665.854,725.844 656,705.5C 648.656,684.968 650.323,665.301 661,646.5C 664.802,642.037 669.302,638.703 674.5,636.5 Z"/></g>
<g><path style="opacity:1" fill="#14b2c4" d="M 213.5,637.5 C 221.167,637.5 228.833,637.5 236.5,637.5C 238.892,654.854 241.392,672.187 244,689.5C 245.96,672.074 248.46,654.741 251.5,637.5C 259.167,637.5 266.833,637.5 274.5,637.5C 276.944,666.158 279.277,694.824 281.5,723.5C 275.5,723.5 269.5,723.5 263.5,723.5C 262.645,701.171 261.812,678.838 261,656.5C 257.065,678.776 253.565,701.109 250.5,723.5C 246.167,723.5 241.833,723.5 237.5,723.5C 233.955,700.52 230.455,677.52 227,654.5C 225.542,677.489 224.376,700.489 223.5,723.5C 217.5,723.5 211.5,723.5 205.5,723.5C 208.167,694.834 210.833,666.167 213.5,637.5 Z"/></g>
<g><path style="opacity:1" fill="#12b2c4" d="M 303.5,637.5 C 309.833,637.5 316.167,637.5 322.5,637.5C 328.5,666.167 334.5,694.833 340.5,723.5C 334.794,723.829 329.128,723.495 323.5,722.5C 322.244,717.886 321.244,713.219 320.5,708.5C 314.794,708.171 309.128,708.505 303.5,709.5C 302.184,714.066 301.517,718.732 301.5,723.5C 295.5,723.5 289.5,723.5 283.5,723.5C 289.542,694.665 296.209,665.999 303.5,637.5 Z"/></g>
<g><path style="opacity:1" fill="#78d2dc" d="M 369.5,637.5 C 362.167,637.5 354.833,637.5 347.5,637.5C 347.5,666.167 347.5,694.833 347.5,723.5C 346.502,694.671 346.169,665.671 346.5,636.5C 354.352,636.175 362.018,636.508 369.5,637.5 Z"/></g>
<g><path style="opacity:1" fill="#09b1c3" d="M 369.5,637.5 C 385.165,637.832 393.165,645.832 393.5,661.5C 393.646,672.226 388.979,679.893 379.5,684.5C 385.233,697.375 390.567,710.375 395.5,723.5C 389.242,723.81 383.076,723.476 377,722.5C 372.944,711.388 368.61,700.388 364,689.5C 363.5,700.828 363.333,712.162 363.5,723.5C 358.167,723.5 352.833,723.5 347.5,723.5C 347.5,694.833 347.5,666.167 347.5,637.5C 354.833,637.5 362.167,637.5 369.5,637.5 Z"/></g>
<g><path style="opacity:1" fill="#11b2c4" d="M 402.5,636.5 C 408.167,636.5 413.833,636.5 419.5,636.5C 419.333,648.505 419.5,660.505 420,672.5C 425,661.167 430,649.833 435,638.5C 441.111,637.191 447.278,637.191 453.5,638.5C 447.831,651.172 442.164,663.838 436.5,676.5C 442.302,691.907 448.302,707.24 454.5,722.5C 448.202,723.496 441.868,723.83 435.5,723.5C 430.63,710.087 425.464,696.754 420,683.5C 419.5,696.829 419.333,710.163 419.5,723.5C 413.833,723.5 408.167,723.5 402.5,723.5C 402.5,694.5 402.5,665.5 402.5,636.5 Z"/></g>
<g><path style="opacity:1" fill="#13b2c4" d="M 459.5,637.5 C 471.833,637.5 484.167,637.5 496.5,637.5C 496.5,642.833 496.5,648.167 496.5,653.5C 489.833,653.5 483.167,653.5 476.5,653.5C 476.5,659.167 476.5,664.833 476.5,670.5C 482.5,670.5 488.5,670.5 494.5,670.5C 494.5,675.833 494.5,681.167 494.5,686.5C 488.5,686.5 482.5,686.5 476.5,686.5C 476.5,693.167 476.5,699.833 476.5,706.5C 483.167,706.5 489.833,706.5 496.5,706.5C 496.5,712.167 496.5,717.833 496.5,723.5C 484.167,723.5 471.833,723.5 459.5,723.5C 459.5,694.833 459.5,666.167 459.5,637.5 Z"/></g>
<g><path style="opacity:1" fill="#01b1c3" d="M 546.5,637.5 C 546.5,642.833 546.5,648.167 546.5,653.5C 542.167,653.5 537.833,653.5 533.5,653.5C 533.5,676.833 533.5,700.167 533.5,723.5C 527.833,723.5 522.167,723.5 516.5,723.5C 516.5,699.833 516.5,676.167 516.5,652.5C 512.167,652.5 507.833,652.5 503.5,652.5C 503.5,647.5 503.5,642.5 503.5,637.5C 517.833,637.5 532.167,637.5 546.5,637.5 Z"/></g>
<g><path style="opacity:1" fill="#0cb2c3" d="M 555.5,636.5 C 561.5,636.5 567.5,636.5 573.5,636.5C 573.5,665.5 573.5,694.5 573.5,723.5C 567.5,723.5 561.5,723.5 555.5,723.5C 555.5,694.5 555.5,665.5 555.5,636.5 Z"/></g>
<g><path style="opacity:1" fill="#0cb2c4" d="M 587.5,637.5 C 593.758,637.19 599.924,637.524 606,638.5C 612.951,656.735 619.618,675.068 626,693.5C 625.628,674.854 625.462,656.187 625.5,637.5C 630.833,637.5 636.167,637.5 641.5,637.5C 641.5,666.167 641.5,694.833 641.5,723.5C 635.833,723.5 630.167,723.5 624.5,723.5C 617.772,704.819 610.939,686.153 604,667.5C 603.5,686.164 603.333,704.83 603.5,723.5C 598.167,723.5 592.833,723.5 587.5,723.5C 587.5,694.833 587.5,666.167 587.5,637.5 Z"/></g>
<g><path style="opacity:1" fill="#f0f5f5" d="M 363.5,650.5 C 374.903,650.596 379.069,656.263 376,667.5C 373.779,673.09 369.612,675.423 363.5,674.5C 363.5,666.5 363.5,658.5 363.5,650.5 Z"/></g>
<g><path style="opacity:1" fill="#91dae1" d="M 546.5,637.5 C 532.167,637.5 517.833,637.5 503.5,637.5C 503.5,642.5 503.5,647.5 503.5,652.5C 507.833,652.5 512.167,652.5 516.5,652.5C 516.5,676.167 516.5,699.833 516.5,723.5C 515.502,700.339 515.169,677.006 515.5,653.5C 511.167,653.5 506.833,653.5 502.5,653.5C 502.5,647.833 502.5,642.167 502.5,636.5C 517.343,636.171 532.01,636.504 546.5,637.5 Z"/></g>
<g><path style="opacity:1" fill="#ecf4f4" d="M 311.5,657.5 C 313.733,669.658 315.733,681.992 317.5,694.5C 313.833,694.5 310.167,694.5 306.5,694.5C 308.446,682.209 310.113,669.875 311.5,657.5 Z"/></g>
<g><path style="opacity:0.991" fill="#131823" d="M 724.5,667.5 C 733.199,666.509 741.199,668.342 748.5,673C 803.701,729.034 859.034,784.867 914.5,840.5C 914.5,842.833 914.5,845.167 914.5,847.5C 911.672,856.152 905.672,860.986 896.5,862C 601.167,862.667 305.833,862.667 10.5,862C 5.56066,858.956 1.89399,854.789 -0.5,849.5C -0.5,846.5 -0.5,843.5 -0.5,840.5C 46.9687,784.858 94.302,729.025 141.5,673C 144.948,671.073 148.615,669.739 152.5,669C 165.829,668.5 179.163,668.333 192.5,668.5C 193.5,668.5 194.5,668.5 195.5,668.5C 195.5,671.5 195.5,674.5 195.5,677.5C 194.5,677.5 193.5,677.5 192.5,677.5C 186.158,677.334 179.825,677.5 173.5,678C 169.8,678.843 166.8,680.676 164.5,683.5C 126.863,732.649 89.3635,781.982 52,831.5C 49.9338,835.148 51.1005,837.315 55.5,838C 322.501,838.685 589.501,838.352 856.5,837C 858.519,836.55 860.352,835.717 862,834.5C 862.585,833.002 862.085,832.002 860.5,831.5C 816.508,782.175 772.175,733.175 727.5,684.5C 727.138,679.103 725.805,673.937 723.5,669C 723.57,668.235 723.903,667.735 724.5,667.5 Z"/></g>
<g><path style="opacity:1" fill="#fdfdfd" d="M 192.5,677.5 C 191.663,687.533 190.496,697.533 189,707.5C 178.981,701.313 170.814,693.313 164.5,683.5C 166.8,680.676 169.8,678.843 173.5,678C 179.825,677.5 186.158,677.334 192.5,677.5 Z"/></g>
<g><path style="opacity:1" fill="#dbdcdc" d="M 192.5,677.5 C 193.5,677.5 194.5,677.5 195.5,677.5C 194.379,689.665 193.046,701.665 191.5,713.5C 191.785,711.712 191.452,710.045 190.5,708.5C 187.614,722.695 186.447,737.028 187,751.5C 188.833,756 192,759.167 196.5,761C 205.167,761.667 213.833,761.667 222.5,761C 224.5,759 226.5,759 228.5,761C 231.833,761.167 235.167,761.333 238.5,761.5C 259.137,761.433 279.803,761.267 300.5,761C 303.329,759.644 305.996,758.144 308.5,756.5C 309.894,758.708 311.894,760.208 314.5,761C 320.157,761.499 325.824,761.666 331.5,761.5C 403.883,779.341 477.216,793.174 551.5,803C 648.138,816.212 745.138,825.879 842.5,832C 848.681,832.819 854.681,832.653 860.5,831.5C 862.085,832.002 862.585,833.002 862,834.5C 860.352,835.717 858.519,836.55 856.5,837C 589.501,838.352 322.501,838.685 55.5,838C 51.1005,837.315 49.9338,835.148 52,831.5C 89.3635,781.982 126.863,732.649 164.5,683.5C 170.814,693.313 178.981,701.313 189,707.5C 190.496,697.533 191.663,687.533 192.5,677.5 Z"/></g>
<g><path style="opacity:1" fill="#fefefe" d="M 727.5,684.5 C 772.175,733.175 816.508,782.175 860.5,831.5C 854.681,832.653 848.681,832.819 842.5,832C 745.138,825.879 648.138,816.212 551.5,803C 477.216,793.174 403.883,779.341 331.5,761.5C 360.133,761.162 388.8,760.995 417.5,761C 420.866,759.121 424.2,759.121 427.5,761C 450.5,761.667 473.5,761.667 496.5,761C 498.274,760.03 500.107,759.196 502,758.5C 503.63,759.713 505.464,760.546 507.5,761C 516.167,761.667 524.833,761.667 533.5,761C 536.102,760.117 538.269,758.617 540,756.5C 541.731,758.617 543.898,760.117 546.5,761C 555.5,761.667 564.5,761.667 573.5,761C 575.167,759 576.833,759 578.5,761C 586.833,761.667 595.167,761.667 603.5,761C 605.762,759.953 607.929,758.787 610,757.5C 615.781,760.987 622.115,762.32 629,761.5C 638.042,763.548 645.209,760.881 650.5,753.5C 664.885,763.744 680.218,765.244 696.5,758C 710.432,748.988 718.432,736.155 720.5,719.5C 724.223,708.099 726.557,696.432 727.5,684.5 Z"/></g>
<g><path style="opacity:1" fill="#adaeaf" d="M 191.5,713.5 C 190.642,719.816 190.476,726.15 191,732.5C 193.167,737.333 196.667,740.833 201.5,743C 209.5,743.667 217.5,743.667 225.5,743C 227,742.5 228.5,742 230,741.5C 238.974,744.134 247.974,744.134 257,741.5C 261.311,743.249 265.811,743.916 270.5,743.5C 283.028,748.232 295.695,752.565 308.5,756.5C 305.996,758.144 303.329,759.644 300.5,761C 279.803,761.267 259.137,761.433 238.5,761.5C 235.167,761.333 231.833,761.167 228.5,761C 226.5,759 224.5,759 222.5,761C 213.833,761.667 205.167,761.667 196.5,761C 192,759.167 188.833,756 187,751.5C 186.447,737.028 187.614,722.695 190.5,708.5C 191.452,710.045 191.785,711.712 191.5,713.5 Z"/></g>
<g><path style="opacity:1" fill="#c9c9ca" d="M 720.5,719.5 C 718.432,736.155 710.432,748.988 696.5,758C 680.218,765.244 664.885,763.744 650.5,753.5C 645.209,760.881 638.042,763.548 629,761.5C 622.115,762.32 615.781,760.987 610,757.5C 607.929,758.787 605.762,759.953 603.5,761C 595.167,761.667 586.833,761.667 578.5,761C 576.833,759 575.167,759 573.5,761C 564.5,761.667 555.5,761.667 546.5,761C 543.898,760.117 541.731,758.617 540,756.5C 538.269,758.617 536.102,760.117 533.5,761C 524.833,761.667 516.167,761.667 507.5,761C 505.464,760.546 503.63,759.713 502,758.5C 500.107,759.196 498.274,760.03 496.5,761C 473.5,761.667 450.5,761.667 427.5,761C 424.2,759.121 420.866,759.121 417.5,761C 388.8,760.995 360.133,761.162 331.5,761.5C 325.824,761.666 320.157,761.499 314.5,761C 311.894,760.208 309.894,758.708 308.5,756.5C 295.695,752.565 283.028,748.232 270.5,743.5C 281.505,743.667 292.505,743.5 303.5,743C 306.698,742.152 309.531,740.652 312,738.5C 314.251,740.377 316.751,741.877 319.5,743C 335.167,743.667 350.833,743.667 366.5,743C 367.872,742.598 369.205,742.098 370.5,741.5C 371.795,742.098 373.128,742.598 374.5,743C 390.5,743.667 406.5,743.667 422.5,743C 424.167,742.167 425.833,741.333 427.5,740.5C 429.167,741.333 430.833,742.167 432.5,743C 454.5,743.667 476.5,743.667 498.5,743C 501.263,742.45 503.93,741.617 506.5,740.5C 512.162,742.996 518.162,743.996 524.5,743.5C 531.965,744.597 538.632,742.931 544.5,738.5C 546.713,740.774 549.379,742.274 552.5,743C 560.167,743.667 567.833,743.667 575.5,743C 578.55,741.286 581.55,741.286 584.5,743C 591.833,743.667 599.167,743.667 606.5,743C 609.284,742.108 611.95,740.942 614.5,739.5C 620.163,742.949 626.329,744.282 633,743.5C 642.468,745.352 649.802,742.352 655,734.5C 669.817,746.055 685.65,747.555 702.5,739C 710.162,733.208 716.162,726.708 720.5,719.5 Z"/></g>
<g><path style="opacity:0.999" fill="#000000" d="M 914.5,847.5 C 914.5,865.5 914.5,883.5 914.5,901.5C 609.5,901.5 304.5,901.5 -0.5,901.5C -0.5,884.167 -0.5,866.833 -0.5,849.5C 1.89399,854.789 5.56066,858.956 10.5,862C 305.833,862.667 601.167,862.667 896.5,862C 905.672,860.986 911.672,856.152 914.5,847.5 Z"/></g>
</svg>
