<?xml version="1.0" encoding="UTF-8"?>
<!DOCTYPE svg PUBLIC "-//W3C//DTD SVG 1.1//EN" "http://www.w3.org/Graphics/SVG/1.1/DTD/svg11.dtd">
<svg xmlns="http://www.w3.org/2000/svg" version="1.1" width="500px" height="500px" style="shape-rendering:geometricPrecision; text-rendering:geometricPrecision; image-rendering:optimizeQuality; fill-rule:evenodd; clip-rule:evenodd" xmlns:xlink="http://www.w3.org/1999/xlink">
<g><path style="opacity:1" fill="#94b4d6" d="M 443.5,175.5 C 442.833,175.5 442.167,175.5 441.5,175.5C 433.202,174.426 424.868,174.26 416.5,175C 415.956,175.717 415.289,176.217 414.5,176.5C 411.029,175.897 408.695,177.564 407.5,181.5C 407.624,182.107 407.957,182.44 408.5,182.5C 406.93,186.484 405.597,190.65 404.5,195C 404.5,203 404.5,211 404.5,219C 404.863,221.509 405.863,223.676 407.5,225.5C 407.093,230.783 409.76,233.783 415.5,234.5C 417.117,235.038 418.784,235.371 420.5,235.5C 420.5,240.167 420.5,244.833 420.5,249.5C 421.5,249.5 422.5,249.5 423.5,249.5C 423.5,252.5 423.5,255.5 423.5,258.5C 422.167,258.5 420.833,258.5 419.5,258.5C 419.5,263.833 419.5,269.167 419.5,274.5C 425.167,274.5 430.833,274.5 436.5,274.5C 436.5,269.167 436.5,263.833 436.5,258.5C 435.5,258.5 434.5,258.5 433.5,258.5C 433.5,255.5 433.5,252.5 433.5,249.5C 434.5,249.5 435.5,249.5 436.5,249.5C 436.334,244.821 436.501,240.155 437,235.5C 438.47,234.733 439.97,234.067 441.5,233.5C 446.211,233.463 448.877,230.797 449.5,225.5C 449.5,224.5 449.5,223.5 449.5,222.5C 450.833,222.5 452.167,222.5 453.5,222.5C 453.5,220.5 453.5,218.5 453.5,216.5C 452.5,216.5 451.5,216.5 450.5,216.5C 450.5,214.5 450.5,212.5 450.5,210.5C 451.833,210.5 453.167,210.5 454.5,210.5C 461.383,246.07 459.216,281.07 448,315.5C 447.042,307.689 445.209,300.189 442.5,293C 427.498,294.953 412.498,297.287 397.5,300C 396.584,300.374 395.75,300.874 395,301.5C 398.352,327.948 402.686,354.282 408,380.5C 409.022,381.354 409.855,382.354 410.5,383.5C 405.145,389.187 399.812,394.854 394.5,400.5C 393.373,401.122 392.373,401.955 391.5,403C 360.835,403.5 330.168,403.667 299.5,403.5C 299.176,419.078 299.509,434.578 300.5,450C 299.255,450.791 297.922,451.291 296.5,451.5C 287.351,452.75 278.351,454.083 269.5,455.5C 258.252,455.821 247.085,455.487 236,454.5C 235.667,429.5 235.333,404.5 235,379.5C 234.5,379 234,378.5 233.5,378C 193.833,377.333 154.167,377.333 114.5,378C 113.584,378.374 112.75,378.874 112,379.5C 111.667,384.833 111.333,390.167 111,395.5C 99.1157,383.79 88.9491,370.79 80.5,356.5C 81.325,355.614 82.325,355.281 83.5,355.5C 83.5,337.5 83.5,319.5 83.5,301.5C 87.5,301.5 91.5,301.5 95.5,301.5C 95.5,298.167 95.5,294.833 95.5,291.5C 103.684,291.826 111.684,291.492 119.5,290.5C 120.483,286.702 120.817,282.702 120.5,278.5C 122.833,278.5 125.167,278.5 127.5,278.5C 127.5,293.833 127.5,309.167 127.5,324.5C 163.5,324.5 199.5,324.5 235.5,324.5C 235.5,331.5 235.5,338.5 235.5,345.5C 203.833,345.5 172.167,345.5 140.5,345.5C 140.5,349.5 140.5,353.5 140.5,357.5C 215.833,357.5 291.167,357.5 366.5,357.5C 366.5,353.5 366.5,349.5 366.5,345.5C 334.833,345.5 303.167,345.5 271.5,345.5C 271.5,338.5 271.5,331.5 271.5,324.5C 307.5,324.5 343.5,324.5 379.5,324.5C 379.5,269.5 379.5,214.5 379.5,159.5C 369.5,159.5 359.5,159.5 349.5,159.5C 347.809,153.405 345.809,147.405 343.5,141.5C 337.633,140.233 331.799,140.233 326,141.5C 324.147,137.615 322.48,133.615 321,129.5C 317.267,127.605 314.767,128.605 313.5,132.5C 316.985,141.284 319.651,150.284 321.5,159.5C 304.167,159.5 286.833,159.5 269.5,159.5C 269.433,158.041 269.766,156.708 270.5,155.5C 271.265,152.904 271.599,150.237 271.5,147.5C 277.545,147.29 280.878,144.124 281.5,138C 280.842,133.483 278.175,130.983 273.5,130.5C 273.167,129.833 272.833,129.167 272.5,128.5C 273.852,125.133 274.518,121.633 274.5,118C 273.325,112.83 272.159,107.663 271,102.5C 267.214,96.5585 261.714,94.0585 254.5,95C 247.27,90.1729 240.27,90.5062 233.5,96C 223.887,94.787 218.553,98.9536 217.5,108.5C 213.843,110.48 212.343,113.48 213,117.5C 214.587,121.713 216.087,125.88 217.5,130C 208.567,133.319 207.233,138.652 213.5,146C 215.345,147.128 217.345,147.628 219.5,147.5C 219.616,150.86 219.949,154.193 220.5,157.5C 189.5,158.167 158.5,158.833 127.5,159.5C 127.5,188.5 127.5,217.5 127.5,246.5C 125.167,246.5 122.833,246.5 120.5,246.5C 120.817,242.298 120.483,238.298 119.5,234.5C 111.684,233.508 103.684,233.174 95.5,233.5C 95.5,228.5 95.5,223.5 95.5,218.5C 82.1667,218.5 68.8333,218.5 55.5,218.5C 55.5,223.5 55.5,228.5 55.5,233.5C 54.5,233.5 53.5,233.5 52.5,233.5C 53.1459,223.79 54.8126,214.29 57.5,205C 59.3201,205.746 60.9867,207.079 62.5,209C 74.8333,209.667 87.1667,209.667 99.5,209C 103.5,204.333 103.5,199.667 99.5,195C 87.1667,194.333 74.8333,194.333 62.5,195C 61.6195,195.708 60.9528,196.542 60.5,197.5C 59.9033,197.265 59.5699,196.765 59.5,196C 66.5333,171.933 77.5333,149.933 92.5,130C 103.586,133.663 114.586,132.996 125.5,128C 130.427,125.62 135.261,123.12 140,120.5C 141.303,120.978 142.469,121.645 143.5,122.5C 147.194,129.202 151.86,135.202 157.5,140.5C 158.5,140.167 159.167,139.5 159.5,138.5C 155.42,130.671 151.087,123.004 146.5,115.5C 157.085,103.725 160.585,90.0582 157,74.5C 200.101,50.5507 245.935,43.384 294.5,53C 311.831,56.4994 328.498,61.9994 344.5,69.5C 344.833,70.6667 345.167,71.8333 345.5,73C 342.734,86.4187 340.901,99.9187 340,113.5C 340.903,114.701 342.069,115.535 343.5,116C 367.872,120.177 392.205,124.51 416.5,129C 427.755,143.113 436.755,158.613 443.5,175.5 Z"/></g>
<g><path style="opacity:0.991" fill="#222f48" d="M 446.5,177.5 C 445.5,176.833 444.5,176.167 443.5,175.5C 436.755,158.613 427.755,143.113 416.5,129C 392.205,124.51 367.872,120.177 343.5,116C 342.069,115.535 340.903,114.701 340,113.5C 340.901,99.9187 342.734,86.4187 345.5,73C 345.167,71.8333 344.833,70.6667 344.5,69.5C 328.498,61.9994 311.831,56.4994 294.5,53C 245.935,43.384 200.101,50.5507 157,74.5C 160.585,90.0582 157.085,103.725 146.5,115.5C 151.087,123.004 155.42,130.671 159.5,138.5C 159.167,139.5 158.5,140.167 157.5,140.5C 151.86,135.202 147.194,129.202 143.5,122.5C 142.469,121.645 141.303,120.978 140,120.5C 135.261,123.12 130.427,125.62 125.5,128C 114.586,132.996 103.586,133.663 92.5,130C 77.5333,149.933 66.5333,171.933 59.5,196C 59.5699,196.765 59.9033,197.265 60.5,197.5C 59.9101,198.766 59.4101,200.099 59,201.5C 58.8019,199.618 58.3019,197.952 57.5,196.5C 64.2382,171.692 75.2382,149.025 90.5,128.5C 72.4438,113.831 66.2771,95.1644 72,72.5C 81.2342,53.8044 96.4009,44.1377 117.5,43.5C 130.072,44.2031 140.239,49.5364 148,59.5C 150.917,63.6661 153.584,67.9994 156,72.5C 218.245,39.8491 281.412,38.1825 345.5,67.5C 347.867,58.97 349.7,50.3034 351,41.5C 351.998,39.0786 353.832,37.7453 356.5,37.5C 388.815,43.2747 421.148,48.9413 453.5,54.5C 454.833,54.3333 456.167,54.1667 457.5,54C 460.833,51.3333 464.167,48.6667 467.5,46C 472.496,45.3357 474.33,47.5023 473,52.5C 469.667,55.1667 466.333,57.8333 463,60.5C 458.774,84.1864 454.441,107.853 450,131.5C 448.527,133.007 446.693,133.674 444.5,133.5C 436.451,132.213 428.451,131.046 420.5,130C 431.364,144.557 440.031,160.39 446.5,177.5 Z M 102.5,104.5 C 105.247,104.187 107.914,104.52 110.5,105.5C 106.877,109.625 103.043,113.625 99,117.5C 96.6652,112.183 97.8319,107.85 102.5,104.5 Z"/></g>
<g><path style="opacity:1" fill="#f69c89" d="M 269.5,152.5 C 266.771,166.389 258.271,173.722 244,174.5C 239.18,174.058 234.68,172.725 230.5,170.5C 226.964,166.79 224.464,162.456 223,157.5C 220.747,147.947 220.08,138.28 221,128.5C 224.383,123.725 227.216,118.725 229.5,113.5C 233.797,114.943 237.963,114.609 242,112.5C 248.351,118.289 255.184,118.955 262.5,114.5C 263.943,120.053 266.443,125.053 270,129.5C 270.691,137.195 270.525,144.861 269.5,152.5 Z"/></g>
<g><path style="opacity:1" fill="#7fa2c7" d="M 140.5,106.5 C 145.888,116.94 151.555,127.273 157.5,137.5C 157.333,137.833 157.167,138.167 157,138.5C 152.719,132.91 148.219,127.577 143.5,122.5C 141.984,119.467 139.984,116.8 137.5,114.5C 135.738,113.738 134.738,112.404 134.5,110.5C 133.167,107.833 131.833,105.167 130.5,102.5C 132.258,102.123 133.925,101.456 135.5,100.5C 137.175,102.531 138.841,104.531 140.5,106.5 Z"/></g>
<g><path style="opacity:1" fill="#f4878c" d="M 450.5,69.5 C 447.208,71.4581 444.208,73.7915 441.5,76.5C 438.755,77.7372 436.422,79.5705 434.5,82C 432.248,81.9504 430.582,80.7837 429.5,78.5C 431.827,76.8394 433.827,74.8394 435.5,72.5C 439.727,70.2153 443.393,67.2153 446.5,63.5C 448.749,62.9202 450.415,61.5869 451.5,59.5C 457.464,55.2163 463.464,50.883 469.5,46.5C 471.046,47.2116 472.046,48.3783 472.5,50C 465.333,56.6662 457.999,63.1662 450.5,69.5 Z"/></g>
<g><path style="opacity:1" fill="#ebd7d0" d="M 140.5,106.5 C 137.13,98.9121 133.464,91.4121 129.5,84C 126.034,85.066 122.701,86.7327 119.5,89C 118.833,89.6667 118.167,90.3333 117.5,91C 123.405,97.3971 129.071,103.897 134.5,110.5C 134.738,112.404 135.738,113.738 137.5,114.5C 137.511,116.017 138.177,117.184 139.5,118C 125.93,128.48 110.93,131.813 94.5,128C 82.6469,120.795 75.4802,110.295 73,96.5C 69.4686,74.7257 77.6353,59.2257 97.5,50C 126.052,40.3592 145.219,49.8592 155,78.5C 156.545,88.286 155.212,97.6194 151,106.5C 149.691,108.976 147.858,110.976 145.5,112.5C 143.825,110.469 142.159,108.469 140.5,106.5 Z M 102.5,104.5 C 97.8319,107.85 96.6652,112.183 99,117.5C 103.043,113.625 106.877,109.625 110.5,105.5C 107.914,104.52 105.247,104.187 102.5,104.5 Z"/></g>
<g><path style="opacity:1" fill="#28334b" d="M 102.5,101.5 C 114.679,101.172 119.179,106.838 116,118.5C 112.212,123.153 107.378,124.653 101.5,123C 99,121.833 97.1667,120 96,117.5C 95.3333,114.167 95.3333,110.833 96,107.5C 98.0627,105.266 100.229,103.266 102.5,101.5 Z M 102.5,104.5 C 97.8319,107.85 96.6652,112.183 99,117.5C 103.043,113.625 106.877,109.625 110.5,105.5C 107.914,104.52 105.247,104.187 102.5,104.5 Z"/></g>
<g><path style="opacity:1" fill="#8faed0" d="M 112.5,106.5 C 116.304,110.512 116.471,114.845 113,119.5C 108.948,121.942 104.781,122.109 100.5,120C 105.079,115.926 109.079,111.426 112.5,106.5 Z"/></g>
<g><path style="opacity:1" fill="#3a4453" d="M 140.5,106.5 C 138.841,104.531 137.175,102.531 135.5,100.5C 133.925,101.456 132.258,102.123 130.5,102.5C 131.833,105.167 133.167,107.833 134.5,110.5C 129.071,103.897 123.405,97.3971 117.5,91C 118.167,90.3333 118.833,89.6667 119.5,89C 122.701,86.7327 126.034,85.066 129.5,84C 133.464,91.4121 137.13,98.9121 140.5,106.5 Z"/></g>
<g><path style="opacity:1" fill="#dddcb9" d="M 130.5,102.5 C 126.385,99.2156 122.718,95.3823 119.5,91C 120.167,90.3333 120.833,90.3333 121.5,91C 122.705,92.3756 124.038,93.5423 125.5,94.5C 124.952,92.6064 123.952,90.9397 122.5,89.5C 122.833,89.1667 123.167,88.8333 123.5,88.5C 125.333,90.8333 127.167,93.1667 129,95.5C 128.304,92.9332 127.138,90.4332 125.5,88C 125.833,87.5 126.167,87 126.5,86.5C 127.584,87.6651 128.417,88.9984 129,90.5C 129.333,89.5 129.667,88.5 130,87.5C 130.833,89.1667 131.667,90.8333 132.5,92.5C 131.833,92.8333 131.167,93.1667 130.5,93.5C 131.035,95.2705 131.869,95.6039 133,94.5C 133.944,95.263 134.444,96.263 134.5,97.5C 133.677,99.5773 132.344,101.244 130.5,102.5 Z"/></g>
<g><path style="opacity:1" fill="#404b55" d="M 125.5,94.5 C 127.757,95.5618 128.923,97.2285 129,99.5C 127.198,98.2107 126.031,96.5441 125.5,94.5 Z"/></g>
<g><path style="opacity:1" fill="#f4e852" d="M 89.5,73.5 C 96.4649,73.961 99.6316,77.6277 99,84.5C 96.5647,89.2238 92.7314,90.7238 87.5,89C 83.7885,86.487 82.6218,82.987 84,78.5C 85.3516,76.251 87.1849,74.5844 89.5,73.5 Z"/></g>
<g><path style="opacity:1" fill="#aecae6" d="M 104.5,57.5 C 111.985,57.4831 115.485,61.1498 115,68.5C 112.565,73.2238 108.731,74.7238 103.5,73C 98.0344,67.434 98.3678,62.2673 104.5,57.5 Z"/></g>
<g><path style="opacity:1" fill="#fea7aa" d="M 127.5,57.5 C 138.055,56.8713 141.388,61.3713 137.5,71C 128.479,74.9494 123.979,72.116 124,62.5C 124.997,60.6769 126.164,59.0103 127.5,57.5 Z"/></g>
<g><path style="opacity:1" fill="#233b54" d="M 451.5,59.5 C 450.415,61.5869 448.749,62.9202 446.5,63.5C 446.953,62.5416 447.619,61.7083 448.5,61C 418.166,55.7859 387.833,50.6192 357.5,45.5C 354.364,66.0181 351.03,86.5181 347.5,107C 347.833,107.833 348.167,108.667 348.5,109.5C 380.086,115.375 411.753,120.709 443.5,125.5C 446.059,108.298 449.059,91.2979 452.5,74.5C 452.351,75.552 452.517,76.552 453,77.5C 453.07,71.8672 455.07,67.2005 459,63.5C 456.35,86.1954 452.517,108.695 447.5,131C 412.78,125.769 378.113,120.102 343.5,114C 342.056,112.874 341.39,111.374 341.5,109.5C 345.394,86.4691 349.394,63.4691 353.5,40.5C 386.265,45.1905 418.931,50.5239 451.5,56.5C 451.5,57.5 451.5,58.5 451.5,59.5 Z"/></g>
<g><path style="opacity:1" fill="#484f63" d="M 446.5,63.5 C 443.393,67.2153 439.727,70.2153 435.5,72.5C 435.209,71.3509 434.376,70.6842 433,70.5C 423.35,69.0415 413.85,67.2081 404.5,65C 414.689,66.0027 424.855,67.5027 435,69.5C 436.167,69.3333 437.333,69.1667 438.5,69C 441.065,66.9205 443.732,65.0872 446.5,63.5 Z"/></g>
<g><path style="opacity:1" fill="#fafbfb" d="M 446.5,63.5 C 443.732,65.0872 441.065,66.9205 438.5,69C 437.333,69.1667 436.167,69.3333 435,69.5C 424.855,67.5027 414.689,66.0027 404.5,65C 413.85,67.2081 423.35,69.0415 433,70.5C 434.376,70.6842 435.209,71.3509 435.5,72.5C 433.804,72.6854 432.471,73.5187 431.5,75C 429.527,75.4955 427.527,75.6621 425.5,75.5C 418.054,73.4825 410.387,72.3158 402.5,72C 409.73,73.9461 417.064,75.4461 424.5,76.5C 429.067,76.2743 429.4,77.7743 425.5,81C 424.333,81.1667 423.167,81.3333 422,81.5C 415.188,80.1342 408.354,79.3008 401.5,79C 408.277,80.6583 415.11,82.1583 422,83.5C 422.5,83.8333 423,84.1667 423.5,84.5C 422.41,85.6086 422.41,86.6086 423.5,87.5C 425.026,87.0057 426.359,86.339 427.5,85.5C 433.185,85.8034 438.852,85.9701 444.5,86C 441.361,85.2457 438.361,84.2457 435.5,83C 438.447,79.9858 442.113,78.6524 446.5,79C 444.256,78.9504 442.589,78.1171 441.5,76.5C 445.363,75.3064 448.363,72.973 450.5,69.5C 452.256,70.5521 452.923,72.2188 452.5,74.5C 449.059,91.2979 446.059,108.298 443.5,125.5C 411.753,120.709 380.086,115.375 348.5,109.5C 348.167,108.667 347.833,107.833 347.5,107C 351.03,86.5181 354.364,66.0181 357.5,45.5C 387.833,50.6192 418.166,55.7859 448.5,61C 447.619,61.7083 446.953,62.5416 446.5,63.5 Z"/></g>
<g><path style="opacity:1" fill="#4b5568" d="M 400.5,86.5 C 401.274,85.8529 402.274,85.5195 403.5,85.5C 416.903,87.6807 430.236,90.1807 443.5,93C 429.083,91.5721 414.749,89.4055 400.5,86.5 Z"/></g>
<g><path style="opacity:1" fill="#454c60" d="M 435.5,72.5 C 433.827,74.8394 431.827,76.8394 429.5,78.5C 430.582,80.7837 432.248,81.9504 434.5,82C 436.422,79.5705 438.755,77.7372 441.5,76.5C 442.589,78.1171 444.256,78.9504 446.5,79C 442.113,78.6524 438.447,79.9858 435.5,83C 438.361,84.2457 441.361,85.2457 444.5,86C 438.852,85.9701 433.185,85.8034 427.5,85.5C 426.359,86.339 425.026,87.0057 423.5,87.5C 422.41,86.6086 422.41,85.6086 423.5,84.5C 423,84.1667 422.5,83.8333 422,83.5C 415.11,82.1583 408.277,80.6583 401.5,79C 408.354,79.3008 415.188,80.1342 422,81.5C 423.167,81.3333 424.333,81.1667 425.5,81C 429.4,77.7743 429.067,76.2743 424.5,76.5C 424.5,75.8333 424.833,75.5 425.5,75.5C 427.527,75.6621 429.527,75.4955 431.5,75C 432.471,73.5187 433.804,72.6854 435.5,72.5 Z"/></g>
<g><path style="opacity:1" fill="#ed848a" d="M 427.5,85.5 C 426.448,85.6495 425.448,85.4828 424.5,85C 425.726,83.3651 427.059,81.8651 428.5,80.5C 429.646,81.1449 430.646,81.9783 431.5,83C 429.934,83.6082 428.6,84.4415 427.5,85.5 Z"/></g>
<g><path style="opacity:1" fill="#465164" d="M 365.5,51.5 C 376.446,53.7558 387.446,55.7558 398.5,57.5C 397.327,67.1906 395.994,76.8572 394.5,86.5C 383.107,85.2678 371.773,83.6012 360.5,81.5C 361.217,71.3092 362.884,61.3092 365.5,51.5 Z"/></g>
<g><path style="opacity:1" fill="#525c6e" d="M 425.5,75.5 C 424.833,75.5 424.5,75.8333 424.5,76.5C 417.064,75.4461 409.73,73.9461 402.5,72C 410.387,72.3158 418.054,73.4825 425.5,75.5 Z"/></g>
<g><path style="opacity:1" fill="#3a3a4f" d="M 450.5,69.5 C 448.363,72.973 445.363,75.3064 441.5,76.5C 444.208,73.7915 447.208,71.4581 450.5,69.5 Z"/></g>
<g><path style="opacity:1" fill="#fcfcfd" d="M 365.5,53.5 C 376.315,54.6855 386.982,56.6855 397.5,59.5C 396.124,68.3369 394.124,77.0035 391.5,85.5C 381.631,83.09 371.631,81.4234 361.5,80.5C 363.374,71.5866 364.708,62.5866 365.5,53.5 Z"/></g>
<g><path style="opacity:1" fill="#f69c8a" d="M 345.5,166.5 C 344.375,167.348 344.375,168.348 345.5,169.5C 342.404,170.919 339.071,171.919 335.5,172.5C 334.494,172.062 334.494,171.396 335.5,170.5C 332.093,169.364 328.759,168.031 325.5,166.5C 324.024,164.58 323.024,162.413 322.5,160C 325.303,155.93 328.97,154.097 333.5,154.5C 331.833,156.5 330.167,158.5 328.5,160.5C 331.333,160.582 334.333,160.748 337.5,161C 339.552,163.062 340.218,162.895 339.5,160.5C 337.78,159.066 335.78,158.233 333.5,158C 335.548,156.319 337.715,154.819 340,153.5C 347.8,154.956 349.633,159.29 345.5,166.5 Z"/></g>
<g><path style="opacity:1" fill="#132038" d="M 270.5,155.5 C 269.596,154.791 269.263,153.791 269.5,152.5C 270.525,144.861 270.691,137.195 270,129.5C 266.443,125.053 263.943,120.053 262.5,114.5C 255.184,118.955 248.351,118.289 242,112.5C 237.963,114.609 233.797,114.943 229.5,113.5C 227.216,118.725 224.383,123.725 221,128.5C 220.08,138.28 220.747,147.947 223,157.5C 224.464,162.456 226.964,166.79 230.5,170.5C 229.833,170.5 229.5,170.833 229.5,171.5C 228.373,170.878 227.373,170.045 226.5,169C 196.502,168.5 166.502,168.333 136.5,168.5C 136.5,194.5 136.5,220.5 136.5,246.5C 141.805,246.323 146.805,247.49 151.5,250C 156.231,257.484 156.731,265.318 153,273.5C 150.005,276.944 146.172,278.611 141.5,278.5C 139.833,278.5 138.167,278.5 136.5,278.5C 136.173,288.681 136.506,298.681 137.5,308.5C 160.167,308.5 182.833,308.5 205.5,308.5C 205.007,306.194 204.674,303.861 204.5,301.5C 194.161,301.666 183.828,301.5 173.5,301C 172.29,299.961 171.29,298.794 170.5,297.5C 172.07,296.441 173.403,296.941 174.5,299C 175.833,299.667 177.167,299.667 178.5,299C 174.5,295.333 174.5,291.667 178.5,288C 176.527,287.505 174.527,287.338 172.5,287.5C 172.918,286.778 173.584,286.278 174.5,286C 181.881,285.765 189.214,285.265 196.5,284.5C 197.738,284.81 197.738,285.31 196.5,286C 199.261,286.722 201.927,286.555 204.5,285.5C 231.833,285.5 259.167,285.5 286.5,285.5C 286.569,280.146 286.902,274.813 287.5,269.5C 288.468,271.607 288.802,273.941 288.5,276.5C 288.5,279.5 288.5,282.5 288.5,285.5C 301.171,285.333 313.838,285.5 326.5,286C 332.453,288.525 333.953,292.691 331,298.5C 329.581,299.46 328.081,300.293 326.5,301C 313.504,301.5 300.504,301.667 287.5,301.5C 287.5,303.833 287.5,306.167 287.5,308.5C 315.167,308.5 342.833,308.5 370.5,308.5C 370.5,261.833 370.5,215.167 370.5,168.5C 362.833,168.5 355.167,168.5 347.5,168.5C 346.833,168.833 346.167,169.167 345.5,169.5C 344.375,168.348 344.375,167.348 345.5,166.5C 346.167,166.5 346.833,166.5 347.5,166.5C 355.833,166.5 364.167,166.5 372.5,166.5C 372.832,214.67 372.499,262.67 371.5,310.5C 292.833,310.5 214.167,310.5 135.5,310.5C 134.506,300.347 134.172,290.014 134.5,279.5C 132.833,279.5 131.167,279.5 129.5,279.5C 129.5,293.833 129.5,308.167 129.5,322.5C 212.167,322.5 294.833,322.5 377.5,322.5C 377.5,268.833 377.5,215.167 377.5,161.5C 368.167,161.5 358.833,161.5 349.5,161.5C 348.167,160.833 348.167,160.167 349.5,159.5C 359.5,159.5 369.5,159.5 379.5,159.5C 379.5,214.5 379.5,269.5 379.5,324.5C 343.5,324.5 307.5,324.5 271.5,324.5C 271.5,331.5 271.5,338.5 271.5,345.5C 303.167,345.5 334.833,345.5 366.5,345.5C 366.5,349.5 366.5,353.5 366.5,357.5C 291.167,357.5 215.833,357.5 140.5,357.5C 140.5,353.5 140.5,349.5 140.5,345.5C 172.167,345.5 203.833,345.5 235.5,345.5C 235.5,338.5 235.5,331.5 235.5,324.5C 199.5,324.5 163.5,324.5 127.5,324.5C 127.5,309.167 127.5,293.833 127.5,278.5C 125.167,278.5 122.833,278.5 120.5,278.5C 120.817,282.702 120.483,286.702 119.5,290.5C 118.833,290.5 118.5,290.167 118.5,289.5C 118.5,271.5 118.5,253.5 118.5,235.5C 118.5,234.833 118.833,234.5 119.5,234.5C 120.483,238.298 120.817,242.298 120.5,246.5C 122.833,246.5 125.167,246.5 127.5,246.5C 127.5,217.5 127.5,188.5 127.5,159.5C 158.84,159.833 190.174,159.5 221.5,158.5C 221.376,157.893 221.043,157.56 220.5,157.5C 219.949,154.193 219.616,150.86 219.5,147.5C 217.345,147.628 215.345,147.128 213.5,146C 207.233,138.652 208.567,133.319 217.5,130C 216.087,125.88 214.587,121.713 213,117.5C 212.343,113.48 213.843,110.48 217.5,108.5C 218.553,98.9536 223.887,94.787 233.5,96C 240.27,90.5062 247.27,90.1729 254.5,95C 261.714,94.0585 267.214,96.5585 271,102.5C 272.159,107.663 273.325,112.83 274.5,118C 274.518,121.633 273.852,125.133 272.5,128.5C 272.833,129.167 273.167,129.833 273.5,130.5C 278.175,130.983 280.842,133.483 281.5,138C 280.878,144.124 277.545,147.29 271.5,147.5C 271.599,150.237 271.265,152.904 270.5,155.5 Z"/></g>
<g><path style="opacity:1" fill="#f47378" d="M 241.5,141.5 C 246.5,140.5 248.5,142.5 247.5,147.5C 245.283,148.369 242.95,148.702 240.5,148.5C 240.198,145.941 240.532,143.607 241.5,141.5 Z"/></g>
<g><path style="opacity:1" fill="#fd6e72" d="M 226.5,144.5 C 227.492,144.328 228.158,144.662 228.5,145.5C 230.256,149.581 228.923,151.081 224.5,150C 223.066,147.472 223.733,145.638 226.5,144.5 Z"/></g>
<g><path style="opacity:1" fill="#fe6f73" d="M 263.5,143.5 C 266.267,144.638 266.934,146.472 265.5,149C 261.077,150.081 259.744,148.581 261.5,144.5C 262.167,144.167 262.833,143.833 263.5,143.5 Z"/></g>
<g><path style="opacity:1" fill="#e08f81" d="M 272.5,132.5 C 279.525,133.885 281.025,137.552 277,143.5C 273.614,146.701 272.281,146.035 273,141.5C 273.333,141.833 273.667,142.167 274,142.5C 273.946,139.809 275.113,137.976 277.5,137C 276.093,135.548 274.593,135.715 273,137.5C 272.506,135.866 272.34,134.199 272.5,132.5 Z"/></g>
<g><path style="opacity:1" fill="#e29182" d="M 215.5,132.5 C 216.5,132.5 217.5,132.5 218.5,132.5C 219.331,137.145 218.164,138.145 215,135.5C 214.667,137.047 215.167,138.38 216.5,139.5C 215.109,141.936 215.609,142.602 218,141.5C 218.49,142.793 218.657,144.127 218.5,145.5C 213.092,144.363 210.925,141.03 212,135.5C 213.145,134.364 214.312,133.364 215.5,132.5 Z"/></g>
<g><path style="opacity:1" fill="#21243a" d="M 263.5,143.5 C 262.833,143.833 262.167,144.167 261.5,144.5C 253.218,147.029 248.552,144.029 247.5,135.5C 245.5,135.5 243.5,135.5 241.5,135.5C 241.5,137.5 241.5,139.5 241.5,141.5C 240.532,143.607 240.198,145.941 240.5,148.5C 242.95,148.702 245.283,148.369 247.5,147.5C 249.379,147.393 249.712,147.893 248.5,149C 242.073,152.321 238.573,150.487 238,143.5C 235.049,145.076 231.883,145.743 228.5,145.5C 228.158,144.662 227.492,144.328 226.5,144.5C 221.658,139.269 221.325,133.769 225.5,128C 224.483,126.951 224.316,125.784 225,124.5C 229.652,122.817 234.485,122.15 239.5,122.5C 239.863,124.911 238.863,126.411 236.5,127C 239.17,129.46 241.17,131.627 242.5,133.5C 244.288,133.785 245.955,133.452 247.5,132.5C 248.301,129.867 249.967,128.033 252.5,127C 250.963,125.89 250.297,124.39 250.5,122.5C 254.846,122.334 259.179,122.501 263.5,123C 264.337,124.011 264.67,125.178 264.5,126.5C 263.448,126.351 262.448,126.517 261.5,127C 267.449,131.814 268.116,137.314 263.5,143.5 Z"/></g>
<g><path style="opacity:1" fill="#f79c8a" d="M 253.5,128.5 C 261.494,127.329 264.994,130.663 264,138.5C 259.748,144.653 255.081,144.986 250,139.5C 248.663,134.872 249.83,131.205 253.5,128.5 Z"/></g>
<g><path style="opacity:1" fill="#2f2c40" d="M 254.5,132.5 C 257.861,133.203 258.194,134.537 255.5,136.5C 253.358,135.563 253.024,134.23 254.5,132.5 Z"/></g>
<g><path style="opacity:1" fill="#f79c8a" d="M 227.5,128.5 C 235.661,127.171 239.495,130.505 239,138.5C 234.748,144.653 230.081,144.986 225,139.5C 223.946,135.345 224.78,131.678 227.5,128.5 Z"/></g>
<g><path style="opacity:1" fill="#2f2c3f" d="M 231.5,133.5 C 234.861,134.203 235.194,135.537 232.5,137.5C 230.358,136.563 230.024,135.23 231.5,133.5 Z"/></g>
<g><path style="opacity:1" fill="#728dad" d="M 220.5,157.5 C 221.043,157.56 221.376,157.893 221.5,158.5C 190.174,159.5 158.84,159.833 127.5,159.5C 158.5,158.833 189.5,158.167 220.5,157.5 Z"/></g>
<g><path style="opacity:1" fill="#25243a" d="M 252.5,152.5 C 253.995,152.415 254.995,153.081 255.5,154.5C 252.374,162.71 246.707,165.21 238.5,162C 236.213,159.93 234.547,157.43 233.5,154.5C 239.988,153.833 246.321,153.167 252.5,152.5 Z"/></g>
<g><path style="opacity:1" fill="#9e4e5b" d="M 241.5,159.5 C 244.073,159.148 246.406,159.648 248.5,161C 245.833,161.667 243.167,161.667 240.5,161C 241.056,160.617 241.389,160.117 241.5,159.5 Z"/></g>
<g><path style="opacity:1" fill="#df656c" d="M 236.5,155.5 C 241.902,156.417 247.236,156.75 252.5,156.5C 252.291,157.086 251.957,157.586 251.5,158C 246.833,158.667 242.167,158.667 237.5,158C 236.748,157.329 236.414,156.496 236.5,155.5 Z"/></g>
<g><path style="opacity:1" fill="#8a99a6" d="M 129.5,161.5 C 160.507,161.167 191.507,161.5 222.5,162.5C 223.04,163.748 223.707,164.915 224.5,166C 194.502,166.5 164.502,166.667 134.5,166.5C 134.5,193.167 134.5,219.833 134.5,246.5C 132.833,246.5 131.167,246.5 129.5,246.5C 129.5,218.167 129.5,189.833 129.5,161.5 Z"/></g>
<g><path style="opacity:1" fill="#8998a5" d="M 349.5,161.5 C 358.833,161.5 368.167,161.5 377.5,161.5C 377.5,215.167 377.5,268.833 377.5,322.5C 294.833,322.5 212.167,322.5 129.5,322.5C 129.5,308.167 129.5,293.833 129.5,279.5C 131.167,279.5 132.833,279.5 134.5,279.5C 134.172,290.014 134.506,300.347 135.5,310.5C 165.167,311.167 194.833,311.833 224.5,312.5C 222.281,314.065 221.948,316.065 223.5,318.5C 243.158,319.666 262.825,319.833 282.5,319C 285.134,316.707 285.134,314.54 282.5,312.5C 312.167,311.833 341.833,311.167 371.5,310.5C 372.499,262.67 372.832,214.67 372.5,166.5C 364.167,166.5 355.833,166.5 347.5,166.5C 348.441,164.95 349.107,163.284 349.5,161.5 Z"/></g>
<g><path style="opacity:1" fill="#fcf2cd" d="M 229.5,171.5 C 230.458,171.953 231.292,172.619 232,173.5C 232.818,176.227 232.652,178.894 231.5,181.5C 219.604,185.519 207.937,190.019 196.5,195C 188.07,202.428 181.57,211.261 177,221.5C 171.61,235.945 165.944,250.279 160,264.5C 157.275,271.073 156.941,277.74 159,284.5C 161.656,286.996 164.656,288.996 168,290.5C 168.156,293.191 168.989,295.524 170.5,297.5C 171.29,298.794 172.29,299.961 173.5,301C 183.828,301.5 194.161,301.666 204.5,301.5C 204.674,303.861 205.007,306.194 205.5,308.5C 182.833,308.5 160.167,308.5 137.5,308.5C 137.5,298.833 137.5,289.167 137.5,279.5C 139.099,279.768 140.432,279.434 141.5,278.5C 146.172,278.611 150.005,276.944 153,273.5C 156.731,265.318 156.231,257.484 151.5,250C 146.805,247.49 141.805,246.323 136.5,246.5C 136.5,220.5 136.5,194.5 136.5,168.5C 166.502,168.333 196.502,168.5 226.5,169C 227.373,170.045 228.373,170.878 229.5,171.5 Z"/></g>
<g><path style="opacity:1" fill="#fbf2cc" d="M 347.5,168.5 C 355.167,168.5 362.833,168.5 370.5,168.5C 370.5,215.167 370.5,261.833 370.5,308.5C 342.833,308.5 315.167,308.5 287.5,308.5C 287.5,306.167 287.5,303.833 287.5,301.5C 300.504,301.667 313.504,301.5 326.5,301C 328.081,300.293 329.581,299.46 331,298.5C 333.953,292.691 332.453,288.525 326.5,286C 313.838,285.5 301.171,285.333 288.5,285.5C 288.5,282.5 288.5,279.5 288.5,276.5C 289.464,258.952 290.798,241.285 292.5,223.5C 313.072,229.214 333.738,234.547 354.5,239.5C 365.652,237.88 369.818,231.547 367,220.5C 362.531,202.241 356.031,184.907 347.5,168.5 Z"/></g>
<g><path style="opacity:1" fill="#d4d192" d="M 441.5,175.5 C 442.167,175.5 442.833,175.5 443.5,175.5C 444.5,176.167 445.5,176.833 446.5,177.5C 447.11,178.391 447.443,179.391 447.5,180.5C 445.475,178.804 443.475,177.137 441.5,175.5 Z"/></g>
<g><path style="opacity:1" fill="#dfdd9f" d="M 414.5,176.5 C 411.5,177.5 409.5,179.5 408.5,182.5C 407.957,182.44 407.624,182.107 407.5,181.5C 408.695,177.564 411.029,175.897 414.5,176.5 Z"/></g>
<g><path style="opacity:1" fill="#fd7f83" d="M 287.5,269.5 C 286.902,274.813 286.569,280.146 286.5,285.5C 259.167,285.5 231.833,285.5 204.5,285.5C 204.238,284.022 204.571,282.689 205.5,281.5C 215.5,276.833 225.5,272.167 235.5,267.5C 236.59,266.609 236.59,265.609 235.5,264.5C 236.025,263.808 236.692,263.308 237.5,263C 244.452,263.027 250.786,261.027 256.5,257C 257.701,256.097 258.535,254.931 259,253.5C 258.896,247.979 257.896,242.646 256,237.5C 254.113,235.974 253.113,233.974 253,231.5C 249.427,228.79 246.26,229.29 243.5,233C 238.802,232.546 234.969,234.046 232,237.5C 230.205,241.052 228.705,244.718 227.5,248.5C 226.833,247.833 226.167,247.167 225.5,246.5C 217.833,249.167 210.167,251.833 202.5,254.5C 201.549,234.493 201.049,214.493 201,194.5C 211.041,190.541 221.208,186.875 231.5,183.5C 234.344,185.495 237.344,187.328 240.5,189C 248.532,191.193 255.032,189.026 260,182.5C 270.351,185.836 280.684,189.17 291,192.5C 290.78,218.201 289.613,243.867 287.5,269.5 Z"/></g>
<g><path style="opacity:1" fill="#1d2c43" d="M 441.5,175.5 C 443.475,177.137 445.475,178.804 447.5,180.5C 449.329,184.435 451.162,188.435 453,192.5C 463.944,236.023 462.777,279.19 449.5,322C 452.566,338.796 455.066,355.63 457,372.5C 455.829,373.893 454.329,374.727 452.5,375C 439.791,377.118 427.124,379.451 414.5,382C 408.823,388.9 402.823,395.4 396.5,401.5C 396.158,400.662 395.492,400.328 394.5,400.5C 399.812,394.854 405.145,389.187 410.5,383.5C 409.855,382.354 409.022,381.354 408,380.5C 402.686,354.282 398.352,327.948 395,301.5C 395.75,300.874 396.584,300.374 397.5,300C 412.498,297.287 427.498,294.953 442.5,293C 445.209,300.189 447.042,307.689 448,315.5C 459.216,281.07 461.383,246.07 454.5,210.5C 453.167,210.5 451.833,210.5 450.5,210.5C 450.5,212.5 450.5,214.5 450.5,216.5C 451.5,216.5 452.5,216.5 453.5,216.5C 453.5,218.5 453.5,220.5 453.5,222.5C 452.167,222.5 450.833,222.5 449.5,222.5C 449.5,223.5 449.5,224.5 449.5,225.5C 447.861,229.139 445.195,231.805 441.5,233.5C 439.97,234.067 438.47,234.733 437,235.5C 436.501,240.155 436.334,244.821 436.5,249.5C 435.5,249.5 434.5,249.5 433.5,249.5C 433.5,252.5 433.5,255.5 433.5,258.5C 434.5,258.5 435.5,258.5 436.5,258.5C 436.5,263.833 436.5,269.167 436.5,274.5C 430.833,274.5 425.167,274.5 419.5,274.5C 419.5,269.167 419.5,263.833 419.5,258.5C 420.833,258.5 422.167,258.5 423.5,258.5C 423.5,255.5 423.5,252.5 423.5,249.5C 422.5,249.5 421.5,249.5 420.5,249.5C 420.5,244.833 420.5,240.167 420.5,235.5C 418.784,235.371 417.117,235.038 415.5,234.5C 412.149,232.146 409.482,229.146 407.5,225.5C 405.863,223.676 404.863,221.509 404.5,219C 404.5,211 404.5,203 404.5,195C 405.597,190.65 406.93,186.484 408.5,182.5C 409.5,179.5 411.5,177.5 414.5,176.5C 415.289,176.217 415.956,175.717 416.5,175C 424.868,174.26 433.202,174.426 441.5,175.5 Z"/></g>
<g><path style="opacity:1" fill="#f1eb9d" d="M 422.5,216.5 C 418.03,215.514 413.363,215.181 408.5,215.5C 408.5,213.833 408.5,212.167 408.5,210.5C 413.167,210.5 417.833,210.5 422.5,210.5C 422.5,208.167 422.5,205.833 422.5,203.5C 417.833,203.5 413.167,203.5 408.5,203.5C 408.5,201.833 408.5,200.167 408.5,198.5C 413.167,198.5 417.833,198.5 422.5,198.5C 422.5,196.167 422.5,193.833 422.5,191.5C 417.833,191.5 413.167,191.5 408.5,191.5C 409.328,179.474 415.828,174.474 428,176.5C 440.099,174.61 446.932,179.61 448.5,191.5C 443.833,191.5 439.167,191.5 434.5,191.5C 434.5,193.833 434.5,196.167 434.5,198.5C 439.167,198.5 443.833,198.5 448.5,198.5C 448.5,200.167 448.5,201.833 448.5,203.5C 443.833,203.5 439.167,203.5 434.5,203.5C 434.5,205.833 434.5,208.167 434.5,210.5C 439.167,210.5 443.833,210.5 448.5,210.5C 448.5,212.5 448.5,214.5 448.5,216.5C 443.833,216.5 439.167,216.5 434.5,216.5C 434.5,218.5 434.5,220.5 434.5,222.5C 438.833,222.5 443.167,222.5 447.5,222.5C 446.428,228.073 443.095,231.573 437.5,233C 430.06,233.928 422.726,233.594 415.5,232C 411.905,230.236 409.572,227.402 408.5,223.5C 409.002,222.479 409.668,222.312 410.5,223C 412.734,226.901 415.9,229.735 420,231.5C 420.5,231.167 421,230.833 421.5,230.5C 411.068,225.154 411.401,222.487 422.5,222.5C 422.5,220.5 422.5,218.5 422.5,216.5 Z"/></g>
<g><path style="opacity:1" fill="#1c273a" d="M 417.5,178.5 C 418.675,178.281 419.675,178.614 420.5,179.5C 416.138,181.695 412.972,185.028 411,189.5C 411.101,184.633 413.268,180.966 417.5,178.5 Z"/></g>
<g><path style="opacity:1" fill="#27323f" d="M 423.5,178.5 C 426.898,178.18 430.232,178.513 433.5,179.5C 431.833,179.833 430.167,180.167 428.5,180.5C 426.36,180.444 424.694,179.777 423.5,178.5 Z"/></g>
<g><path style="opacity:1" fill="#7495b9" d="M 406.5,193.5 C 411.5,193.5 416.5,193.5 421.5,193.5C 421.5,194.5 421.5,195.5 421.5,196.5C 416.5,196.5 411.5,196.5 406.5,196.5C 406.5,195.5 406.5,194.5 406.5,193.5 Z"/></g>
<g><path style="opacity:1" fill="#7597bb" d="M 436.5,193.5 C 441.5,193.5 446.5,193.5 451.5,193.5C 451.5,194.5 451.5,195.5 451.5,196.5C 446.5,196.5 441.5,196.5 436.5,196.5C 436.5,195.5 436.5,194.5 436.5,193.5 Z"/></g>
<g><path style="opacity:1" fill="#fc7e83" d="M 196.5,284.5 C 189.214,285.265 181.881,285.765 174.5,286C 173.584,286.278 172.918,286.778 172.5,287.5C 171.518,288.141 170.518,288.807 169.5,289.5C 159.416,285.22 156.582,277.887 161,267.5C 167.78,249.273 175.114,231.273 183,213.5C 187.467,206.9 192.634,200.9 198.5,195.5C 199.666,212.157 199.833,228.823 199,245.5C 197.167,249.833 195.333,254.167 193.5,258.5C 203.946,256.289 214.279,252.956 224.5,248.5C 228.126,253.581 231.126,259.081 233.5,265C 233.355,265.772 233.022,266.439 232.5,267C 220.286,272.608 208.286,278.441 196.5,284.5 Z"/></g>
<g><path style="opacity:1" fill="#87a6c7" d="M 450.5,198.5 C 452.3,199.895 452.634,201.561 451.5,203.5C 450.548,201.955 450.215,200.288 450.5,198.5 Z"/></g>
<g><path style="opacity:1" fill="#4a6483" d="M 420.5,208.5 C 418.603,207.195 416.269,206.529 413.5,206.5C 410.731,206.529 408.397,207.195 406.5,208.5C 405.596,207.791 405.263,206.791 405.5,205.5C 410.833,205.5 416.167,205.5 421.5,205.5C 421.737,206.791 421.404,207.791 420.5,208.5 Z"/></g>
<g><path style="opacity:1" fill="#516c8c" d="M 436.5,206.5 C 441.305,205.513 446.305,205.179 451.5,205.5C 451.737,206.791 451.404,207.791 450.5,208.5C 446.285,206.564 441.619,205.897 436.5,206.5 Z"/></g>
<g><path style="opacity:1" fill="#89add2" d="M 420.5,208.5 C 415.833,208.5 411.167,208.5 406.5,208.5C 408.397,207.195 410.731,206.529 413.5,206.5C 416.269,206.529 418.603,207.195 420.5,208.5 Z"/></g>
<g><path style="opacity:1" fill="#89add2" d="M 436.5,206.5 C 441.619,205.897 446.285,206.564 450.5,208.5C 445.381,209.103 440.715,208.436 436.5,206.5 Z"/></g>
<g><path style="opacity:1" fill="#84886a" d="M 408.5,210.5 C 408.5,212.167 408.5,213.833 408.5,215.5C 413.363,215.181 418.03,215.514 422.5,216.5C 417.5,216.5 412.5,216.5 407.5,216.5C 407.205,214.265 407.539,212.265 408.5,210.5 Z"/></g>
<g><path style="opacity:1" fill="#89add2" d="M 412.5,218.5 C 415.247,218.187 417.914,218.52 420.5,219.5C 419.167,219.833 417.833,220.167 416.5,220.5C 414.667,220.415 413.334,219.748 412.5,218.5 Z"/></g>
<g><path style="opacity:1" fill="#89add2" d="M 436.5,218.5 C 441.214,218.173 445.88,218.507 450.5,219.5C 448.167,219.833 445.833,220.167 443.5,220.5C 440.731,220.471 438.397,219.805 436.5,218.5 Z"/></g>
<g><path style="opacity:1" fill="#c3c69b" d="M 407.5,225.5 C 409.482,229.146 412.149,232.146 415.5,234.5C 409.76,233.783 407.093,230.783 407.5,225.5 Z"/></g>
<g><path style="opacity:1" fill="#d6d8a3" d="M 449.5,225.5 C 448.877,230.797 446.211,233.463 441.5,233.5C 445.195,231.805 447.861,229.139 449.5,225.5 Z"/></g>
<g><path style="opacity:1" fill="#243f58" d="M 118.5,235.5 C 118.5,253.5 118.5,271.5 118.5,289.5C 112.167,289.5 105.833,289.5 99.5,289.5C 99.5,271.5 99.5,253.5 99.5,235.5C 105.833,235.5 112.167,235.5 118.5,235.5 Z"/></g>
<g><path style="opacity:1" fill="#83929f" d="M 421.5,235.5 C 425.833,235.5 430.167,235.5 434.5,235.5C 434.5,239.5 434.5,243.5 434.5,247.5C 430.167,247.5 425.833,247.5 421.5,247.5C 421.5,243.5 421.5,239.5 421.5,235.5 Z"/></g>
<g><path style="opacity:1" fill="#28293f" d="M 349.5,159.5 C 348.167,160.167 348.167,160.833 349.5,161.5C 349.107,163.284 348.441,164.95 347.5,166.5C 346.833,166.5 346.167,166.5 345.5,166.5C 349.633,159.29 347.8,154.956 340,153.5C 337.715,154.819 335.548,156.319 333.5,158C 335.78,158.233 337.78,159.066 339.5,160.5C 340.218,162.895 339.552,163.062 337.5,161C 334.333,160.748 331.333,160.582 328.5,160.5C 330.167,158.5 331.833,156.5 333.5,154.5C 328.97,154.097 325.303,155.93 322.5,160C 323.024,162.413 324.024,164.58 325.5,166.5C 328.759,168.031 332.093,169.364 335.5,170.5C 334.494,171.396 334.494,172.062 335.5,172.5C 339.071,171.919 342.404,170.919 345.5,169.5C 346.167,169.167 346.833,168.833 347.5,168.5C 356.031,184.907 362.531,202.241 367,220.5C 369.818,231.547 365.652,237.88 354.5,239.5C 333.738,234.547 313.072,229.214 292.5,223.5C 290.798,241.285 289.464,258.952 288.5,276.5C 288.802,273.941 288.468,271.607 287.5,269.5C 289.613,243.867 290.78,218.201 291,192.5C 280.684,189.17 270.351,185.836 260,182.5C 255.032,189.026 248.532,191.193 240.5,189C 237.344,187.328 234.344,185.495 231.5,183.5C 221.208,186.875 211.041,190.541 201,194.5C 201.049,214.493 201.549,234.493 202.5,254.5C 210.167,251.833 217.833,249.167 225.5,246.5C 226.167,247.167 226.833,247.833 227.5,248.5C 228.705,244.718 230.205,241.052 232,237.5C 234.969,234.046 238.802,232.546 243.5,233C 246.26,229.29 249.427,228.79 253,231.5C 253.113,233.974 254.113,235.974 256,237.5C 257.896,242.646 258.896,247.979 259,253.5C 258.535,254.931 257.701,256.097 256.5,257C 250.786,261.027 244.452,263.027 237.5,263C 236.692,263.308 236.025,263.808 235.5,264.5C 236.59,265.609 236.59,266.609 235.5,267.5C 225.5,272.167 215.5,276.833 205.5,281.5C 204.571,282.689 204.238,284.022 204.5,285.5C 201.927,286.555 199.261,286.722 196.5,286C 197.738,285.31 197.738,284.81 196.5,284.5C 208.286,278.441 220.286,272.608 232.5,267C 233.022,266.439 233.355,265.772 233.5,265C 231.126,259.081 228.126,253.581 224.5,248.5C 214.279,252.956 203.946,256.289 193.5,258.5C 195.333,254.167 197.167,249.833 199,245.5C 199.833,228.823 199.666,212.157 198.5,195.5C 192.634,200.9 187.467,206.9 183,213.5C 175.114,231.273 167.78,249.273 161,267.5C 156.582,277.887 159.416,285.22 169.5,289.5C 170.518,288.807 171.518,288.141 172.5,287.5C 174.527,287.338 176.527,287.505 178.5,288C 174.5,291.667 174.5,295.333 178.5,299C 177.167,299.667 175.833,299.667 174.5,299C 173.403,296.941 172.07,296.441 170.5,297.5C 168.989,295.524 168.156,293.191 168,290.5C 164.656,288.996 161.656,286.996 159,284.5C 156.941,277.74 157.275,271.073 160,264.5C 165.944,250.279 171.61,235.945 177,221.5C 181.57,211.261 188.07,202.428 196.5,195C 207.937,190.019 219.604,185.519 231.5,181.5C 232.652,178.894 232.818,176.227 232,173.5C 231.292,172.619 230.458,171.953 229.5,171.5C 229.5,170.833 229.833,170.5 230.5,170.5C 234.68,172.725 239.18,174.058 244,174.5C 258.271,173.722 266.771,166.389 269.5,152.5C 269.263,153.791 269.596,154.791 270.5,155.5C 269.766,156.708 269.433,158.041 269.5,159.5C 286.833,159.5 304.167,159.5 321.5,159.5C 319.651,150.284 316.985,141.284 313.5,132.5C 314.767,128.605 317.267,127.605 321,129.5C 322.48,133.615 324.147,137.615 326,141.5C 331.799,140.233 337.633,140.233 343.5,141.5C 345.809,147.405 347.809,153.405 349.5,159.5 Z"/></g>
<g><path style="opacity:1" fill="#f99d8a" d="M 247.5,231.5 C 249.39,231.297 250.89,231.963 252,233.5C 252.69,235.715 253.524,237.882 254.5,240C 254.415,241.107 254.081,242.107 253.5,243C 256.448,244.01 257.114,245.843 255.5,248.5C 257.279,250.193 257.779,252.193 257,254.5C 250.253,259.291 242.753,261.957 234.5,262.5C 227.571,253.667 227.904,244.833 235.5,236C 240.386,236.422 244.386,234.922 247.5,231.5 Z"/></g>
<g><path style="opacity:1" fill="#f39a88" d="M 256.5,173.5 C 260.13,179.629 258.464,184.129 251.5,187C 244.033,190.176 238.2,188.343 234,181.5C 233.186,179.098 233.353,176.765 234.5,174.5C 242.087,177.336 249.421,177.003 256.5,173.5 Z"/></g>
<g><path style="opacity:1" fill="#fc7e83" d="M 345.5,171.5 C 347.124,171.36 348.29,172.027 349,173.5C 355.661,189.148 361.327,205.148 366,221.5C 367.335,233.83 361.835,238.997 349.5,237C 330.909,231.852 312.242,227.019 293.5,222.5C 292.501,212.478 292.834,202.478 294.5,192.5C 307.623,196.986 320.956,200.653 334.5,203.5C 334.24,207.348 334.906,211.015 336.5,214.5C 336.833,214 337.167,213.5 337.5,213C 335.219,200.146 332.886,187.313 330.5,174.5C 335.736,174.063 340.736,173.063 345.5,171.5 Z"/></g>
<g><path style="opacity:1" fill="#faf0cc" d="M 263.5,168.5 C 285.566,168.032 307.566,168.532 329.5,170C 333.573,172.038 333.24,173.538 328.5,174.5C 330.352,183.129 332.019,191.795 333.5,200.5C 329.496,201.014 325.496,200.514 321.5,199C 300.985,192.598 280.318,186.764 259.5,181.5C 258.716,176.339 260.05,172.005 263.5,168.5 Z"/></g>
<g><path style="opacity:1" fill="#8a99a6" d="M 268.5,161.5 C 286.179,161.167 303.846,161.5 321.5,162.5C 322.246,163.736 322.579,165.07 322.5,166.5C 303.497,166.667 284.497,166.5 265.5,166C 266.883,164.729 267.883,163.229 268.5,161.5 Z"/></g>
<g><path style="opacity:1" fill="#e79384" d="M 338.5,142.5 C 340.144,142.286 341.644,142.62 343,143.5C 343.532,146.264 344.366,148.93 345.5,151.5C 344.68,153.111 343.346,153.778 341.5,153.5C 340.699,149.765 339.699,146.099 338.5,142.5 Z"/></g>
<g><path style="opacity:1" fill="#e69384" d="M 332.5,142.5 C 334.144,142.286 335.644,142.62 337,143.5C 337.532,146.264 338.366,148.93 339.5,151.5C 338.537,153.49 337.204,153.823 335.5,152.5C 334.484,149.145 333.484,145.812 332.5,142.5 Z"/></g>
<g><path style="opacity:1" fill="#ee9787" d="M 327.5,142.5 C 328.675,142.281 329.675,142.614 330.5,143.5C 331.785,146.021 332.452,148.687 332.5,151.5C 331.167,151.5 329.833,151.5 328.5,151.5C 328.221,148.882 327.554,146.382 326.5,144C 327.056,143.617 327.389,143.117 327.5,142.5 Z"/></g>
<g><path style="opacity:1" fill="#f09987" d="M 316.5,129.5 C 319.05,129.561 320.55,130.894 321,133.5C 322.673,140.02 324.84,146.353 327.5,152.5C 326.5,154.167 325.167,155.5 323.5,156.5C 320.535,148.438 317.868,140.271 315.5,132C 315.743,131.098 316.077,130.265 316.5,129.5 Z"/></g>
<g><path style="opacity:1" fill="#243f58" d="M 120.5,248.5 C 135.899,247.405 141.732,254.405 138,269.5C 134.183,276.466 128.349,279.133 120.5,277.5C 120.5,267.833 120.5,258.167 120.5,248.5 Z"/></g>
<g><path style="opacity:1" fill="#233e57" d="M 135.5,249.5 C 143.584,247.684 149.417,250.684 153,258.5C 154.117,271.87 147.95,278.037 134.5,277C 141.085,271.643 143.251,264.809 141,256.5C 139.629,253.734 137.796,251.401 135.5,249.5 Z"/></g>
<g><path style="opacity:1" fill="#d8d2b6" d="M 199.5,247.5 C 200.8,250.024 200.8,252.691 199.5,255.5C 198.391,256.59 197.391,256.59 196.5,255.5C 197.9,252.965 198.9,250.298 199.5,247.5 Z"/></g>
<g><path style="opacity:1" fill="#83929f" d="M 421.5,260.5 C 425.833,260.5 430.167,260.5 434.5,260.5C 434.5,264.5 434.5,268.5 434.5,272.5C 430.167,272.5 425.833,272.5 421.5,272.5C 421.5,268.5 421.5,264.5 421.5,260.5 Z"/></g>
<g><path style="opacity:1" fill="#b0ae9d" d="M 141.5,278.5 C 140.432,279.434 139.099,279.768 137.5,279.5C 137.5,289.167 137.5,298.833 137.5,308.5C 136.506,298.681 136.173,288.681 136.5,278.5C 138.167,278.5 139.833,278.5 141.5,278.5 Z"/></g>
<g><path style="opacity:1" fill="#f0e7c5" d="M 200.5,283.5 C 201.376,283.369 202.043,283.702 202.5,284.5C 201.277,285.614 199.944,285.781 198.5,285C 199.416,284.722 200.082,284.222 200.5,283.5 Z"/></g>
<g><path style="opacity:1" fill="#313e54" d="M 326.5,288.5 C 279.829,288.167 233.162,288.5 186.5,289.5C 186.863,290.183 187.196,290.85 187.5,291.5C 186.833,292.833 186.167,294.167 185.5,295.5C 185.5,293.833 185.5,292.167 185.5,290.5C 185.5,289.5 185.5,288.5 185.5,287.5C 232.67,287.168 279.67,287.501 326.5,288.5 Z"/></g>
<g><path style="opacity:1" fill="#434f63" d="M 326.5,288.5 C 331.763,291.965 331.763,295.465 326.5,299C 279.5,299.667 232.5,299.667 185.5,299C 186.293,297.915 186.96,296.748 187.5,295.5C 233.162,294.5 278.828,294.167 324.5,294.5C 324.5,293.5 324.5,292.5 324.5,291.5C 278.833,291.5 233.167,291.5 187.5,291.5C 187.196,290.85 186.863,290.183 186.5,289.5C 233.162,288.5 279.829,288.167 326.5,288.5 Z"/></g>
<g><path style="opacity:1" fill="#babfc6" d="M 185.5,290.5 C 185.5,292.167 185.5,293.833 185.5,295.5C 185.389,296.117 185.056,296.617 184.5,297C 177.833,298.667 175.833,296.333 178.5,290C 180.929,289.297 183.262,289.463 185.5,290.5 Z"/></g>
<g><path style="opacity:1" fill="#16243c" d="M 179.5,291.5 C 184.757,292.97 184.757,294.304 179.5,295.5C 179.5,294.167 179.5,292.833 179.5,291.5 Z"/></g>
<g><path style="opacity:1" fill="#7c9ec3" d="M 433.5,295.5 C 436.5,295.5 439.5,295.5 442.5,295.5C 447.001,320.822 451.168,346.156 455,371.5C 442.259,374.264 429.426,376.764 416.5,379C 413.901,379.769 411.401,379.602 409,378.5C 404.828,353.15 400.661,327.817 396.5,302.5C 409.009,300.433 421.342,298.1 433.5,295.5 Z"/></g>
<g><path style="opacity:1" fill="#fe7f83" d="M 206.5,301.5 C 232.833,301.5 259.167,301.5 285.5,301.5C 285.5,303.833 285.5,306.167 285.5,308.5C 259.167,308.5 232.833,308.5 206.5,308.5C 206.5,306.167 206.5,303.833 206.5,301.5 Z"/></g>
<g><path style="opacity:1" fill="#22324c" d="M 432.5,298.5 C 435.448,298.223 438.281,298.556 441,299.5C 445.484,323.072 449.318,346.738 452.5,370.5C 438.481,372.336 424.481,374.336 410.5,376.5C 407.144,353.054 403.144,329.721 398.5,306.5C 398.709,305.914 399.043,305.414 399.5,305C 410.676,303.03 421.676,300.863 432.5,298.5 Z"/></g>
<g><path style="opacity:1" fill="#c9d7e5" d="M 432.5,300.5 C 434.833,300.5 437.167,300.5 439.5,300.5C 443.657,323.093 447.324,345.76 450.5,368.5C 437.847,370.593 425.18,372.593 412.5,374.5C 408.823,352.105 404.823,329.772 400.5,307.5C 411.229,304.94 421.896,302.606 432.5,300.5 Z"/></g>
<g><path style="opacity:1" fill="#31425c" d="M 431.5,306.5 C 433.604,306.201 435.604,306.534 437.5,307.5C 438.407,310.421 438.74,313.421 438.5,316.5C 435.475,316.877 432.475,317.044 429.5,317C 428.568,313.915 427.901,310.748 427.5,307.5C 429.099,307.768 430.432,307.434 431.5,306.5 Z"/></g>
<g><path style="opacity:1" fill="#84a7cc" d="M 429.5,308.5 C 431.833,308.5 434.167,308.5 436.5,308.5C 436.674,310.861 437.007,313.194 437.5,315.5C 431.073,317.238 428.406,314.905 429.5,308.5 Z"/></g>
<g><path style="opacity:1" fill="#697888" d="M 135.5,310.5 C 214.167,310.5 292.833,310.5 371.5,310.5C 341.833,311.167 312.167,311.833 282.5,312.5C 263.167,312.5 243.833,312.5 224.5,312.5C 194.833,311.833 165.167,311.167 135.5,310.5 Z"/></g>
<g><path style="opacity:1" fill="#2d3e58" d="M 421.5,308.5 C 423.144,308.286 424.644,308.62 426,309.5C 426.498,312.482 426.665,315.482 426.5,318.5C 417.892,321.504 414.558,318.504 416.5,309.5C 418.415,309.784 420.081,309.451 421.5,308.5 Z"/></g>
<g><path style="opacity:1" fill="#85a8ce" d="M 417.5,310.5 C 419.833,310.5 422.167,310.5 424.5,310.5C 424.993,312.806 425.326,315.139 425.5,317.5C 423.167,317.5 420.833,317.5 418.5,317.5C 418.326,315.139 417.993,312.806 417.5,310.5 Z"/></g>
<g><path style="opacity:1" fill="#1c273b" d="M 224.5,312.5 C 243.833,312.5 263.167,312.5 282.5,312.5C 285.134,314.54 285.134,316.707 282.5,319C 262.825,319.833 243.158,319.666 223.5,318.5C 221.948,316.065 222.281,314.065 224.5,312.5 Z"/></g>
<g><path style="opacity:1" fill="#e5df97" d="M 225.5,313.5 C 244.17,313.333 262.836,313.5 281.5,314C 282.337,315.011 282.67,316.178 282.5,317.5C 263.167,317.5 243.833,317.5 224.5,317.5C 224.433,316.041 224.766,314.708 225.5,313.5 Z"/></g>
<g><path style="opacity:1" fill="#30405a" d="M 408.5,310.5 C 410.5,310.5 412.5,310.5 414.5,310.5C 414.833,313.833 415.167,317.167 415.5,320.5C 412.167,320.833 408.833,321.167 405.5,321.5C 404.793,318.214 404.46,314.881 404.5,311.5C 406.099,311.768 407.432,311.434 408.5,310.5 Z"/></g>
<g><path style="opacity:1" fill="#84a7cd" d="M 407.5,312.5 C 412.906,311.735 414.906,314.069 413.5,319.5C 411.409,319.318 409.409,319.652 407.5,320.5C 406.779,318.314 406.113,316.147 405.5,314C 406.416,313.722 407.082,313.222 407.5,312.5 Z"/></g>
<g><path style="opacity:1" fill="#31425c" d="M 424.5,320.5 C 425.822,320.33 426.989,320.663 428,321.5C 428.696,324.478 429.196,327.478 429.5,330.5C 426.214,331.207 422.881,331.54 419.5,331.5C 418.793,328.214 418.46,324.881 418.5,321.5C 420.735,321.795 422.735,321.461 424.5,320.5 Z"/></g>
<g><path style="opacity:1" fill="#85a9ce" d="M 421.5,322.5 C 426.495,322.125 428.495,324.458 427.5,329.5C 425.139,329.674 422.806,330.007 420.5,330.5C 420.682,328.409 420.348,326.409 419.5,324.5C 420.243,323.818 420.909,323.151 421.5,322.5 Z"/></g>
<g><path style="opacity:1" fill="#2f405a" d="M 435.5,318.5 C 436.833,318.5 438.167,318.5 439.5,318.5C 440.207,321.786 440.54,325.119 440.5,328.5C 437.473,329.509 434.473,329.509 431.5,328.5C 430.833,326.167 430.167,323.833 429.5,321.5C 431.282,320.016 433.282,319.016 435.5,318.5 Z"/></g>
<g><path style="opacity:1" fill="#86aacf" d="M 434.5,320.5 C 435.833,320.5 437.167,320.5 438.5,320.5C 438.993,322.806 439.326,325.139 439.5,327.5C 437.409,327.318 435.409,327.652 433.5,328.5C 432.365,326.293 431.699,323.96 431.5,321.5C 432.791,321.737 433.791,321.404 434.5,320.5 Z"/></g>
<g><path style="opacity:1" fill="#8a99a6" d="M 238.5,324.5 C 248.5,324.5 258.5,324.5 268.5,324.5C 268.5,331.5 268.5,338.5 268.5,345.5C 258.5,345.5 248.5,345.5 238.5,345.5C 238.5,338.5 238.5,331.5 238.5,324.5 Z"/></g>
<g><path style="opacity:1" fill="#364761" d="M 415.5,324.5 C 419.596,332.757 416.93,335.757 407.5,333.5C 406.865,330.507 406.699,327.507 407,324.5C 409.937,323.183 412.77,323.183 415.5,324.5 Z"/></g>
<g><path style="opacity:1" fill="#84a7cc" d="M 415.5,324.5 C 415.5,326.833 415.5,329.167 415.5,331.5C 413.139,331.674 410.806,332.007 408.5,332.5C 408.756,330.208 408.423,328.041 407.5,326C 410.063,324.921 412.729,324.421 415.5,324.5 Z"/></g>
<g><path style="opacity:1" fill="#2b3c56" d="M 435.5,331.5 C 437.604,331.201 439.604,331.534 441.5,332.5C 442.932,335.33 443.265,338.164 442.5,341C 439.776,341.27 437.109,341.77 434.5,342.5C 432.817,339.398 432.151,336.064 432.5,332.5C 433.791,332.737 434.791,332.404 435.5,331.5 Z"/></g>
<g><path style="opacity:1" fill="#84a8cd" d="M 437.5,332.5 C 438.675,332.281 439.675,332.614 440.5,333.5C 441.348,335.409 441.682,337.409 441.5,339.5C 439.194,339.993 436.861,340.326 434.5,340.5C 434.326,338.139 433.993,335.806 433.5,333.5C 435.099,333.768 436.432,333.434 437.5,332.5 Z"/></g>
<g><path style="opacity:1" fill="#30415a" d="M 422.5,333.5 C 425.167,333.5 427.833,333.5 430.5,333.5C 430.616,336.86 430.949,340.193 431.5,343.5C 428.119,343.46 424.786,343.793 421.5,344.5C 421.493,341.962 421.159,339.462 420.5,337C 420.862,335.566 421.528,334.399 422.5,333.5 Z"/></g>
<g><path style="opacity:1" fill="#84a8cd" d="M 426.5,334.5 C 427.496,334.414 428.329,334.748 429,335.5C 430.492,341.161 428.325,343.494 422.5,342.5C 422.326,340.139 421.993,337.806 421.5,335.5C 423.415,335.784 425.081,335.451 426.5,334.5 Z"/></g>
<g><path style="opacity:1" fill="#374963" d="M 411.5,335.5 C 413.833,335.5 416.167,335.5 418.5,335.5C 418.833,338.833 419.167,342.167 419.5,345.5C 416.14,345.616 412.807,345.949 409.5,346.5C 408.949,343.193 408.616,339.86 408.5,336.5C 409.791,336.737 410.791,336.404 411.5,335.5 Z"/></g>
<g><path style="opacity:1" fill="#86aad0" d="M 410.5,337.5 C 412.833,337.5 415.167,337.5 417.5,337.5C 418.498,343.167 416.164,345.501 410.5,344.5C 410.5,342.167 410.5,339.833 410.5,337.5 Z"/></g>
<g><path style="opacity:1" fill="#364862" d="M 438.5,343.5 C 440.5,343.5 442.5,343.5 444.5,343.5C 444.833,346.833 445.167,350.167 445.5,353.5C 442.167,353.833 438.833,354.167 435.5,354.5C 434.949,351.193 434.616,347.86 434.5,344.5C 436.099,344.768 437.432,344.434 438.5,343.5 Z"/></g>
<g><path style="opacity:1" fill="#84a8cd" d="M 436.5,345.5 C 442.5,344.167 444.833,346.5 443.5,352.5C 441.409,352.318 439.409,352.652 437.5,353.5C 436.52,350.914 436.187,348.247 436.5,345.5 Z"/></g>
<g><path style="opacity:1" fill="#31425c" d="M 428.5,345.5 C 429.833,345.5 431.167,345.5 432.5,345.5C 432.833,348.833 433.167,352.167 433.5,355.5C 430.167,355.833 426.833,356.167 423.5,356.5C 423.167,353.167 422.833,349.833 422.5,346.5C 424.735,346.795 426.735,346.461 428.5,345.5 Z"/></g>
<g><path style="opacity:1" fill="#84a7cd" d="M 425.5,347.5 C 427.5,347.5 429.5,347.5 431.5,347.5C 431.5,349.833 431.5,352.167 431.5,354.5C 429.139,354.674 426.806,355.007 424.5,355.5C 424.279,352.721 424.612,350.054 425.5,347.5 Z"/></g>
<g><path style="opacity:1" fill="#8a99a6" d="M 363.5,347.5 C 363.5,350.167 363.5,352.833 363.5,355.5C 289.833,355.5 216.167,355.5 142.5,355.5C 142.5,352.833 142.5,350.167 142.5,347.5C 216.167,347.5 289.833,347.5 363.5,347.5 Z"/></g>
<g><path style="opacity:1" fill="#374963" d="M 417.5,347.5 C 418.5,347.5 419.5,347.5 420.5,347.5C 421.051,350.807 421.384,354.14 421.5,357.5C 418.193,358.051 414.86,358.384 411.5,358.5C 411.384,355.14 411.051,351.807 410.5,348.5C 413.059,348.802 415.393,348.468 417.5,347.5 Z"/></g>
<g><path style="opacity:1" fill="#86a9cf" d="M 413.5,349.5 C 415.5,349.5 417.5,349.5 419.5,349.5C 419.674,351.861 420.007,354.194 420.5,356.5C 418.208,356.244 416.041,356.577 414,357.5C 412.487,354.836 412.32,352.17 413.5,349.5 Z"/></g>
<g><path style="opacity:1" fill="#3a4a5f" d="M 363.5,347.5 C 364.477,350.287 364.81,353.287 364.5,356.5C 290.331,356.833 216.331,356.499 142.5,355.5C 216.167,355.5 289.833,355.5 363.5,355.5C 363.5,352.833 363.5,350.167 363.5,347.5 Z"/></g>
<g><path style="opacity:0.985" fill="#14243d" d="M 119.5,234.5 C 118.833,234.5 118.5,234.833 118.5,235.5C 112.167,235.5 105.833,235.5 99.5,235.5C 99.5,253.5 99.5,271.5 99.5,289.5C 105.833,289.5 112.167,289.5 118.5,289.5C 118.5,290.167 118.833,290.5 119.5,290.5C 111.684,291.492 103.684,291.826 95.5,291.5C 95.5,294.833 95.5,298.167 95.5,301.5C 91.5,301.5 87.5,301.5 83.5,301.5C 83.5,319.5 83.5,337.5 83.5,355.5C 82.325,355.281 81.325,355.614 80.5,356.5C 88.9491,370.79 99.1157,383.79 111,395.5C 111.333,390.167 111.667,384.833 112,379.5C 112.75,378.874 113.584,378.374 114.5,378C 154.167,377.333 193.833,377.333 233.5,378C 234,378.5 234.5,379 235,379.5C 235.333,404.5 235.667,429.5 236,454.5C 247.085,455.487 258.252,455.821 269.5,455.5C 272.059,455.198 274.393,455.532 276.5,456.5C 266.539,457.424 256.539,457.758 246.5,457.5C 246.846,460.602 246.179,463.435 244.5,466C 197.835,466.5 151.168,466.667 104.5,466.5C 150.489,464.67 196.823,463.837 243.5,464C 244.423,461.959 244.756,459.792 244.5,457.5C 197.5,457.5 150.5,457.5 103.5,457.5C 103.662,459.527 103.495,461.527 103,463.5C 102.617,464.056 102.117,464.389 101.5,464.5C 100.225,461.396 100.225,458.396 101.5,455.5C 105.329,456.069 108.663,455.402 111.5,453.5C 111.667,435.497 111.5,417.497 111,399.5C 98.4677,386.306 87.4677,371.973 78,356.5C 75.6667,355.833 73.3333,355.167 71,354.5C 70.6667,350.167 70.3333,345.833 70,341.5C 61.9968,325.657 56.4968,308.991 53.5,291.5C 47.8333,291.5 42.1667,291.5 36.5,291.5C 36.4199,272.249 36.4199,252.916 36.5,233.5C 39.8067,232.949 43.1401,232.616 46.5,232.5C 46.5,222.167 46.5,211.833 46.5,201.5C 49.5184,201.665 52.5184,201.498 55.5,201C 56.2666,199.53 56.9332,198.03 57.5,196.5C 58.3019,197.952 58.8019,199.618 59,201.5C 59.4101,200.099 59.9101,198.766 60.5,197.5C 60.9528,196.542 61.6195,195.708 62.5,195C 74.8333,194.333 87.1667,194.333 99.5,195C 103.5,199.667 103.5,204.333 99.5,209C 87.1667,209.667 74.8333,209.667 62.5,209C 60.9867,207.079 59.3201,205.746 57.5,205C 54.8126,214.29 53.1459,223.79 52.5,233.5C 53.5,233.5 54.5,233.5 55.5,233.5C 55.5,228.5 55.5,223.5 55.5,218.5C 68.8333,218.5 82.1667,218.5 95.5,218.5C 95.5,223.5 95.5,228.5 95.5,233.5C 103.684,233.174 111.684,233.508 119.5,234.5 Z M 54.5,207.5 C 52.4954,213.209 51.4954,219.209 51.5,225.5C 50.5093,219.021 50.176,212.354 50.5,205.5C 52.4832,205.157 53.8166,205.824 54.5,207.5 Z"/></g>
<g><path style="opacity:1" fill="#5b7593" d="M 70.5,301.5 C 71.6599,313.66 71.8265,325.993 71,338.5C 69.9614,337.756 69.4614,336.756 69.5,335.5C 70.4948,324.346 70.8281,313.012 70.5,301.5 Z"/></g>
<g><path style="opacity:1" fill="#243f58" d="M 73.5,301.5 C 76.1667,301.5 78.8333,301.5 81.5,301.5C 81.5,318.5 81.5,335.5 81.5,352.5C 78.8333,352.5 76.1667,352.5 73.5,352.5C 73.5,335.5 73.5,318.5 73.5,301.5 Z"/></g>
<g><path style="opacity:1" fill="#243e57" d="M 61.5,291.5 C 72.1667,291.5 82.8333,291.5 93.5,291.5C 93.5,294.167 93.5,296.833 93.5,299.5C 82.8333,299.5 72.1667,299.5 61.5,299.5C 61.5,296.833 61.5,294.167 61.5,291.5 Z"/></g>
<g><path style="opacity:1" fill="#90b0d1" d="M 70.5,301.5 C 70.8281,313.012 70.4948,324.346 69.5,335.5C 63.4283,321.285 58.7616,306.618 55.5,291.5C 57.1667,291.5 58.8333,291.5 60.5,291.5C 60.5,294.833 60.5,298.167 60.5,301.5C 63.8333,301.5 67.1667,301.5 70.5,301.5 Z"/></g>
<g><path style="opacity:1" fill="#8695a3" d="M 38.5,235.5 C 58.1667,235.5 77.8333,235.5 97.5,235.5C 97.5,253.5 97.5,271.5 97.5,289.5C 77.8333,289.5 58.1667,289.5 38.5,289.5C 38.5,271.5 38.5,253.5 38.5,235.5 Z"/></g>
<g><path style="opacity:1" fill="#1b2a42" d="M 81.5,251.5 C 91.8782,251.031 95.7115,255.698 93,265.5C 86.4024,272.513 80.7357,271.846 76,263.5C 74.8735,258.089 76.7068,254.089 81.5,251.5 Z"/></g>
<g><path style="opacity:1" fill="#d7e2ec" d="M 81.5,253.5 C 89.164,252.666 92.664,256 92,263.5C 88.2951,267.982 83.9618,268.649 79,265.5C 76.5112,260.757 77.3445,256.757 81.5,253.5 Z"/></g>
<g><path style="opacity:1" fill="#16243d" d="M 41.5,246.5 C 51.8387,246.334 62.172,246.5 72.5,247C 73.4866,257.418 73.8199,267.918 73.5,278.5C 62.8333,278.5 52.1667,278.5 41.5,278.5C 41.5,267.833 41.5,257.167 41.5,246.5 Z"/></g>
<g><path style="opacity:1" fill="#dbe5ef" d="M 43.5,248.5 C 52.8333,248.5 62.1667,248.5 71.5,248.5C 71.5,257.833 71.5,267.167 71.5,276.5C 62.1667,276.5 52.8333,276.5 43.5,276.5C 43.5,267.167 43.5,257.833 43.5,248.5 Z"/></g>
<g><path style="opacity:1" fill="#223c55" d="M 83.5,220.5 C 86.8333,220.5 90.1667,220.5 93.5,220.5C 93.5,224.833 93.5,229.167 93.5,233.5C 90.1667,233.5 86.8333,233.5 83.5,233.5C 83.5,229.167 83.5,224.833 83.5,220.5 Z"/></g>
<g><path style="opacity:1" fill="#8392a1" d="M 57.5,221.5 C 65.5,221.5 73.5,221.5 81.5,221.5C 81.5,225.5 81.5,229.5 81.5,233.5C 73.5,233.5 65.5,233.5 57.5,233.5C 57.5,229.5 57.5,225.5 57.5,221.5 Z"/></g>
<g><path style="opacity:0.22" fill="#bbc0c6" d="M 54.5,207.5 C 53.8166,205.824 52.4832,205.157 50.5,205.5C 50.176,212.354 50.5093,219.021 51.5,225.5C 51.067,228.166 50.567,230.832 50,233.5C 49.5002,223.839 49.3335,214.172 49.5,204.5C 51.5,204.5 53.5,204.5 55.5,204.5C 55.7373,205.791 55.404,206.791 54.5,207.5 Z"/></g>
<g><path style="opacity:1" fill="#243f58" d="M 62.5,196.5 C 74.5046,196.333 86.5046,196.5 98.5,197C 101.167,200.333 101.167,203.667 98.5,207C 86.8333,207.667 75.1667,207.667 63.5,207C 61.2383,203.731 60.905,200.231 62.5,196.5 Z"/></g>
<g><path style="opacity:1" fill="#233e57" d="M 114.5,379.5 C 153.835,379.333 193.168,379.5 232.5,380C 233.494,404.759 233.828,429.592 233.5,454.5C 193.5,454.5 153.5,454.5 113.5,454.5C 113.177,429.425 113.51,404.425 114.5,379.5 Z"/></g>
<g><path style="opacity:1" fill="#1e2d46" d="M 115.5,381.5 C 154.167,381.5 192.833,381.5 231.5,381.5C 231.5,405.5 231.5,429.5 231.5,453.5C 192.833,453.5 154.167,453.5 115.5,453.5C 115.5,429.5 115.5,405.5 115.5,381.5 Z"/></g>
<g><path style="opacity:1" fill="#c3d5e8" d="M 117.5,383.5 C 154.833,383.5 192.167,383.5 229.5,383.5C 229.5,405.833 229.5,428.167 229.5,450.5C 192.167,450.5 154.833,450.5 117.5,450.5C 117.5,428.167 117.5,405.833 117.5,383.5 Z"/></g>
<g><path style="opacity:1" fill="#4b5f78" d="M 179.5,392.5 C 193.99,391.504 208.657,391.171 223.5,391.5C 223.825,398.687 223.491,405.687 222.5,412.5C 222.5,411.833 222.167,411.5 221.5,411.5C 221.5,406.833 221.5,402.167 221.5,397.5C 207.833,397.5 194.167,397.5 180.5,397.5C 180.784,395.585 180.451,393.919 179.5,392.5 Z"/></g>
<g><path style="opacity:1" fill="#8aaed2" d="M 188.5,394.5 C 199.34,393.176 210.34,393.176 221.5,394.5C 210.439,395.809 199.439,395.809 188.5,394.5 Z"/></g>
<g><path style="opacity:1" fill="#4c5a70" d="M 123.5,391.5 C 139.167,391.5 154.833,391.5 170.5,391.5C 170.5,407.167 170.5,422.833 170.5,438.5C 155.163,438.667 139.83,438.5 124.5,438C 123.509,422.578 123.176,407.078 123.5,391.5 Z"/></g>
<g><path style="opacity:1" fill="#4e637e" d="M 168.5,393.5 C 123.167,394.167 123.167,394.833 168.5,395.5C 168.5,396.167 168.5,396.833 168.5,397.5C 154.167,397.5 139.833,397.5 125.5,397.5C 125.5,396.167 125.5,394.833 125.5,393.5C 139.768,392.323 154.101,392.323 168.5,393.5 Z"/></g>
<g><path style="opacity:1" fill="#8bafd3" d="M 168.5,393.5 C 168.5,394.167 168.5,394.833 168.5,395.5C 123.167,394.833 123.167,394.167 168.5,393.5 Z"/></g>
<g><path style="opacity:1" fill="#fefffe" d="M 125.5,397.5 C 139.833,397.5 154.167,397.5 168.5,397.5C 168.5,410.5 168.5,423.5 168.5,436.5C 154.167,436.5 139.833,436.5 125.5,436.5C 125.5,423.5 125.5,410.5 125.5,397.5 Z"/></g>
<g><path style="opacity:1" fill="#f9f9fa" d="M 180.5,397.5 C 194.167,397.5 207.833,397.5 221.5,397.5C 221.5,402.167 221.5,406.833 221.5,411.5C 207.833,411.5 194.167,411.5 180.5,411.5C 180.5,406.833 180.5,402.167 180.5,397.5 Z"/></g>
<g><path style="opacity:0.999" fill="#202a41" d="M 394.5,400.5 C 395.492,400.328 396.158,400.662 396.5,401.5C 398.19,402.103 399.69,403.103 401,404.5C 401.667,419.167 401.667,433.833 401,448.5C 400.477,450.223 399.477,451.556 398,452.5C 365.343,453.802 332.51,453.802 299.5,452.5C 298.209,452.737 297.209,452.404 296.5,451.5C 297.922,451.291 299.255,450.791 300.5,450C 299.509,434.578 299.176,419.078 299.5,403.5C 330.168,403.667 360.835,403.5 391.5,403C 392.373,401.955 393.373,401.122 394.5,400.5 Z"/></g>
<g><path style="opacity:1" fill="#6e4e38" d="M 398.5,405.5 C 366.5,405.5 334.5,405.5 302.5,405.5C 302.5,406.833 302.5,408.167 302.5,409.5C 302.5,409.833 302.5,410.167 302.5,410.5C 301.539,408.735 301.205,406.735 301.5,404.5C 334.004,404.168 366.338,404.502 398.5,405.5 Z"/></g>
<g><path style="opacity:1" fill="#fe9b3f" d="M 398.5,405.5 C 398.5,406.833 398.5,408.167 398.5,409.5C 366.5,409.5 334.5,409.5 302.5,409.5C 302.5,408.167 302.5,406.833 302.5,405.5C 334.5,405.5 366.5,405.5 398.5,405.5 Z"/></g>
<g><path style="opacity:1" fill="#ae703b" d="M 398.5,405.5 C 399.451,406.919 399.784,408.585 399.5,410.5C 367.167,410.5 334.833,410.5 302.5,410.5C 302.5,410.167 302.5,409.833 302.5,409.5C 334.5,409.5 366.5,409.5 398.5,409.5C 398.5,408.167 398.5,406.833 398.5,405.5 Z"/></g>
<g><path style="opacity:1" fill="#15263e" d="M 179.5,392.5 C 180.451,393.919 180.784,395.585 180.5,397.5C 180.5,402.167 180.5,406.833 180.5,411.5C 194.167,411.5 207.833,411.5 221.5,411.5C 222.167,411.5 222.5,411.833 222.5,412.5C 208.167,412.5 193.833,412.5 179.5,412.5C 179.5,405.833 179.5,399.167 179.5,392.5 Z"/></g>
<g><path style="opacity:1" fill="#d1823e" d="M 301.5,412.5 C 302.833,412.5 304.167,412.5 305.5,412.5C 305.5,424.5 305.5,436.5 305.5,448.5C 336.167,448.5 366.833,448.5 397.5,448.5C 397.333,436.495 397.5,424.495 398,412.5C 398.167,418.833 398.333,425.167 398.5,431.5C 398.478,438.24 397.812,444.74 396.5,451C 365.5,451.667 334.5,451.667 303.5,451C 303,450.5 302.5,450 302,449.5C 301.5,437.171 301.333,424.838 301.5,412.5 Z"/></g>
<g><path style="opacity:1" fill="#fcfcfc" d="M 306.5,412.5 C 307.833,412.5 309.167,412.5 310.5,412.5C 310.179,417.695 310.513,422.695 311.5,427.5C 313.399,433.882 314.066,440.549 313.5,447.5C 311.167,447.5 308.833,447.5 306.5,447.5C 306.5,435.833 306.5,424.167 306.5,412.5 Z"/></g>
<g><path style="opacity:1" fill="#8b939f" d="M 306.5,412.5 C 307.919,411.549 309.585,411.216 311.5,411.5C 311.5,416.833 311.5,422.167 311.5,427.5C 310.513,422.695 310.179,417.695 310.5,412.5C 309.167,412.5 307.833,412.5 306.5,412.5 Z"/></g>
<g><path style="opacity:1" fill="#4a5668" d="M 318.5,411.5 C 318.5,411.833 318.5,412.167 318.5,412.5C 318.5,417.833 318.5,423.167 318.5,428.5C 317.5,428.5 316.5,428.5 315.5,428.5C 317.071,422.936 318.071,417.269 318.5,411.5 Z"/></g>
<g><path style="opacity:1" fill="#fbfbfb" d="M 318.5,412.5 C 319.833,412.5 321.167,412.5 322.5,412.5C 322.5,424.167 322.5,435.833 322.5,447.5C 320.167,447.5 317.833,447.5 315.5,447.5C 315.5,441.167 315.5,434.833 315.5,428.5C 316.5,428.5 317.5,428.5 318.5,428.5C 318.5,423.167 318.5,417.833 318.5,412.5 Z"/></g>
<g><path style="opacity:1" fill="#939aa5" d="M 318.5,412.5 C 318.5,412.167 318.5,411.833 318.5,411.5C 320.167,411.5 321.833,411.5 323.5,411.5C 323.828,423.678 323.495,435.678 322.5,447.5C 322.5,435.833 322.5,424.167 322.5,412.5C 321.167,412.5 319.833,412.5 318.5,412.5 Z"/></g>
<g><path style="opacity:1" fill="#b1b6be" d="M 329.5,427.5 C 328.513,422.695 328.179,417.695 328.5,412.5C 327.5,412.5 326.5,412.5 325.5,412.5C 325.5,424.167 325.5,435.833 325.5,447.5C 324.505,435.678 324.172,423.678 324.5,411.5C 326.167,411.5 327.833,411.5 329.5,411.5C 329.5,416.833 329.5,422.167 329.5,427.5 Z"/></g>
<g><path style="opacity:1" fill="#f7f7f8" d="M 329.5,427.5 C 330.209,428.404 331.209,428.737 332.5,428.5C 332.5,434.833 332.5,441.167 332.5,447.5C 330.167,447.5 327.833,447.5 325.5,447.5C 325.5,435.833 325.5,424.167 325.5,412.5C 326.5,412.5 327.5,412.5 328.5,412.5C 328.179,417.695 328.513,422.695 329.5,427.5 Z"/></g>
<g><path style="opacity:1" fill="#f6f6f7" d="M 336.5,412.5 C 337.833,412.5 339.167,412.5 340.5,412.5C 340.5,424.167 340.5,435.833 340.5,447.5C 338.167,447.5 335.833,447.5 333.5,447.5C 333.5,441.167 333.5,434.833 333.5,428.5C 334.5,428.5 335.5,428.5 336.5,428.5C 336.5,423.167 336.5,417.833 336.5,412.5 Z"/></g>
<g><path style="opacity:1" fill="#caced3" d="M 336.5,412.5 C 337.919,411.549 339.585,411.216 341.5,411.5C 341.828,423.678 341.495,435.678 340.5,447.5C 340.5,435.833 340.5,424.167 340.5,412.5C 339.167,412.5 337.833,412.5 336.5,412.5 Z"/></g>
<g><path style="opacity:1" fill="#77808e" d="M 350.5,428.5 C 349.167,428.5 347.833,428.5 346.5,428.5C 346.5,423.167 346.5,417.833 346.5,412.5C 345.5,412.5 344.5,412.5 343.5,412.5C 343.5,424.167 343.5,435.833 343.5,447.5C 342.505,435.678 342.172,423.678 342.5,411.5C 344.167,411.5 345.833,411.5 347.5,411.5C 347.5,416.833 347.5,422.167 347.5,427.5C 348.791,427.263 349.791,427.596 350.5,428.5 Z"/></g>
<g><path style="opacity:1" fill="#fdfdfd" d="M 350.5,428.5 C 350.5,434.833 350.5,441.167 350.5,447.5C 348.167,447.5 345.833,447.5 343.5,447.5C 343.5,435.833 343.5,424.167 343.5,412.5C 344.5,412.5 345.5,412.5 346.5,412.5C 346.5,417.833 346.5,423.167 346.5,428.5C 347.833,428.5 349.167,428.5 350.5,428.5 Z"/></g>
<g><path style="opacity:1" fill="#7d8693" d="M 359.5,412.5 C 357.833,412.5 356.167,412.5 354.5,412.5C 355.113,418.271 354.446,423.604 352.5,428.5C 353.452,422.925 353.786,417.259 353.5,411.5C 355.735,411.205 357.735,411.539 359.5,412.5 Z"/></g>
<g><path style="opacity:1" fill="#fefffe" d="M 359.5,412.5 C 359.5,424.167 359.5,435.833 359.5,447.5C 357.167,447.5 354.833,447.5 352.5,447.5C 352.5,441.167 352.5,434.833 352.5,428.5C 354.446,423.604 355.113,418.271 354.5,412.5C 356.167,412.5 357.833,412.5 359.5,412.5 Z"/></g>
<g><path style="opacity:1" fill="#99a0aa" d="M 377.5,412.5 C 375.833,412.5 374.167,412.5 372.5,412.5C 372.821,417.695 372.487,422.695 371.5,427.5C 371.5,422.167 371.5,416.833 371.5,411.5C 373.735,411.205 375.735,411.539 377.5,412.5 Z"/></g>
<g><path style="opacity:1" fill="#fefefe" d="M 377.5,412.5 C 377.5,424.167 377.5,435.833 377.5,447.5C 375.167,447.5 372.833,447.5 370.5,447.5C 370.207,440.745 370.54,434.078 371.5,427.5C 372.487,422.695 372.821,417.695 372.5,412.5C 374.167,412.5 375.833,412.5 377.5,412.5 Z"/></g>
<g><path style="opacity:1" fill="#fafafb" d="M 379.5,411.5 C 380.5,411.5 381.5,411.5 382.5,411.5C 382.5,417.167 382.5,422.833 382.5,428.5C 383.833,428.5 385.167,428.5 386.5,428.5C 386.5,434.833 386.5,441.167 386.5,447.5C 384.167,447.5 381.833,447.5 379.5,447.5C 379.5,435.5 379.5,423.5 379.5,411.5 Z"/></g>
<g><path style="opacity:1" fill="#fcfdfd" d="M 389.5,412.5 C 391.5,412.5 393.5,412.5 395.5,412.5C 395.5,424.167 395.5,435.833 395.5,447.5C 393.167,447.5 390.833,447.5 388.5,447.5C 388.728,435.83 389.062,424.163 389.5,412.5 Z"/></g>
<g><path style="opacity:1" fill="#8c949f" d="M 389.5,412.5 C 391.607,411.532 393.941,411.198 396.5,411.5C 396.828,423.678 396.495,435.678 395.5,447.5C 395.5,435.833 395.5,424.167 395.5,412.5C 393.5,412.5 391.5,412.5 389.5,412.5 Z"/></g>
<g><path style="opacity:1" fill="#404c63" d="M 179.5,416.5 C 194.167,416.5 208.833,416.5 223.5,416.5C 223.5,423.5 223.5,430.5 223.5,437.5C 208.833,437.5 194.167,437.5 179.5,437.5C 179.5,430.5 179.5,423.5 179.5,416.5 Z"/></g>
<g><path style="opacity:1" fill="#6681a1" d="M 221.5,418.5 C 211.161,418.334 200.828,418.5 190.5,419C 189.944,419.383 189.611,419.883 189.5,420.5C 186.5,420.5 183.5,420.5 180.5,420.5C 180.281,419.325 180.614,418.325 181.5,417.5C 194.831,417.203 208.164,417.536 221.5,418.5 Z"/></g>
<g><path style="opacity:1" fill="#8aaed3" d="M 221.5,418.5 C 211.219,420.476 200.552,421.143 189.5,420.5C 189.611,419.883 189.944,419.383 190.5,419C 200.828,418.5 211.161,418.334 221.5,418.5 Z"/></g>
<g><path style="opacity:1" fill="#fefefe" d="M 180.5,422.5 C 194.167,422.5 207.833,422.5 221.5,422.5C 221.5,426.833 221.5,431.167 221.5,435.5C 207.833,435.5 194.167,435.5 180.5,435.5C 180.5,431.167 180.5,426.833 180.5,422.5 Z"/></g>
<g><path style="opacity:1" fill="#3d495d" d="M 371.5,427.5 C 370.54,434.078 370.207,440.745 370.5,447.5C 369.833,447.5 369.167,447.5 368.5,447.5C 368.5,441.167 368.5,434.833 368.5,428.5C 367.167,428.5 365.833,428.5 364.5,428.5C 364.5,423.167 364.5,417.833 364.5,412.5C 363.5,412.5 362.5,412.5 361.5,412.5C 361.5,424.167 361.5,435.833 361.5,447.5C 360.505,435.678 360.172,423.678 360.5,411.5C 362.167,411.5 363.833,411.5 365.5,411.5C 365.5,416.833 365.5,422.167 365.5,427.5C 367.5,427.5 369.5,427.5 371.5,427.5 Z"/></g>
<g><path style="opacity:1" fill="#fefffe" d="M 368.5,447.5 C 366.167,447.5 363.833,447.5 361.5,447.5C 361.5,435.833 361.5,424.167 361.5,412.5C 362.5,412.5 363.5,412.5 364.5,412.5C 364.5,417.833 364.5,423.167 364.5,428.5C 365.833,428.5 367.167,428.5 368.5,428.5C 368.5,434.833 368.5,441.167 368.5,447.5 Z"/></g>
<g><path style="opacity:0.967" fill="#303d56" d="M 296.5,451.5 C 297.209,452.404 298.209,452.737 299.5,452.5C 292.123,454.786 284.456,456.119 276.5,456.5C 274.393,455.532 272.059,455.198 269.5,455.5C 278.351,454.083 287.351,452.75 296.5,451.5 Z"/></g>
<g><path style="opacity:0.259" fill="#89919d" d="M 111.5,453.5 C 108.663,455.402 105.329,456.069 101.5,455.5C 104.725,454.763 108.059,454.097 111.5,453.5 Z"/></g>
<g><path style="opacity:1" fill="#243f58" d="M 104.5,466.5 C 103.29,466.068 102.29,465.401 101.5,464.5C 102.117,464.389 102.617,464.056 103,463.5C 103.495,461.527 103.662,459.527 103.5,457.5C 150.5,457.5 197.5,457.5 244.5,457.5C 244.756,459.792 244.423,461.959 243.5,464C 196.823,463.837 150.489,464.67 104.5,466.5 Z"/></g>
</svg>
